<svg viewBox="0 0 1024 1024.003" xmlns="http://www.w3.org/2000/svg"><path d="M766.282 214.615L547.182 9.353C540.772 3.345 532.318 0 523.532 0H113.01C81.216 0 55.352 25.868 55.352 57.66v796.827c0 31.792 25.866 57.658 57.658 57.658h377.082v-69.19H124.54V69.19h385.314l198.18 185.66v268.683h69.19V239.857c.002-9.56-3.966-18.704-10.942-25.242zM697.658 482.02c-149.426 0-270.99 121.565-270.99 270.99S548.232 1024 697.658 1024 968.65 902.436 968.65 753.01 847.084 482.02 697.658 482.02zm0 472.79c-111.268 0-201.802-90.52-201.802-201.8s90.534-201.803 201.802-201.803c111.268 0 201.802 90.534 201.802 201.802s-90.534 201.8-201.802 201.8zm0-341.33c-19.108 0-34.594 15.485-34.594 34.593V859.1c0 19.11 15.486 34.595 34.594 34.595s34.594-15.486 34.594-34.594V648.074c0-19.108-15.486-34.594-34.594-34.594zm106.09 104.935H592.71c-19.108 0-34.594 15.486-34.594 34.594s15.486 34.593 34.594 34.593h211.038c19.108 0 34.594-15.486 34.594-34.594 0-19.107-15.486-34.595-34.594-34.595zM558.114 205.263V34.595h-69.19v205.262c0 19.108 15.486 34.594 34.594 34.594h219.1v-69.19H558.114z"/></svg>