<svg viewBox="0 0 1024 1024.003" xmlns="http://www.w3.org/2000/svg"><path d="M731.427 182.857H109.714C49.12 182.857 0 231.977 0 292.57v621.714c0 60.594 49.12 109.714 109.714 109.714h621.713c60.594 0 109.714-49.12 109.714-109.714V292.57c0-60.593-49.12-109.713-109.713-109.713zM768 914.287c0 20.2-16.375 36.572-36.573 36.572H109.714c-20.2 0-36.572-16.375-36.572-36.573V292.572c0-20.2 16.374-36.572 36.572-36.572h621.713c20.2 0 36.572 16.374 36.572 36.572v621.715zM914.285 0H256c-60.593 0-109.713 49.122-109.713 109.715 0 20.2 16.374 36.572 36.572 36.572s36.57-16.374 36.57-36.572S235.802 73.143 256 73.143h658.286c20.2 0 36.572 16.374 36.572 36.572V768c0 20.2-16.374 36.572-36.572 36.572s-36.572 16.374-36.572 36.572 16.374 36.572 36.572 36.572c60.594 0 109.714-49.12 109.714-109.714V109.715C1024 49.12 974.88 0 914.286 0z"/></svg>