<svg viewBox="0 0 1024 1024.003" xmlns="http://www.w3.org/2000/svg"><path d="M898.616 814.62L845.71 669.26c-29.494-81.025-118.93-122.74-199.964-93.245-25.422 9.254-47.484 24.604-64.676 44.548l-26.5-72.808L734.162 54.33c7.554-20.76-3.148-43.713-23.906-51.27-20.76-7.55-43.712 3.15-51.27 23.91L512.002 430.8 364.786 26.334c-7.554-20.756-30.51-31.468-51.27-23.908-20.758 7.556-31.46 30.51-23.906 51.268l179.824 494.06-26.5 72.808c-17.192-19.943-39.256-35.295-64.678-44.547-81.026-29.488-170.468 12.21-199.964 93.246l-52.906 145.357c-29.422 80.836 12.406 170.542 93.244 199.964 80.84 29.423 170.544-12.41 199.966-93.243L512 664.71l93.406 256.627c29.424 80.838 119.126 122.668 199.966 93.244 80.838-29.42 122.668-119.123 93.244-199.96zm-502.292-66L343.42 893.976c-14.336 39.386-58.04 59.766-97.428 45.43-39.386-14.334-59.768-58.04-45.432-97.428l52.906-145.36c14.366-39.475 57.944-59.8 97.424-45.43 39.478 14.37 59.806 57.947 45.434 97.43zM778.01 939.406c-39.384 14.336-83.09-6.044-97.428-45.43L627.678 748.62c-14.37-39.477 5.948-83.057 45.432-97.43 39.636-14.425 83.112 6.105 97.424 45.43l52.906 145.36c14.336 39.387-6.044 83.093-45.43 97.427z"/></svg>