<svg viewBox="0 0 1024 1024.003" xmlns="http://www.w3.org/2000/svg"><path d="M880.078 789.58L1024 933.5l-56.54 56.54-143.913-143.922L679.625 990.04l-56.54-56.54L767.01 789.58 623.086 645.664l56.54-56.54 143.92 143.923 143.915-143.922 56.54 56.54zM119.93 837.625h485.953L526 917.51H119.93C53.805 917.51 0 863.78 0 797.65V153.86C0 87.73 53.805 34.003 119.93 34.003h308.352l61.383 92c5.828 8.734 15.75 13.938 26.563 13.938l387.29.016c32.022 0 62.14 12.47 84.788 35.117 22.656 22.648 35.125 52.766 35.125 84.805v272.14l-79.952-79.952V259.878c0-10.68-4.156-20.72-11.71-28.266-7.548-7.547-14.274-11.71-28.267-11.71l-387.093-.01h-.273c-.14 0-.28-.015-.422-.015v.016c-9.648 0-20.367 5.96-26.047 14.492l-.32.47-62.54 90.983-306.858.016c-10.688 0-20.727 4.156-28.28 11.71-7.548 7.548-11.712 17.587-11.712 28.267v431.82c0 22.048 17.938 39.978 39.977 39.978zM79.953 252.704c12.672-4.47 26.148-6.805 39.977-6.805l264.813-.017 38.57-56.117c2.242-3.336 4.688-6.516 7.258-9.57-2.632-3.125-5.132-6.398-7.43-9.844l-37.647-56.47H119.93c-22.04 0-39.977 17.93-39.977 39.978z"/></svg>