<svg viewBox="0 0 1024 1024.003" xmlns="http://www.w3.org/2000/svg"><path d="M1014.326 496.385c.406-.494.758-1.014 1.136-1.52.454-.608.926-1.202 1.348-1.834.406-.605.758-1.235 1.13-1.86.342-.57.7-1.13 1.016-1.72.34-.635.628-1.29.934-1.937.29-.614.596-1.218.856-1.846.26-.63.47-1.272.7-1.912.242-.674.5-1.34.71-2.03.194-.64.336-1.29.498-1.936.178-.703.374-1.397.516-2.113.148-.75.236-1.506.344-2.26.088-.622.208-1.236.27-1.866.276-2.8.276-5.62 0-8.42-.062-.63-.18-1.243-.27-1.865-.108-.756-.196-1.512-.346-2.26-.142-.716-.338-1.408-.516-2.11-.162-.648-.304-1.298-.498-1.938-.208-.688-.466-1.354-.708-2.026-.23-.64-.44-1.283-.7-1.913-.26-.628-.566-1.232-.856-1.844-.306-.65-.594-1.304-.934-1.94-.314-.588-.674-1.146-1.014-1.718-.372-.624-.724-1.254-1.13-1.862-.422-.63-.892-1.224-1.346-1.83-.38-.508-.734-1.03-1.14-1.524-.886-1.08-1.818-2.117-2.804-3.103l-.022-.024-127.995-127.995c-16.66-16.66-43.676-16.66-60.338 0s-16.66 43.676 0 60.338l55.162 55.162H640.01c-23.562 0-42.663 19.1-42.663 42.664s19.1 42.664 42.664 42.664h238.317l-55.162 55.162c-16.66 16.66-16.66 43.676 0 60.338s43.676 16.66 60.338 0l127.995-127.995.022-.023c.988-.988 1.92-2.024 2.806-3.104zM725.342 597.32c-23.563 0-42.664 19.102-42.664 42.665V853.31h-170.66V170.672c0-18.84-12.358-35.453-30.404-40.866L333.4 85.342h349.28v213.325c0 23.563 19.1 42.664 42.664 42.664s42.664-19.1 42.664-42.663V42.677c0-23.563-19.1-42.664-42.664-42.664H42.692C41.43.01 40.18.07 38.94.18 19.37 1.654 6.61 14.527 1.976 29.897c-.298.956-.558 1.932-.79 2.92-.024.106-.044.214-.068.322-.23 1.016-.422 2.048-.58 3.094l-.068.442c-.134.954-.24 1.92-.31 2.898C.036 41.15-.002 42.73.038 44.31v851.683c0 20.337 14.355 37.848 34.3 41.836l426.648 85.33c26.4 5.28 51.032-14.913 51.032-41.836v-42.682h213.325c23.563 0 42.664-19.1 42.664-42.664v-255.99c0-23.565-19.1-42.666-42.664-42.666zM426.688 929.28l-341.32-68.264v-760.98l341.32 102.397V929.28z"/></svg>