<svg viewBox="0 0 1024 1024.003" xmlns="http://www.w3.org/2000/svg"><path d="M1023.766 502.1C1018.478 224.336 790.874 0 511.864 0 371.166 0 235.19 58.768 138.818 161.24 41.284 264.96-7.604 400.63 1.134 543.192 16.542 803.83 254.302 1024 520.336 1024h4.842c74.088 0 134.378-60.265 134.378-134.353S599.278 755.293 525.19 755.293c-26.024 0-47.206-21.182-47.206-47.206 0-9.284 2.892-18.35 8.424-27.064 9.55-14.308 28.408-20.794 48.67-17.03 1.984.848 4.042 1.526 6.148 2.01 19.318 4.466 35.55 18.906 43.78 39.448 24.644 57.495 80.976 94.63 143.518 94.63 159.12 0 289.25-126.473 295.12-284.165.146-1.284.218-2.59.218-3.91v-7.262c.002-.888-.034-1.772-.096-2.644zM728.514 727.452c-33.444 0-63.582-19.862-76.424-49.796-16.134-40.354-49.626-70.47-90.162-81.326-2.07-.943-4.224-1.68-6.44-2.215-51.502-12.468-102.34 5.858-129.936 47.266-13.4 21.075-20.202 43.515-20.202 66.707 0 66.076 53.754 119.83 119.83 119.83 34.63 0 61.742 27.114 61.742 61.73 0 34.618-27.126 61.73-61.742 61.73h-4.842c-228.924 0-433.482-188.896-446.698-412.542-7.516-122.456 34.412-238.872 118.086-327.838 83.918-89.23 197.61-138.374 320.14-138.374 240.858 0 437.064 194.814 439.34 435.14-1.6 121.416-100.89 219.69-222.692 219.69zm-187.6-590.676c-48.052 0-87.148 39.096-87.148 87.148s39.096 87.148 87.148 87.148 87.148-39.096 87.148-87.148-39.096-87.148-87.148-87.148zm0 101.674c-8 0-14.524-6.523-14.524-14.523s6.524-14.524 14.524-14.524c8.012 0 14.524 6.524 14.524 14.524s-6.512 14.524-14.524 14.524zm-228.766-25.42c-54.734 0-99.252 44.53-99.252 99.253s44.53 99.252 99.252 99.252c54.734 0 99.254-44.518 99.254-99.252s-44.52-99.252-99.254-99.252zm0 125.883c-14.682 0-26.628-11.946-26.628-26.628s11.946-26.628 26.628-26.628c14.694 0 26.628 11.946 26.628 26.628s-11.946 26.628-26.628 26.628zM249.206 453.9c-62.07 0-112.568 50.5-112.568 112.57s50.498 112.567 112.568 112.567S361.774 628.54 361.774 566.47 311.276 453.9 249.206 453.9zm0 152.513c-22.03 0-39.944-17.914-39.944-39.944s17.914-39.945 39.944-39.945 39.944 17.914 39.944 39.944-17.926 39.943-39.944 39.943zm481.74-367.962c-40.718 0-73.834 33.13-73.834 73.835 0 40.718 33.128 73.834 73.834 73.834 40.73 0 73.846-33.117 73.846-73.835s-33.128-73.834-73.846-73.834zm-1.21 73.835c0-.666.544-1.21 1.21-1.21.678 0 1.222.544 1.21 1.21.012 1.32-2.408 1.356-2.42 0z"/></svg>