<svg viewBox="0 0 1024 1024.003" xmlns="http://www.w3.org/2000/svg"><path d="M987.63 141.26c-22.002-2.007-41.46 14.203-43.466 36.203l-5.3 58.138C848.946 94.39 692.858 0 512 0 317.438 0 145.976 111.046 60.86 277.71c-10.048 19.673-2.244 43.767 17.43 53.815 19.678 10.048 43.768 2.246 53.816-17.43C204.14 173.047 348.794 80 512 80c148.754 0 282.998 77.463 359.906 198.817l-57.034-40.734c-17.978-12.838-42.96-8.674-55.798 9.302-12.838 17.978-8.674 42.958 9.302 55.798l172.95 123.522c25.348 18.07 60.31 1.528 63.082-28.918l19.422-213.06c2.008-22.002-14.2-41.462-36.2-43.468zm-41.92 551.217c-19.676-10.046-43.768-2.244-53.816 17.43C819.86 850.955 675.206 944 512 944c-148.754 0-282.998-77.46-359.906-198.815l57.034 40.734c17.978 12.837 42.958 8.673 55.798-9.303 12.838-17.978 8.674-42.958-9.302-55.798L82.674 597.296c-25.038-17.888-60.282-1.842-63.082 28.918L.17 839.275c-2.006 22 14.204 41.46 36.202 43.466 22.028 2.003 41.462-14.223 43.466-36.203l5.3-58.138C175.054 929.612 331.142 1024 512 1024c194.562 0 366.024-111.043 451.14-277.707 10.048-19.674 2.244-43.768-17.43-53.816z"/></svg>