<svg viewBox="0 0 1024 1024.003" xmlns="http://www.w3.org/2000/svg"><path d="M1011.502 225.83L798.17 12.497C790.166 4.497 779.314 0 768 0H42.667C19.104 0 .002 19.104.002 42.668V981.33c0 23.565 19.102 42.667 42.666 42.667h213.25c.03 0 .055.004.083.004h512c.027 0 .053-.003.08-.003h213.252c23.564 0 42.666-19.102 42.666-42.666V256c0-11.316-4.494-22.168-12.496-30.17zM682.665 85.34V298.67h-341.33V85.34h341.33zm42.668 853.323H298.667v-298.66H725.33v298.66zm213.33 0h-128V597.336c0-23.564-19.1-42.666-42.665-42.666H256c-23.564 0-42.666 19.102-42.666 42.666v341.33h-128V85.333H256v256.003c0 23.564 19.1 42.666 42.665 42.666H725.33c23.563 0 42.665-19.102 42.665-42.666v-238.33L938.66 273.67v664.992zm-511.997-170.66H597.33c23.565 0 42.667-19.103 42.667-42.667s-19.102-42.666-42.666-42.666H426.667c-23.564 0-42.666 19.102-42.666 42.666s19.102 42.666 42.666 42.666zM384 896h256c23.563 0 42.665-19.1 42.665-42.665S663.563 810.67 640 810.67H384c-23.564 0-42.666 19.1-42.666 42.665S360.436 896 384 896zm213.334-639.996c23.564 0 42.666-19.102 42.666-42.666V170.67c0-23.564-19.102-42.666-42.666-42.666s-42.666 19.102-42.666 42.666v42.666c-.002 23.566 19.102 42.668 42.666 42.668zm-170.668 0c23.564 0 42.666-19.102 42.666-42.666V170.67c0-23.564-19.102-42.666-42.666-42.666S384 147.106 384 170.67v42.666c0 23.566 19.102 42.668 42.666 42.668z"/></svg>