<svg viewBox="0 0 1024 1024.003" xmlns="http://www.w3.org/2000/svg"><path d="M944.646 392.677H889.96c-5.942-18.904-13.194-36.964-21.674-54.05l39.536-39.536c14.676-14.665 59.32-59.307 3.476-115.165l-57.918-57.918c-6.8-6.8-27.778-27.118-56.296-27.14-26.804.302-46.74 17.932-58.868 30.616l-36.756 36.744c-22.322-11.978-45.582-21.998-69.572-29.956V83.404c0-20.63 0-83.402-78.77-83.402h-82.244c-52.996 0-78.77 27.28-78.77 83.403v49.984c-24.164 7.634-47.552 17.712-69.954 30.152l-36.362-36.363c-13.68-13.68-32.574-29.516-57.432-30.57-26.18-.962-45.582 14.932-57.744 27.094l-57.92 57.923c-55.834 55.846-11.19 100.488 3.486 115.166l39.86 39.86c-8.758 17.93-16.056 35.885-21.846 53.725H79.354c-53.008 0-78.77 27.28-78.77 83.402v72.978c0 56.124 25.762 83.402 78.77 83.402h55.068c7.726 25.068 18.094 49.324 30.998 72.502l-39.976 40.773C86.07 782.795 84.9 821.543 121.968 858.6l57.918 57.917c50.076 50.042 89.716 21.986 115.166-3.476l44.168-44.167c17.11 8.49 35.168 15.73 54.05 21.684V940.6c0 56.12 25.762 83.4 78.77 83.4h82.244c52.996 0 78.77-27.28 78.758-83.413v-50.042c18.894-5.954 36.94-13.194 54.05-21.684l45.328 45.33c39.35 39.36 78.098 40.53 115.166 3.475l57.918-57.918c11.954-11.966 27.824-30.802 27.558-56.216-.278-26.457-18.152-46.61-31.032-58.95l-42.164-42.175c12.464-22.402 22.542-45.79 30.152-69.954h54.628c52.996 0 78.77-27.267 78.77-83.39v-72.98c0-20.63 0-83.403-78.77-83.403zm9.266 156.404c0 6.777-.428 10.96-.846 13.45-1.818.23-4.53.44-8.422.44H863.56c-16.136 0-30.14 11.097-33.824 26.793-8.224 34.924-22.588 68.216-42.732 98.96-9.012 13.772-7.136 31.97 4.506 43.612l61.914 61.926c4.772 4.565 7.426 7.75 8.874 9.755-1.146 1.506-2.988 3.66-5.92 6.602l-57.918 57.918c-2.838 2.826-4.924 4.588-6.348 5.652-2.062-1.39-5.48-4.066-10.542-9.128l-63.71-63.71c-11.282-11.27-28.786-13.45-42.454-5.225-25.288 15.174-53.98 26.7-85.244 34.242-15.614 3.754-26.608 17.724-26.608 33.778v76.452c0 6.776-.428 10.97-.846 13.46-1.818.232-4.53.44-8.422.44h-82.244c-3.87 0-6.568-.198-8.376-.428-.428-2.49-.892-6.72-.892-13.473v-76.464c0-16.056-10.994-30.026-26.608-33.778-31.264-7.542-59.946-19.056-85.244-34.242-13.68-8.236-31.184-6.046-42.454 5.224l-62.552 62.552c-4.946 4.945-8.328 7.725-10.46 9.277-1.494-1.17-3.614-3-6.43-5.804l-57.918-57.918c-2.826-2.838-4.588-4.924-5.652-6.348 1.424-2.086 4.17-5.584 9.372-10.784l59.076-60.236c11.444-11.664 13.218-29.712 4.262-43.38-19.45-29.666-33.524-61.752-41.876-95.38-1.088-18.222-16.206-32.666-34.694-32.666H79.354c-3.868 0-6.568-.195-8.376-.427-.428-2.49-.892-6.718-.892-13.472v-72.977c0-6.776.428-10.97.846-13.484 1.818-.233 4.53-.44 8.422-.44h81.086c16.056 0 30.014-10.995 33.778-26.597 6.776-28.068 18.476-57.062 34.774-86.16 7.598-13.576 5.248-30.546-5.758-41.55l-57.918-57.918c-5.062-5.074-7.762-8.444-9.162-10.484 1.078-1.435 2.838-3.543 5.688-6.405l57.918-57.918c2.838-2.826 4.922-4.588 6.348-5.652 2.062 1.402 5.48 4.088 10.542 9.14l55.602 55.602c11.642 11.642 29.852 13.506 43.612 4.506 30.732-20.132 64.024-34.52 98.96-42.732 15.696-3.695 26.794-17.7 26.794-33.823V83.403c0-6.776.428-10.97.846-13.448 1.818-.244 4.53-.452 8.422-.452h82.244c3.916 0 6.638.22 8.456.452.406 2.49.81 6.684.81 13.448v78.78c0 15.766 10.622 29.55 25.854 33.592 35.458 9.382 69.306 23.99 100.616 43.428 13.692 8.49 31.496 6.464 42.894-4.958l56.146-56.158c4.668-4.866 7.842-7.426 9.742-8.722 1.436 1.02 3.602 2.804 6.602 5.792l57.918 57.918c2.85 2.862 4.61 4.97 5.688 6.418-1.402 2.028-4.088 5.398-9.162 10.472l-57.918 57.918c-11.27 11.282-13.426 28.786-5.224 42.454 15.164 25.264 26.688 53.958 34.242 85.256 3.764 15.604 17.724 26.596 33.778 26.596h81.086c3.904 0 6.626.22 8.444.463.406 2.49.81 6.684.81 13.448v72.98zM513.744 337.088c-96.458 0-174.914 78.456-174.914 174.914s78.468 174.915 174.914 174.915S688.67 608.447 688.67 512c-.002-96.445-78.47-174.913-174.926-174.913zm0 280.326c-58.128 0-105.412-47.296-105.412-105.412s47.284-105.41 105.412-105.41c58.138 0 105.424 47.283 105.424 105.41-.002 58.127-47.286 105.413-105.424 105.413z"/></svg>