<svg viewBox="0 0 1024 1024.003" xmlns="http://www.w3.org/2000/svg"><path d="M568.89 170.668L455.11 56.89H0v910.222h1024V170.668H568.89zM85.332 142.223H419.76l56.89 56.89H85.332v-56.89zm483.556 711.11c0 15.52-6.134 30.028-17.283 40.837-11.138 10.81-25.964 16.44-41.38 16.03-30.39-.92-55.113-28.02-55.113-60.437v-16.918c0-23.473 5.94-47.867 18.17-74.524 6.828-14.88 10.274-30.752 10.274-47.195 0-15.678 12.756-28.444 28.444-28.444s28.444 12.768 28.444 28.445c0 16.44 3.46 32.324 10.273 47.196 12.23 26.66 18.17 51.04 18.17 74.525v20.49zm369.777 28.446H622.08c2.356-9.183 3.698-18.694 3.698-28.445v-20.49c0-31.392-7.85-64.445-23.347-98.237-3.39-7.384-5.097-15.29-5.097-23.496 0-47.058-38.276-85.333-85.333-85.333s-85.333 38.275-85.333 85.332c0 8.204-1.707 16.11-5.098 23.496-15.497 33.79-23.348 66.833-23.348 98.236v16.918c0 11.07 1.616 21.8 4.47 32.018H85.333V256.002H512v56.89h56.89V256h369.777V881.78zM512 369.78h56.89v56.888H512v-56.89zm-56.89-56.89H512v56.89h-56.89v-56.89zm0 113.778H512v56.89h-56.89v-56.89zm56.89 56.89h56.89v56.888H512v-56.89zm-56.89 56.887H512v56.89h-56.89v-56.89zm56.89 256c-15.713 0-28.444 12.73-28.444 28.444v28.443c0 15.713 12.73 28.444 28.444 28.444s28.444-12.73 28.444-28.444V824.89c0-15.714-12.73-28.445-28.444-28.445z"/></svg>