<?xml version="1.0" encoding="utf-8"?>
<!-- Generator: Adobe Illustrator 23.0.2, SVG Export Plug-In . SVG Version: 6.00 Build 0)  -->
<svg version="1.1" id="Capa_1" xmlns="http://www.w3.org/2000/svg" xmlns:xlink="http://www.w3.org/1999/xlink" x="0px" y="0px"
	 viewBox="0 0 468.3 468.3" style="enable-background:new 0 0 468.3 468.3;" xml:space="preserve">
<style type="text/css">
	.st0{fill:#0A5A87;}
	.st1{fill:#EBF0F3;}
	.st2{fill:#0492F2;}
</style>
<path class="st0" d="M209.1,62.5L209.1,62.5c0-6.5-5.3-11.9-11.9-11.9H53.8c-6.5,0-11.9,5.3-11.9,11.9v4.6c0,5.3-4.3,9.6-9.6,9.6
	l0,0c-6.5,0-11.9,5.3-11.9,11.9v111.1h414.9v-123H223.3C215.4,76.7,209.1,70.4,209.1,62.5z"/>
<rect x="46.7" y="99.8" class="st1" width="377.6" height="194.5"/>
<path class="st2" d="M444.6,417.6H23.7C10.6,417.6,0,407,0,393.9v-252c0-13.1,10.6-23.7,23.7-23.7h254.6c9.7,0,18.5-6,22.1-15
	l11.5-29.3c3.6-9.1,12.3-15,22.1-15h110.6c13.1,0,23.7,10.6,23.7,23.7v311.3C468.3,407,457.7,417.6,444.6,417.6z"/>
</svg>
