<?xml version="1.0" encoding="iso-8859-1"?>
<!-- Generator: Adobe Illustrator 19.0.0, SVG Export Plug-In . SVG Version: 6.00 Build 0)  -->
<svg version="1.1" id="Capa_1" xmlns="http://www.w3.org/2000/svg" xmlns:xlink="http://www.w3.org/1999/xlink" x="0px" y="0px"
	 viewBox="0 0 512 512" style="enable-background:new 0 0 512 512;" xml:space="preserve">
<path style="fill:#5C5E70;" d="M512,256c0,67.49-26.122,128.899-68.817,174.634C396.466,480.695,329.885,512,256,512
	c-38.975,0-75.901-8.704-108.962-24.273c-29.633-13.96-56.153-33.437-78.221-57.104C26.122,384.888,0,323.5,0,256
	c0-50.918,14.858-98.367,40.49-138.23c2.79-4.347,5.705-8.589,8.746-12.748C95.807,41.357,171.071,0,256,0
	s160.193,41.357,206.764,105.023c3.041,4.148,5.945,8.401,8.735,12.737C497.131,157.633,512,205.082,512,256z"/>
<g>
	<path style="fill:#279FC9;" d="M472.649,105.023L471.5,117.76l-2.581,28.526l-25.736,284.348C396.466,480.695,329.885,512,256,512
		c-38.975,0-75.901-8.704-108.962-24.273c-29.633-13.96-56.153-33.437-78.221-57.104L40.49,117.77l-1.149-12.748H472.649z"/>
	<path style="fill:#279FC9;" d="M416.681,15.692H95.311c-24.647,0-44.628,19.981-44.628,44.628v32.169h410.624V60.32
		C461.309,35.673,441.328,15.692,416.681,15.692z"/>
</g>
<g>
	<path style="fill:#34ABE0;" d="M468.919,146.286l-25.736,284.348C396.466,480.695,329.885,512,256,512
		c-38.975,0-75.901-8.704-108.962-24.273l-26.081-288.256c-2.591-28.568,19.905-53.185,48.588-53.185H468.919z"/>
	<path style="fill:#34ABE0;" d="M491.585,124.452H20.409c-5.58,0-10.104-4.523-10.104-10.104V83.169
		c0-5.58,4.523-10.104,10.104-10.104h471.176c5.58,0,10.104,4.523,10.104,10.104v31.179
		C501.689,119.927,497.166,124.452,491.585,124.452z"/>
</g>
<path style="fill:#E8E8E8;" d="M248.599,346.205v51.663c-24.21,0-39.913-0.131-50.036-3.043
	c-5.836-1.678-10.778-5.587-13.864-10.818l0,0c0-0.002,0-0.004-0.002-0.007c-1.932-5.346-4.99-17.636-0.313-26.868
	c3.097-6.119,11.025-6.297,13.416-10.928h50.799V346.205z"/>
<path style="fill:#D6D6D6;" d="M206.106,283.513l25.774,51.546l-21.943-11.84c0,0-4.045,7.314-12.138,22.986
	c-2.392,4.63-5.137,9.991-8.234,16.11c-4.677,9.233-6.801,16.34-4.869,21.685L157.5,337.88c-2.698-4.579-2.886-10.219-0.492-14.965
	l11.253-22.336l-20.315-11.842L206.106,283.513z"/>
<path style="fill:#E8E8E8;" d="M296.225,304.338l44.74-25.831c12.105,20.967,19.843,34.631,22.383,44.854
	c1.465,5.893,0.551,12.127-2.437,17.414l0,0c-0.002,0.001-0.004,0.002-0.005,0.005c-3.663,4.346-12.778,13.14-23.112,13.706
	c-6.847,0.377-10.966-6.4-16.172-6.155L296.225,304.338z"/>
<path style="fill:#D6D6D6;" d="M263.178,372.483l31.753-48.095l0.718,24.923c0,0,8.357-0.155,25.975-0.982
	c5.206-0.243,11.221-0.548,18.068-0.925c10.334-0.566,17.551-2.28,21.215-6.626l-26.342,46.614
	c-2.616,4.626-7.407,7.609-12.714,7.909l-24.969,1.423l-0.098,23.514L263.178,372.483z"/>
<path style="fill:#E8E8E8;" d="M234.963,284.994l-44.74-25.831c12.105-20.967,20.07-34.5,27.653-41.812
	c4.372-4.215,10.227-6.541,16.299-6.597l0,0c0.002,0.001,0.004,0.002,0.007,0.001c5.595,1,17.768,4.496,23.426,13.163
	c3.75,5.742-0.06,12.697,2.754,17.083L234.963,284.994z"/>
<path style="fill:#D6D6D6;" d="M310.503,279.54l-57.528-3.452l21.225-13.083c0,0-4.312-7.161-13.838-22.003
	c-2.814-4.386-6.084-9.444-9.835-15.186c-5.657-8.666-10.75-14.06-16.345-15.059l53.54-0.494c5.314-0.047,10.293,2.61,13.206,7.056
	l13.716,20.913l20.413-11.673L310.503,279.54z"/>
<g>
</g>
<g>
</g>
<g>
</g>
<g>
</g>
<g>
</g>
<g>
</g>
<g>
</g>
<g>
</g>
<g>
</g>
<g>
</g>
<g>
</g>
<g>
</g>
<g>
</g>
<g>
</g>
<g>
</g>
</svg>
