<?xml version="1.0" encoding="utf-8"?>
<!-- Generator: Adobe Illustrator 21.0.2, SVG Export Plug-In . SVG Version: 6.00 Build 0)  -->
<svg version="1.1" id="Layer_3" xmlns="http://www.w3.org/2000/svg" xmlns:xlink="http://www.w3.org/1999/xlink" x="0px" y="0px"
	 viewBox="0 0 138.8 406.9" style="enable-background:new 0 0 138.8 406.9;" xml:space="preserve">
<style type="text/css">
	.st0{fill:#F8FAFD;}
	.st1{opacity:0.4;fill:#F8FAFD;}
	.st2{opacity:0.58;fill:#F8FAFD;}
</style>
<g>
	<path class="st0" d="M140.2,408.4c0,0-51.9-30.7-33.5-143.8S158.3,13,71.4-46.9l131.6,12L140.2,408.4z"/>
	<path class="st1" d="M160.9,368.2c0,0-52.4-34.3-59.4-145.2C94.6,112.1,105.2-24.1-22-94.8l252.5,23L160.9,368.2z"/>
	<path class="st2" d="M177.2,337.4c0,0-56.1-14.1-58-101.2C118,185,97,151.2,79.9,132.1c-21.4-24-38.5-51.7-49.6-82
		C21,24.7,14-2.3,18.5-17.6L247.9,3.2L177.2,337.4z"/>
</g>
</svg>
