<svg viewBox="0 0 1024 1024.003" xmlns="http://www.w3.org/2000/svg"><path d="M511.002 1C348.106 1 215.58 133.526 215.58 296.42c0 100.9 50.858 190.13 128.274 243.45-72.278 24.94-138.526 66.14-194.182 121.797C53.154 758.187 0 886.51 0 1023.003h79.844c0-237.742 193.416-431.158 431.158-431.158 162.896 0 295.422-132.528 295.422-295.424S673.898 1 511.002 1zm0 511c-118.87 0-215.578-96.707-215.578-215.577s96.708-215.58 215.578-215.58S726.58 177.55 726.58 296.423 629.872 512 511.002 512zm345.326 263.487V607.813h-79.844v167.674H608.81v79.844h167.674v167.673h79.844V855.33H1024v-79.843z"/></svg>