<svg viewBox="0 0 1024 1024.003" xmlns="http://www.w3.org/2000/svg"><path d="M981.334 938.667h-896v-896C85.334 19.103 66.23 0 42.666 0S0 19.104 0 42.668v938.666C0 1004.9 19.102 1024 42.666 1024h938.666c23.564 0 42.666-19.1 42.666-42.665s-19.1-42.668-42.664-42.668zm-768-85.332H896c23.564 0 42.666-19.102 42.666-42.666v-768C938.666 19.102 919.564 0 896 0H725.334c-23.564 0-42.666 19.103-42.666 42.667V256h-85.334v-42.665c0-23.564-19.102-42.666-42.666-42.666H384c-23.564 0-42.666 19.1-42.666 42.665V426.67h-128c-23.564 0-42.666 19.1-42.666 42.665V810.67c-.002 23.56 19.102 42.665 42.666 42.665zM768 85.335h85.334V768H768V85.336zm-85.334 256V768h-85.334V341.336h85.334zm-256-85.334H512v512h-85.334V256zM256 512h85.334v256H256V512z"/></svg>