<svg viewBox="0 0 1024 1024.003" xmlns="http://www.w3.org/2000/svg"><path d="M896.31 163.643h-61.986V37.193C834.324 16.65 817.676 0 797.134 0H209.51C143.894 0 90.498 53.396 90.498 119.014V904.99c0 65.617 53.394 119.01 119.012 119.01h686.8c20.542 0 37.192-16.65 37.192-37.19V200.832c0-20.542-16.65-37.19-37.192-37.19zm-686.8-89.26h550.432v89.26H209.51c-25.438 0-44.63-19.19-44.63-44.63.002-24.2 20.432-44.63 44.63-44.63zM859.118 949.62H209.51c-24.2 0-44.63-20.443-44.63-44.63V229.67c13.724 5.405 28.774 8.355 44.63 8.355h649.608V949.62zM472.33 202.072v307.324l-40.316-24.286c-11.802-7.115-26.592-7.115-38.394 0l-40.302 24.287V202.073h-74.382v373.152c0 13.414 7.228 25.786 18.906 32.394 11.678 6.595 26.01 6.395 37.488-.535l77.494-46.7 77.506 46.688c5.888 3.558 12.534 5.344 19.19 5.344 6.298 0 12.608-1.6 18.298-4.81 11.678-6.596 18.894-18.968 18.894-32.382V202.073H472.33z"/></svg>