<svg viewBox="0 0 1024 1024.003" xmlns="http://www.w3.org/2000/svg"><path d="M986.26 116.993H830.27v75.478h118.25v739.697H75.48V192.473h118.25v-75.48H37.74C16.894 116.993 0 133.89 0 154.733v815.174c0 20.844 16.894 37.74 37.74 37.74h948.52c20.858 0 37.74-16.894 37.74-37.74V154.733c0-20.844-16.894-37.74-37.74-37.74zm-670.736 2.53l393.758-2.482.476 75.48L316 195.003l-.476-75.48zM41.514 369.848h940.974v75.48H41.514v-75.48zm274.24-353.495H193.73c-20.844 0-37.74 16.894-37.74 37.74v201.278c0 20.844 16.894 37.74 37.74 37.74h122.024c20.844 0 37.74-16.894 37.74-37.74V54.095c0-20.846-16.894-37.74-37.74-37.74zm-37.74 201.278h-46.546v-125.8h46.546v125.8zM831.528 16.355H709.504c-20.844 0-37.74 16.894-37.74 37.74v201.278c0 20.844 16.894 37.74 37.74 37.74h122.024c20.844 0 37.74-16.894 37.74-37.74V54.095c0-20.846-16.894-37.74-37.74-37.74zm-37.74 201.278h-46.546v-125.8h46.546v125.8zm-33.122 290.934c-14.404-15.07-38.306-15.586-53.352-1.196l-260.15 248.743-129.886-129.9c-14.744-14.732-38.646-14.756-53.376 0-14.732 14.73-14.732 38.62 0 53.364l155.99 155.99c7.372 7.36 17.02 11.058 26.694 11.058 9.384 0 18.782-3.472 26.066-10.466l286.82-274.24c15.07-14.393 15.61-38.295 1.194-53.353z"/></svg>