<svg viewBox="0 0 1024 1024.003" xmlns="http://www.w3.org/2000/svg"><path d="M958.916 195.797H65.084C28.594 195.797 0 224.39 0 260.883V763.12c0 36.49 28.594 65.085 65.084 65.085h893.83c36.502 0 65.084-28.594 65.084-65.084V260.884c.002-36.492-28.592-65.086-65.082-65.086zm0 567.322H65.084l-.498-502.195s.152-.044.498-.044h893.83v502.24zM187.662 228.34v36.883c0 63.404-51.58 114.984-114.984 114.984H35.796v65.084h36.882c99.286 0 180.068-80.77 180.068-180.067V228.34h-65.084zm763.66 151.865c-63.404 0-114.994-51.58-114.994-114.984v-36.88h-65.084v36.883c0 99.286 80.792 180.068 180.078 180.068h36.882v-65.083h-36.882zm.01 199.604c-99.298 0-180.078 80.78-180.078 180.067v36.882h65.074v-36.883c0-63.404 51.59-114.984 114.994-114.984h36.882V579.81h-36.872zm-878.654 0H35.796v65.083h36.882c63.404 0 114.984 51.58 114.984 114.984v36.882h65.084v-36.883c0-99.298-80.782-180.068-180.068-180.068zM512 301.016c-116.632 0-211.526 94.894-211.526 211.526S395.368 724.07 512 724.07s211.526-94.895 211.526-211.527S628.632 301.017 512 301.017zm0 357.968c-80.748 0-146.44-65.692-146.44-146.44s65.692-146.44 146.44-146.44c80.76 0 146.44 65.704 146.44 146.44 0 80.746-65.692 146.44-146.44 146.44z"/></svg>