<svg viewBox="0 0 1024 1024.003" xmlns="http://www.w3.org/2000/svg"><path d="M486.914 512c.94-12.07-2.73-24.4-11.987-33.613L94.343 98.44c-16.806-16.762-44.02-16.762-60.827 0-16.808 16.765-16.808 43.94 0 60.745L386.93 512 33.515 864.814c-16.808 16.763-16.808 43.936 0 60.7 16.808 16.764 44.023 16.764 60.827 0L474.93 545.57c9.254-9.213 12.88-21.497 11.984-33.57zm504.12-33.613L524.413 12.573c-16.808-16.763-44.023-16.763-60.83 0-16.807 16.764-16.807 43.98 0 60.7L903.035 512 463.582 950.682c-16.808 16.764-16.808 43.936 0 60.744 16.808 16.764 44.023 16.764 60.83 0L990.99 545.615c9.257-9.213 12.882-21.542 11.943-33.614.984-12.07-2.685-24.4-11.898-33.613z"/></svg>