<svg viewBox="0 0 1024.0005 1024.003" xmlns="http://www.w3.org/2000/svg"><path d="M985.406 0H706.252c-21.316 0-38.592 17.277-38.592 38.595 0 21.316 17.276 38.592 38.592 38.592h240.562V317.75c0 21.315 17.276 38.59 38.592 38.59S1024 339.066 1024 317.75V38.594C1024 17.277 1006.724 0 985.406 0zm27.286 11.31c-15.076-15.08-39.494-15.08-54.57 0L407.528 561.9c-15.078 15.065-15.078 39.507 0 54.57 7.526 7.54 17.406 11.31 27.286 11.31 9.866 0 19.746-3.77 27.286-11.31l550.592-550.59c15.078-15.065 15.078-39.507 0-54.57zm-158.5 468.53c-21.316 0-38.594 17.277-38.594 38.593v428.382H77.186V208.403h428.382c21.316 0 38.592-17.276 38.592-38.592s-17.276-38.593-38.592-38.593H38.594C17.276 131.217 0 148.493 0 169.81v815.6c0 21.315 17.276 38.59 38.594 38.59h815.598c21.328 0 38.592-17.275 38.592-38.593V518.433c0-21.316-17.276-38.592-38.592-38.592z"/></svg>