<svg viewBox="0 0 1024.0014 1024.003" xmlns="http://www.w3.org/2000/svg"><path d="M1023.29 340.263c-.28-3.57-.595-6.308-.88-8.187-14.324-162.225-133.34-290.63-287.8-290.63-89.485 0-171.26 42.345-224.805 110.993C457.51 83.33 378.85 41.445 289.838 41.445c-153.934 0-272.676 127.535-287.965 291.552-.294 1.91-.59 4.24-.86 6.976-2.613 26.5-.44 61.61 9.66 104.39 21.455 90.895 71.63 173.682 142.397 237.833l329.54 289.738c16.05 14.113 40.07 14.165 56.182.124L870.75 682.794c78.24-81.427 124.74-154.678 143.18-239.084 9.252-42.388 11.405-77.27 9.36-103.447zm-92.696 85.254c-14.503 66.385-53.085 127.16-118.662 195.617l-301.02 262.098L209.88 618.565c-57.742-52.35-98.777-120.06-116.185-193.798-7.903-33.482-9.49-59.15-7.787-76.423.15-1.527.786-6.142.786-6.142 10.972-123.51 96.2-215.452 203.147-215.452 79.62 0 147.357 48.557 180.278 126.544 14.67 34.752 63.918 34.752 78.588 0 32.26-76.423 104.8-126.544 185.907-126.544 106.95 0 192.174 91.948 203.147 215.496.294 2.483.374 3.17.49 4.664 1.41 18.044-.228 44.574-7.653 78.606z"/></svg>