<svg viewBox="0 0 1024.0015 1024.003" xmlns="http://www.w3.org/2000/svg"><path d="M140.583 670.234c16.665 16.66 43.678 16.655 60.338-.01s16.656-43.678-.01-60.338l-97.9-97.868 147.995-147.996c89.332-89.332 216.15-125.73 337.51-100.16 23.057 4.858 45.686-9.896 50.544-32.953s-9.897-45.687-32.954-50.545c-149.294-31.455-305.497 13.375-415.44 123.32L12.495 481.852c-16.663 16.663-16.66 43.682.006 60.342l128.08 128.04zM1011.5 481.807L883.42 353.77c-16.666-16.66-43.68-16.655-60.34.01s-16.654 43.678.01 60.338l97.903 97.868-147.996 147.996c-89.332 89.334-216.15 125.73-337.51 100.16-23.057-4.858-45.686 9.896-50.544 32.953s9.896 45.686 32.953 50.544c149.294 31.454 305.497-13.376 415.44-123.32l178.17-178.17c16.663-16.664 16.66-43.683-.006-60.343zm-712.823 30.195c0 23.563 19.1 42.664 42.664 42.664s42.665-19.1 42.665-42.664c0-70.683 57.312-127.995 127.995-127.995 23.563 0 42.664-19.1 42.664-42.664S535.564 298.68 512 298.68C394.19 298.676 298.677 394.19 298.677 512zm341.32 0c0 70.683-57.312 127.995-127.995 127.995-23.563 0-42.664 19.1-42.664 42.664s19.1 42.665 42.664 42.665c117.81 0 213.325-95.514 213.325-213.325 0-23.563-19.1-42.664-42.664-42.664-23.565 0-42.666 19.103-42.666 42.666zm371.487-499.484c-16.66-16.66-43.676-16.66-60.338 0L12.518 951.146c-16.66 16.66-16.66 43.676 0 60.338s43.676 16.66 60.338 0l938.628-938.628c16.663-16.66 16.663-43.676 0-60.338z"/></svg>