<svg viewBox="0 0 1024 1024.003" xmlns="http://www.w3.org/2000/svg"><path d="M950.85 400.45L524.184 9.34c-13.902-12.72-35.282-12.41-48.794.7L72.426 401.15c-6.898 6.695-10.798 15.905-10.798 25.515v561.778c0 19.638 15.916 35.556 35.556 35.556H393.48c19.638 0 35.556-15.92 35.556-35.557v-260.74h165.926v260.74c0 19.638 15.916 35.556 35.556 35.556h296.296c19.638 0 35.556-15.907 35.556-35.557V426.667c0-9.968-4.172-19.472-11.52-26.216zm-59.592 552.44H666.074V692.15c0-19.64-15.918-35.557-35.556-35.557H393.482c-19.638 0-35.556 15.918-35.556 35.556v260.74H132.74V441.706L500.848 84.433 891.26 442.31v510.58z"/></svg>