<svg viewBox="0 0 1024 1024.003" xmlns="http://www.w3.org/2000/svg"><path d="M791.997 280.124c0 35.346-28.654 64-64 64s-64-28.654-64-64c0-35.346 28.654-64 64-64s64 28.654 64 64zm220.955 51.75c-21.36-54.388-60.528-132.86-125.83-197.853-65.07-64.767-142.71-102.815-196.387-123.33-58.928-22.523-125.89-8.327-170.59 36.163l-157.074 156.34c-46.56 46.34-59.98 117.65-33.395 177.438 8.244 18.545 17.21 36.683 26.79 54.207L11.715 779.584C4.216 787.086 0 797.26 0 807.87v176c0 22.09 17.908 40 40 40h176c22.09 0 40-17.91 40-40v-72l72-.003c22.09 0 40-17.908 40-40V799.87h72c22.09 0 40-17.91 40-40s-17.91-40-40-40H328c-22.093 0-40 17.907-40 40v71.997l-72 .002c-22.093 0-40 17.907-40 40v72H80V824.436L434.707 469.73c13.032-13.032 15.474-33.278 5.916-49.034-13.862-22.848-26.596-47.264-37.846-72.57-13.198-29.682-6.474-65.14 16.732-88.238L576.583 103.55c22.426-22.317 56.022-29.435 85.596-18.135 46.443 17.752 113.38 50.428 168.51 105.304 55.47 55.207 89.24 123.133 107.8 170.392 11.582 29.496 4.544 63.006-17.93 85.374L761.59 604.713c-23.15 23.038-57.703 29.774-88.033 17.16-25.014-10.404-49.24-22.764-72-36.734-18.826-11.557-43.458-5.66-55.014 13.167s-5.662 43.46 13.166 55.016c26.303 16.144 54.27 30.414 83.123 42.414 60.284 25.078 129.05 11.6 175.19-34.322l158.97-158.225c45.09-44.878 59.204-112.124 35.958-171.317z"/></svg>