<svg viewBox="0 0 1024 1024.003" xmlns="http://www.w3.org/2000/svg"><path d="M990.968 237.283H829.11v66.064h128.826V860.49H216.912V754.788h-66.064v138.736c0 18.244 14.788 33.032 33.032 33.032h807.088c18.244 0 33.032-14.788 33.032-33.032V270.315c0-18.244-14.788-33.032-33.032-33.032zM861.04 746.32V130.48c0-18.245-14.788-33.033-33.032-33.033H33.032C14.788 97.447 0 112.233 0 130.48v624.31c0 18.243 14.788 33.03 33.032 33.03H829.11c18.244 0 33.032-14.775 33.032-33.02 0-2.93-.386-5.78-1.102-8.48zm-66.064-24.565H66.064V163.51h728.912v558.245zM528.516 204.25c-54.03 0-97.996 43.967-97.996 97.997s43.966 97.996 97.996 97.996 97.996-43.966 97.996-97.996-43.966-97.996-97.996-97.996zm0 129.927c-17.606 0-31.932-14.324-31.932-31.932s14.324-31.932 31.932-31.932c17.618 0 31.932 14.324 31.932 31.932s-14.314 31.932-31.932 31.932zm48.15 282.976l-193.79-281.886c-6.156-8.962-16.34-14.314-27.218-14.314h-.044c-10.9.01-21.086 5.396-27.23 14.392L135.696 617.22c-6.914 10.117-7.664 23.23-1.948 34.067 5.714 10.834 16.956 17.618 29.212 17.618h386.478c12.276 0 23.53-6.794 29.256-17.662 5.702-10.856 4.932-23.982-2.028-34.09zM225.544 602.84l130.18-190.433L486.642 602.84H225.544zm521.436 12.375L618.154 454.447c-6.276-7.818-15.756-12.376-25.776-12.376h-.012c-10.03.013-19.522 4.57-25.788 12.4l-83.682 104.6 51.596 41.27 57.906-72.385 60.008 74.884H463.55v66.063h257.652c12.696 0 24.278-7.278 29.772-18.73 5.508-11.45 3.956-25.048-3.994-34.958z"/></svg>