<svg viewBox="0 0 1024 1024.003" xmlns="http://www.w3.org/2000/svg"><path d="M726.546 0h-429.09C133.438 0 0 133.44 0 297.458v429.088C0 890.563 133.438 1024 297.456 1024h429.088C890.562 1024 1024 890.564 1024 726.548v-429.09C1024 133.44 890.562 0 726.546 0zM944 726.546C944 846.45 846.45 944 726.546 944h-429.09C177.55 944 80 846.45 80 726.548v-429.09C80 177.55 177.55 80 297.456 80h429.088C846.45 80 944 177.55 944 297.458v429.088zM512 236c-152.188 0-276 123.813-276 276s123.812 276 276 276 276-123.81 276-276-123.812-276-276-276zm0 472c-108.074 0-196-87.925-196-196s87.926-196 196-196 196 87.927 196 196-87.926 196-196 196zm320-476c0 22.092-17.91 40-40 40s-40-17.908-40-40c0-22.09 17.91-40 40-40s40 17.91 40 40z"/></svg>