<svg viewBox="0 0 1024 1024.003" xmlns="http://www.w3.org/2000/svg"><path d="M264.718 303.25H92.093C72.74 303.25 57 318.992 57 338.344v650.57c0 19.343 15.74 35.085 35.093 35.085h172.625c19.344 0 35.086-15.743 35.086-35.087v-650.57c0-19.35-15.742-35.093-35.086-35.093zm-25 660.663H117.085V363.336h122.633zM178.406 0C110.906 0 56 54.908 56 122.4c0 67.5 54.906 122.405 122.406 122.405 67.484 0 122.398-54.906 122.398-122.406C300.804 54.906 245.898 0 178.406 0zm0 184.72c-34.367 0-62.32-27.954-62.32-62.32 0-34.36 27.953-62.313 62.32-62.313 34.36 0 62.312 27.953 62.312 62.312s-27.953 62.32-62.312 62.32zm679.686 194.804c-41.266-34.445-93.726-52.867-147.664-51.867-33.5.617-66.234 8.695-95.898 23.32v-14.203c0-18.508-15.008-33.516-33.516-33.516H405.25c-18.51 0-33.517 15.008-33.517 33.516v653.71c0 18.516 15.008 33.516 33.516 33.516h179.233c16.594 0 30.047-13.453 30.047-30.04V604.205c0-33.367 26.11-61.6 59.453-62.594 34.656-1.023 63.172 26.86 63.172 61.29v391.686c0 16.242 13.172 29.414 29.414 29.414h172.256c16.242 0 29.414-13.172 29.414-29.414V614.813c0-91.094-40.148-176.86-110.148-235.29zm50.063 584.39H797.25V602.897c0-66.937-54.462-121.398-121.407-121.398-66.937 0-121.398 54.46-121.398 121.398v361.015H431.82V363.336h122.625V407h.04c-.01 7.078 2.452 14.187 7.515 19.914 10.992 12.422 29.984 13.578 42.406 2.578 29.602-26.203 67.648-41.03 107.133-41.766 39.522-.75 77.882 12.734 108.053 37.922 56.29 46.984 88.562 115.93 88.562 189.164z"/></svg>