<svg viewBox="0 0 1024 1024.003" xmlns="http://www.w3.org/2000/svg"><path d="M843.99 33.627c-10.42-6.032-23.27-6.054-33.714-.056-82.348 47.273-320.692 169.94-433.31 169.94-18.646 0-33.758 15.11-33.758 33.757v349.96c0 18.646 15.112 33.758 33.758 33.758 144.238 0 430.058 168.026 432.928 169.714 5.288 3.127 11.242 4.703 17.182 4.703 5.772 0 11.534-1.486 16.722-4.444 10.532-6 17.036-17.195 17.036-29.315V62.85c.002-12.04-6.412-23.18-16.844-29.223zm-50.672 670.28c-85.228-46.338-258.756-133.536-382.594-148.3V268.685c119.762-15.406 296.442-102.94 382.594-148.796v584.017zM400.902 840.21c-12.93-20.187-49.816-107.935-49.816-241.74H283.57c0 145.283 39.542 245.477 61.08 279.08 3.634 5.287 4.322 11.05 2.014 15.91-1.002.687-2.318 1.475-3.928 2.275-1.136.574-2.24 1.192-3.298 1.89-8.744 5.682-41.636 24.554-98.71 29.504-.136-.485-.282-.957-.428-1.44L130.026 583.614 65.76 604.343l110.052 341.374c8.282 29.404 34.22 49.198 62.858 49.198 2.712 0 5.458-.18 8.214-.552 48.904-4.288 95.3-18.51 127.808-39.138 8.484-4.434 15.766-9.678 21.662-15.574 1.204-1.215 2.318-2.52 3.33-3.893 20.988-28.614 21.226-66.48 1.218-95.546zm-22.81-569.185V203.51H67.516C29.662 203.51 0 233.17 0 271.024V553.47c0 37.853 29.662 67.515 67.516 67.515h310.576V553.47H67.516V271.024h310.576zM881.09 246.27h-54.014v67.515h54.014c41.568 0 75.394 33.826 75.394 75.394s-33.826 75.393-75.394 75.393h-54.014v67.516h54.014c78.802 0 142.91-64.107 142.91-142.91s-64.106-142.91-142.91-142.91z"/></svg>