<svg viewBox="0 0 1024.002 1024.003" xmlns="http://www.w3.org/2000/svg"><path d="M840.664 154.27H33.538C15.014 154.27 0 169.286 0 187.81v503.055c0 18.524 15.014 33.538 33.538 33.538h807.126c18.524 0 33.538-15.014 33.538-33.538V187.81c-.002-18.525-15.014-33.54-33.538-33.54zm-33.538 503.06H67.074V221.344h740.052V657.33zM437.1 278.36c-88.762 0-160.978 72.215-160.978 160.977S348.338 600.315 437.1 600.315 598.078 528.1 598.078 439.337 525.862 278.36 437.1 278.36zm0 254.88c-51.782 0-93.904-42.12-93.904-93.903s42.122-93.904 93.904-93.904 93.904 42.134 93.904 93.904-42.122 93.904-93.904 93.904zM127.442 187.81c0 51.78-42.122 93.903-93.904 93.903v67.074c88.762 0 160.978-72.216 160.978-160.978h-67.074zm619.318 0h-67.074c0 88.76 72.216 160.977 160.978 160.977v-67.074c-51.77 0-93.904-42.122-93.904-93.904zM33.538 533.252v67.074c51.782 0 93.904 42.112 93.904 93.892h67.074c0-88.763-72.218-160.98-160.978-160.967zM679.686 694.22h67.074c0-51.783 42.122-93.905 93.904-93.893v-67.074c-88.762 0-160.978 72.216-160.978 160.966zM990.462 299.6h-149.8v67.073h116.262v435.982h-740.05v-111.79H149.8v145.328c0 18.524 15.014 33.538 33.538 33.538h807.126c18.524 0 33.538-15.013 33.538-33.537V333.137c-.002-18.524-15.016-33.538-33.54-33.538zm-93.904 33.537h-67.074c0 88.758 72.21 160.972 160.968 160.978V427.04c-51.77 0-93.894-42.123-93.894-93.903zm93.904 160.978h-.01zM183.336 678.58v67.073c51.782 0 93.904 42.112 93.904 93.892h67.074c0-88.76-72.216-160.976-160.978-160.966zm646.148 160.967h67.074c0-51.782 42.122-93.904 93.904-93.904V678.57c-88.76 0-160.978 72.215-160.978 160.977z"/></svg>