<svg viewBox="0 0 1024.0008 1024.003" xmlns="http://www.w3.org/2000/svg"><path d="M1021.588 227.63c-5.224-13.353-18.1-22.13-32.426-22.13H744.194v69.66H900.23l-95.374 88.235H572.368v69.66h246.128c8.766 0 17.218-3.308 23.65-9.264l170.664-157.893c10.518-9.732 14.002-24.928 8.778-38.268zM423.76 275.16V205.5H205.496c-8.766 0-17.218 3.308-23.65 9.264L11.18 372.66c-10.517 9.73-14 24.926-8.777 38.266 5.224 13.352 18.088 22.128 32.426 22.128h233.357v-69.66H123.773l95.364-88.234H423.76zM261.224 498.082H34.83C15.594 498.082 0 513.674 0 532.91s15.593 34.83 34.83 34.83h226.393c19.238 0 34.83-15.592 34.83-34.83s-15.592-34.828-34.83-34.828zm755.29-121.428c-11.923-15.116-33.807-17.694-48.923-5.77L806.41 498.082H575.85c-19.238 0-34.83 15.592-34.83 34.83s15.592 34.83 34.83 34.83h242.646c7.836 0 15.43-2.648 21.582-7.488l170.664-134.686c15.106-11.914 17.684-33.81 5.772-48.914zm-755.29 257.25H34.83c-19.237 0-34.83 15.592-34.83 34.83s15.593 34.83 34.83 34.83h226.393c19.238 0 34.83-15.592 34.83-34.83s-15.592-34.83-34.83-34.83zm756.185-108.598c-11.238-15.604-32.984-19.134-48.622-7.884l-161.54 116.482H578.172c-19.238 0-34.83 15.592-34.83 34.83s15.592 34.83 34.83 34.83h240.324c7.314 0 14.442-2.298 20.364-6.572l170.664-123.064c15.604-11.25 19.122-33.018 7.884-48.622zm.906 147.596c-10.518-16.102-32.112-20.654-48.204-10.112L808.13 768.578H34.83C15.592 768.578 0 784.17 0 803.408s15.592 34.83 34.83 34.83h783.666c6.768 0 13.374-1.962 19.04-5.666L1008.2 721.106c16.104-10.518 20.632-32.09 10.114-48.204zM788.218 207.845c-5.236-13.328-18.1-22.082-32.414-22.082h-304.18c-8.8 0-17.275 3.332-23.717 9.334L244.47 365.76c-7.08 6.583-11.11 15.825-11.11 25.497v400.54h69.66V406.432l162.307-151.01h201.906L548.64 365.76c-7.07 6.583-11.1 15.825-11.1 25.497v400.54h69.66V406.432l172.337-160.343c10.468-9.74 13.916-24.914 8.68-38.242z"/></svg>