<svg viewBox="0 0 1024 1024.003" xmlns="http://www.w3.org/2000/svg"><path d="M512 0C229.018 0 0 228.996 0 512c0 282.983 228.994 512 512 512 282.98 0 512-228.993 512-512C1024 229.02 795.006 0 512 0zm0 955.735C267.326 955.735 68.266 756.677 68.266 512S267.326 68.268 512 68.268 955.734 267.327 955.734 512 756.674 955.736 512 955.736zm227.556-477.868H284.444c-18.85 0-34.134 15.282-34.134 34.134s15.282 34.135 34.134 34.135h455.112c18.85 0 34.134-15.282 34.134-34.134s-15.284-34.133-34.134-34.133z"/></svg>