<svg viewBox="0 0 1024.0019 1024.003" xmlns="http://www.w3.org/2000/svg"><path d="M804.238 561.48v164.173L512.022 894.38 220.91 725.678V561.483h-69.03V745.57c0 12.312 6.557 23.702 17.21 29.868l325.607 188.69c5.35 3.093 11.322 4.647 17.304 4.647 5.96 0 11.92-1.53 17.26-4.626l326.755-188.69c10.688-6.168 17.258-17.57 17.258-29.892V561.48H804.24zm17.582-222.228L495.95 522.855l-164.47 86.407-232.32-141.08 106.242-70.023-37.99-57.644-151.873 100.1C5.644 447.13-.214 458.267.016 470.107s6.512 22.735 16.648 28.867l148.316 89.685L312.25 678.4c5.5 3.36 11.725 5.04 17.96 5.04 5.513 0 11.023-1.323 16.063-3.957l182.672-95.99L855.7 399.404l-33.88-60.15zm186.767 101.433L857.865 340.588l-38.197 57.505 105.367 69.977-232.503 141.192-163.538-85.89-325.606-184.086-33.976 60.093L495.95 583.983l181.776 95.495c5.04 2.645 10.55 3.957 16.062 3.957 6.236 0 12.46-1.692 17.984-5.04l147.154-89.673 148.42-89.743c10.124-6.12 16.406-16.993 16.648-28.81.254-11.813-5.568-22.95-15.406-29.487zm-1.196-200.953L711.7 60.246c-10.32-6.26-23.14-6.684-33.805-1.128L496.11 153.463c-.403.196-.795.414-1.175.632L169.33 339.332l34.137 60L528.485 214.43l163.976-85.107L925.115 270.54l-105.46 70.034 38.198 57.505 150.722-100.098c9.838-6.536 15.648-17.65 15.406-29.454-.23-11.804-6.488-22.666-16.59-28.798zm-478.374-85.66c-.38-.207-.748-.413-1.128-.61L346.102 59.12c-10.688-5.568-23.506-5.132-33.804 1.128L16.608 239.732C6.482 245.876.224 256.76.006 268.6s5.638 22.954 15.522 29.466L167.4 398.163l37.99-57.643L99.07 270.45l232.467-141.123 164 85.117L821.74 399.37l34.033-60.058-326.758-185.237zm-51.532 399.355h69.033v380.83h-69.033v-380.83z"/></svg>