<svg viewBox="0 0 1024 1024.003" xmlns="http://www.w3.org/2000/svg"><path d="M980.633 372.936c-16.708-16.618-43.723-16.544-60.34.162L407.382 888.78c-66.543 66.544-174.62 66.544-241.287-.09-66.618-66.652-66.618-174.728.008-241.354l528.09-530.864c41.545-41.543 109.09-41.543 150.754.09 41.653 41.653 41.653 109.19-.01 150.854l-437.474 437.47c-.028.028-.052.06-.08.088-16.666 16.574-43.6 16.552-60.233-.08-16.66-16.66-16.66-43.663 0-60.323l211.166-211.208c16.66-16.664 16.658-43.68-.006-60.34s-43.68-16.66-60.34.005L286.805 584.232c-49.983 49.983-49.983 131.017.004 181.002 49.985 49.985 131.02 49.985 181.006 0 .058-.058.104-.12.16-.178l437.302-437.302c74.99-74.99 74.99-196.557 0-271.546-75-74.946-196.56-74.946-271.504 0l-528.09 530.868c-99.87 99.87-99.87 261.964.072 361.956 100.008 99.956 262.104 99.956 362.052.008l512.99-515.762c16.616-16.708 16.542-43.723-.164-60.34z"/></svg>