<svg viewBox="0 0 1024 1024.003" xmlns="http://www.w3.org/2000/svg"><path d="M815.466 527.833L673.9 221.105l-64.26 29.67 133.662 289.598-231.296 380.142-231.308-380.118L414.36 250.8l-64.26-29.67-141.566 306.727c-4.944 10.7-4.224 23.146 1.9 33.222l271.336 445.935c6.418 10.546 17.884 16.988 30.236 16.988s23.806-6.442 30.224-17.012l271.336-445.935c6.124-10.064 6.844-22.522 1.9-33.222zm-338.852 90.344h70.784V995.69h-70.784V618.176zM759.748 0H264.264c-19.548 0-35.392 15.845-35.392 35.393v200.552c0 19.548 15.844 35.392 35.392 35.392h495.484c19.548 0 35.392-15.844 35.392-35.392V35.393C795.14 15.845 779.296 0 759.748 0zm-35.392 200.553h-424.7V70.785h424.7v129.768zm-212.35 212.352c-65.05 0-117.972 52.922-117.972 117.972S446.956 648.85 512.006 648.85s117.972-52.923 117.972-117.973-52.922-117.972-117.972-117.972zm0 165.16c-26.024 0-47.188-21.164-47.188-47.188s21.164-47.188 47.188-47.188 47.188 21.163 47.188 47.187-21.164 47.188-47.188 47.188z"/></svg>