<svg viewBox="0 0 1024 1024.003" xmlns="http://www.w3.org/2000/svg"><path d="M446.836 301.383c-139.24 0-252.51 113.28-252.51 252.51 0 139.24 113.28 252.51 252.51 252.51s252.51-113.28 252.51-252.51c0-139.242-113.268-252.51-252.51-252.51zm0 435.2c-100.736 0-182.69-81.954-182.69-182.69S346.1 371.2 446.836 371.2s182.69 81.955 182.69 182.69c.002 100.737-81.954 182.693-182.69 182.693zM861.09 384H756.362c-19.282 0-34.91 15.63-34.91 34.91s15.628 34.91 34.91 34.91H861.09c19.282 0 34.91-15.627 34.91-34.91S880.372 384 861.09 384zm104.728-186.18H683.032l-59.648-99.41c-6.306-10.52-17.664-16.955-29.928-16.955H314.182c-12.264 0-23.622 6.434-29.94 16.954l-59.648 99.41H58.182C26.1 197.82 0 223.92 0 256v628.365c0 32.082 26.1 58.182 58.182 58.182h907.636c32.082 0 58.182-26.1 58.182-58.182V256c0-32.08-26.1-58.18-58.182-58.18zm-11.636 674.91H69.818V267.636h174.546c12.264 0 23.622-6.434 29.94-16.954l59.648-99.41h239.744l59.648 99.41c6.308 10.52 17.664 16.954 29.928 16.954h290.91V872.73z"/></svg>