<svg viewBox="0 0 1024 1024.003" xmlns="http://www.w3.org/2000/svg"><path d="M954 0H70C31.402 0 0 31.404 0 70v40c0 35.893 27.156 65.545 62 69.53V748c0 38.6 31.402 70 70 70h222.666L174.548 971.146c-12.624 10.732-14.156 29.666-3.422 42.288 10.732 12.624 29.666 14.154 42.288 3.422L447.292 818h121.68l241.984 199.165c5.586 4.598 12.336 6.838 19.048 6.838 8.658 0 17.248-3.73 23.18-10.936 10.53-12.792 8.694-31.7-4.098-42.228L663.388 818H892c38.598 0 70-31.4 70-70V179.53c34.844-3.983 62-33.637 62-69.53V70c0-38.597-31.4-70-70-70zm-62 758H132c-5.514 0-10-4.485-10-10V180h780v568c0 5.515-4.486 10-10 10zm72-648c0 5.515-4.486 10-10 10H70c-5.514 0-10-4.485-10-10V70c0-5.513 4.486-10 10-10h884c5.514 0 10 4.487 10 10zM778.116 576.638H722v-196.6c0-16.568-13.432-30-30-30H572c-16.568 0-30 13.432-30 30v196.6h-60v-290c0-16.568-13.432-30-30-30H332c-16.568 0-30 13.432-30 30v290h-56.116c-16.568 0-30 13.432-30 30s13.432 30 30 30h532.23c16.568 0 30-13.432 30-30s-13.43-30-29.998-30zm-416.116 0v-260h60v260zm240 0v-166.6h60v166.6z"/></svg>