<svg viewBox="0 0 1024 1024.003" xmlns="http://www.w3.org/2000/svg"><path d="M256 349.66c-92.96 0-168.586 75.625-168.586 168.585S163.04 686.83 256 686.83s168.586-75.625 168.586-168.585S348.96 349.66 256 349.66zm0 262.243c-51.65 0-93.658-42.01-93.658-93.658s42.01-93.658 93.658-93.658 93.658 42.01 93.658 93.658S307.65 611.903 256 611.903zM768 0c-92.96 0-168.586 75.627-168.586 168.587S675.04 337.173 768 337.173s168.586-75.626 168.586-168.586C936.586 75.627 860.96 0 768 0zm0 262.245c-51.65 0-93.658-42.008-93.658-93.658S716.352 74.93 768 74.93s93.658 42.007 93.658 93.657c0 51.648-42.008 93.658-93.658 93.658zm0 424.586c-92.96 0-168.586 75.627-168.586 168.587S675.04 1024 768 1024s168.586-75.625 168.586-168.585S860.96 686.83 768 686.83zm0 262.245c-51.65 0-93.658-42.008-93.658-93.658S716.352 761.76 768 761.76s93.658 42.007 93.658 93.657c0 51.648-42.008 93.658-93.658 93.658zM340.575 420.66L655.27 217.124l40.692 62.917-314.694 203.538-40.693-62.917zm-.098 198.97l40.79-62.847 305.96 198.575-40.79 62.848-305.96-198.575z"/></svg>