<svg viewBox="0 0 1024 1024.003" xmlns="http://www.w3.org/2000/svg"><path d="M360.427 790.08c-64.496 0-116.96 52.465-116.96 116.96S295.933 1024 360.427 1024c64.496 0 116.96-52.477 116.96-116.96s-52.464-116.96-116.96-116.96zm0 162.325c-25.004 0-45.352-20.336-45.352-45.352s20.348-45.352 45.352-45.352c25.016 0 45.352 20.337 45.352 45.353s-20.337 45.352-45.353 45.352zm424.89-162.324c-64.51 0-116.973 52.467-116.973 116.96 0 64.497 52.466 116.96 116.972 116.96 64.484 0 116.96-52.465 116.96-116.96S849.8 790.08 785.316 790.08zm0 162.313c-25.017 0-45.365-20.348-45.365-45.352s20.348-45.34 45.364-45.34c25.004 0 45.352 20.325 45.352 45.34s-20.336 45.353-45.352 45.353zm-476.21-198.105H866.46c19.788 0 35.804-16.028 35.804-35.804s-16.028-35.804-35.804-35.804H339.553L237.045 53.92c-2.458-15.06-14.178-26.9-29.204-29.513L70.59.537c-19.537-3.39-38.023 9.656-41.413 29.132-3.402 19.49 9.656 38.023 29.132 41.413l112.15 19.502 103.305 633.65c2.832 17.343 17.786 30.053 35.342 30.053zm679.375-522.35c-6.744-9.25-17.484-14.715-28.93-14.715h-728.02v71.608H910.44l-73.65 229.147H282.85v71.608h580.042c15.538 0 29.324-10.05 34.086-24.848L993.65 263.98c3.496-10.894 1.574-22.804-5.168-32.042z"/></svg>