<svg viewBox="0 0 1024.0005 1024.003" xmlns="http://www.w3.org/2000/svg"><path d="M874.032 149.97c-199.958-199.96-524.15-199.96-724.066.003C-49.99 349.93-49.99 674.12 149.974 874.035c199.908 199.956 524.1 199.956 724.058-.004 199.958-199.91 199.958-524.1 0-724.06zm-60.336 663.72c-166.636 166.635-436.792 166.635-603.382.007C43.678 647.1 43.678 376.943 210.31 210.31c166.594-166.633 436.75-166.633 603.382 0s166.632 436.79.004 603.38zm-75.874-502.517L469.326 579.67 328.83 439.172c-16.662-16.662-43.678-16.662-60.34 0s-16.662 43.678 0 60.34L439.156 670.18c16.662 16.66 43.678 16.66 60.34 0l298.666-298.667c16.662-16.662 16.662-43.678 0-60.34s-43.678-16.662-60.34 0z"/></svg>