<svg viewBox="0 0 1024 1024.003" xmlns="http://www.w3.org/2000/svg"><path d="M979.078 689.37L868.04 610.054c-42.858-30.608-100.992-25.796-138.232 11.44l-65.066 65.066c-83.384-59.087-268.172-243.85-327.31-327.303l65.066-65.064c37.244-37.244 42.054-95.378 11.442-138.232L334.628 44.926c-38.5-53.896-116.27-60.408-163.18-13.504L69 133.87c-92.068 92.065-91.994 216.66.206 341.843 146.224 198.53 280.546 332.85 479.08 479.074 115.79 85.282 243.094 98.96 341.846.208l102.45-102.448c46.836-46.838 40.468-124.628-13.504-163.178zm-43.054 106.61l-102.45 102.45c-71.046 71.047-157.248 51.313-237.85-8.05-191.502-141.045-321.066-270.607-462.11-462.103-59.342-80.572-79.118-166.782-8.052-237.846L228.014 87.98c11.972-11.97 31.73-10.275 41.524 3.44l79.314 111.035c7.79 10.906 6.564 25.698-2.912 35.174l-86.588 86.583c-10.908 10.91-14.57 27.118-9.412 41.658 27.582 77.723 330.546 380.633 408.192 408.185 14.538 5.164 30.748 1.498 41.656-9.412l86.586-86.584c9.478-9.475 24.274-10.7 35.176-2.913l111.038 79.312c13.744 9.815 15.372 29.585 3.436 41.52z"/></svg>