<svg viewBox="0 0 1024 1024.003" xmlns="http://www.w3.org/2000/svg"><path d="M789.416 292.14c-6.764-11.223-18.898-18.075-32.004-18.075H628.39l56.892-227.622c2.802-11.162.286-22.996-6.802-32.066C671.406 5.307 660.544 0 649.032 0H360.02c-18.114 0-33.61 12.98-36.786 30.81l-93.43 523.21c-1.944 10.89 1.034 22.075 8.134 30.56 7.1 8.47 17.59 13.38 28.652 13.38h118.706l-21.488 386.6c-.972 17.54 10.402 33.387 27.332 38.083 3.314.922 6.678 1.358 9.99 1.358 13.59 0 26.46-7.437 33.05-19.92l356.282-675.203c6.104-11.574 5.718-25.512-1.046-36.736zM447.92 817.844l14.188-255.19c.572-10.264-3.102-20.294-10.166-27.756-7.05-7.45-16.868-11.686-27.144-11.686H311.224l80.088-448.467h209.846l-56.894 227.622c-2.802 11.162-.286 22.996 6.802 32.066 7.076 9.07 17.938 14.377 29.45 14.377h114.92L447.92 817.843z"/></svg>