<svg viewBox="0 0 1024 1024.003" xmlns="http://www.w3.org/2000/svg"><path d="M1012.286 336.115l-324.398-324.4c-15.622-15.618-40.95-15.618-56.57 0-15.62 15.622-15.62 40.95 0 56.57l12.266 12.266-273.406 273.405-199.682 46.08c-14.168 3.272-25.448 13.972-29.456 27.95s-.116 29.03 10.166 39.312l174.46 174.46L11.716 955.72c-15.62 15.62-15.62 40.947 0 56.567s40.948 15.62 56.57-.002l313.95-313.96 174.47 174.47c10.294 10.294 25.346 14.17 39.312 10.164 13.976-4.01 24.678-15.287 27.95-29.457l46.08-199.682L943.45 380.418l12.266 12.266c15.624 15.622 40.948 15.618 56.57 0 15.618-15.618 15.618-40.946 0-56.568zM562.242 765.193L258.808 461.76l118.934-27.45L589.69 646.26l-27.448 118.933zm71.41-188.11L446.92 390.35l253.23-253.23 186.73 186.73-253.228 253.233z"/></svg>