<svg viewBox="0 0 1024 1024.003" xmlns="http://www.w3.org/2000/svg"><path d="M874.04 661.96c-55.766-55.763-122.142-97.045-194.562-122.035C757.042 486.503 808 397.097 808 296 808 132.788 675.214 0 512 0S216 132.788 216 296c0 101.097 50.958 190.503 128.524 243.925-72.42 24.99-138.796 66.272-194.562 122.036C53.258 758.668 0 887.24 0 1024h80c0-238.205 193.794-432 432-432s432 193.795 432 432h80c0-136.76-53.258-265.333-149.96-362.04zM512 512c-119.102 0-216-96.895-216-216S392.898 80 512 80s216 96.897 216 216-96.898 216-216 216z"/></svg>