<svg viewBox="0 0 1024.0002 1024.003" xmlns="http://www.w3.org/2000/svg"><path d="M878.555 145.446C784.758 51.65 660.078 0 527.422 0h-.047c-65.61.01-129.547 12.712-190.023 37.767-60.484 25.055-114.672 61.28-161.07 107.68C82.492 239.237 30.844 363.94 30.844 496.58c0 79.102 19.086 157.71 55.25 227.75L2.624 962.783c-5.882 16.82-1.718 35.102 10.892 47.703 8.82 8.828 20.43 13.516 32.367 13.516 5.117 0 10.29-.86 15.336-2.625l238.452-83.46c70.04 36.163 148.648 55.25 227.75 55.25 132.64 0 257.336-51.657 351.133-145.446C972.345 753.933 1024 629.23 1024 496.59c0-132.648-51.648-257.352-145.445-351.14zm-42.47 659.805c-82.444 82.454-192.07 127.853-308.663 127.853-71.328 0-142.188-17.64-204.922-51.03-11.375-6.048-24.82-7.087-36.89-2.86l-216.642 75.82 75.828-216.64c4.227-12.087 3.18-25.532-2.867-36.9-33.384-62.718-51.032-133.577-51.032-204.913 0-116.594 45.406-226.22 127.852-308.664 82.438-82.438 192.047-127.844 308.633-127.86h.04c116.6 0 226.218 45.407 308.663 127.86 82.453 82.445 127.86 192.063 127.86 308.664s-45.407 226.227-127.86 308.672zM711.97 540.94c-22.845-22.845-60.017-22.845-82.86 0l-24.984 24.983c-62.04-33.805-112.242-84.008-146.055-146.047l24.985-24.984c22.852-22.844 22.852-60.016 0-82.86l-67.328-67.327c-22.844-22.844-60.016-22.844-82.86 0l-53.858 53.86c-30.853 30.85-32.392 83.89-4.337 149.35 24.36 56.837 68.938 119.306 125.523 175.892S519.25 724.97 576.086 749.33c31.103 13.328 59.392 19.977 83.837 19.977 27.008 0 49.32-8.117 65.516-24.313l53.858-53.86c11.07-11.07 17.164-25.78 17.164-41.43 0-15.655-6.094-30.366-17.164-41.43zm-29 161.584c-8.806 8.805-35.884 11.89-83.22-8.39-49.984-21.423-105.773-61.485-157.086-112.798s-91.367-107.094-112.79-157.078c-20.288-47.336-17.202-74.422-8.397-83.227l52.828-52.827 65.25 65.258-31.273 31.282c-14.14 14.14-17.555 35.586-8.484 53.367 41.117 80.624 105.47 144.976 186.094 186.093 17.79 9.07 39.234 5.664 53.375-8.484l31.273-31.274 65.258 65.258z"/></svg>