<svg viewBox="0 0 1024 1024.003" xmlns="http://www.w3.org/2000/svg"><path d="M610.19 9.447l-1.864-.358c-7.556-1.44-15.168-2.715-22.836-3.817-1.45-.208-2.902-.412-4.354-.61-2.036-.274-4.07-.548-6.114-.8-2.992-.368-5.99-.712-8.994-1.028-1.722-.18-3.45-.34-5.178-.502-2.244-.214-4.49-.414-6.74-.598-1.556-.126-3.112-.252-4.672-.366-3.49-.255-6.982-.483-10.484-.665-.928-.048-1.86-.078-2.788-.122-2.974-.138-5.954-.252-8.936-.34-1.274-.038-2.548-.072-3.824-.1-3.452-.076-6.908-.124-10.37-.132-.348.003-.69-.01-1.036-.01-.472 0-.94.017-1.41.02-3.38.01-6.756.053-10.128.127-1.498.034-2.994.082-4.488.128-2.446.076-4.89.168-7.33.278-1.604.072-3.21.142-4.81.228-2.626.145-5.248.317-7.868.5-2.53.175-5.054.373-7.572.587-2.156.182-4.314.364-6.464.574-2.098.205-4.188.43-6.276.66-1.564.173-3.128.35-4.69.537-2.29.272-4.576.55-6.858.852-.966.127-1.93.27-2.896.405-8.638 1.194-17.204 2.604-25.698 4.224-.442.083-.882.167-1.322.253C178.216 55.03 0 262.69 0 512c0 282.765 229.236 512 512 512s512-229.235 512-512c0-249.175-178.024-456.75-413.81-502.553zM544.702 266.17c2.41 8.257 7.26 15.593 13.914 21.045 32.064 26.276 59.136 57.982 79.912 93.618 4.222 7.242 10.482 13.08 18.002 16.784l7.868 3.878c-5.364 21.736 7.426 45.106 30.068 51.286 5.648 6.717 11.332 15.067 18.27 26.563 2.4 3.978 10.668 18.046 11.684 19.752 17.876 30.016 31.666 47.588 52.394 60.122-.196 5.964-1.888 14.816-5.144 25.858-2.044 6.93-4.59 14.426-7.886 23.37-.38 1.032-4.786 12.62-8.372 22.244-18.756 15.347-32.29 31.775-51.53 59.267-12.296 17.57-14.152 20.166-19.58 27.086-8.252 10.522-16.354 19.208-25.736 27.282-12.266 10.538-23.52 19.192-34.502 26.424 32.202-70.84 35.322-123.923-10.256-161.653-38.808-32.146-52.206-75.938-37.096-113.05 12.456-30.374 1.168-62.168-23.124-80.932-.138-.958-.29-2.048-.456-3.284-1.454-10.82-1.866-13.6-3.09-19.533-2.976-14.434-7.668-27.012-15.646-38.72-2.32-3.406-5.122-6.458-8.318-9.06-2.278-1.864-2.278-1.864-5.184-4.262-2.95-2.434-2.95-2.434-5.612-4.612-2.514-2.046-5.252-3.8-8.164-5.228-10.012-4.906-20.266-8.556-31.258-11.348-9.932-2.522-17.56-3.842-33.256-6.12-19.964-2.898-27.818-4.514-37.126-8.08-26.214-10.056-53.188-45.898-82.716-107.906-4.714-9.897-15.302-33.667-24.458-54.23 31.988-18.575 66.172-32.87 101.838-42.547l1.002-.272c6.114-1.643 12.274-3.145 18.47-4.515.912-.202 1.826-.402 2.74-.596 2.434-.523 4.874-1.02 7.32-1.5 1.698-.33 3.396-.665 5.102-.977 1.618-.296 3.24-.572 4.862-.85 1.414-.242 2.828-.476 4.246-.704 1.508-.243 3.016-.49 4.53-.715 2.552-.382 5.112-.738 7.678-1.074 1.36-.177 2.722-.34 4.084-.507 1.866-.226 3.738-.44 5.612-.642 1.184-.127 2.366-.263 3.552-.38 2.774-.277 5.558-.52 8.346-.743 1.166-.094 2.334-.176 3.502-.26 2.308-.164 4.62-.312 6.938-.44.828-.046 1.654-.102 2.482-.144 2.964-.146 5.938-.254 8.918-.338 1.03-.03 2.062-.054 3.092-.076 2.792-.06 5.588-.1 8.39-.107.338 0 .674-.008 1.012-.008.766 0 1.528.02 2.292.026 2.6.015 5.198.04 7.788.1 1.466.033 2.928.093 4.392.143 1.932.064 3.866.13 5.792.22 1.612.076 3.22.17 4.828.264 1.76.102 3.518.21 5.272.334 1.686.12 3.37.25 5.054.387 1.646.136 3.288.284 4.928.438 1.756.166 3.514.332 5.266.518 1.502.16 3 .338 4.498.514 1.866.218 3.734.432 5.594.674 1.146.15 2.284.32 3.426.48 7.7 1.07 15.352 2.34 22.948 3.823.63.122 1.264.238 1.894.364 2.42.484 4.832.998 7.24 1.524.732.16 1.464.315 2.194.48 2.436.543 4.864 1.113 7.286 1.7.636.153 1.272.307 1.908.465 2.54.628 5.072 1.276 7.598 1.95.4.106.798.216 1.196.324 11.648 3.145 23.142 6.777 34.456 10.9-38.374 22.61-68.772 51.45-101.47 94-13.272 17.203-17.848 40.14-11.698 61.21zM512 938.666c-235.636 0-426.666-191.03-426.666-426.666 0-126.41 54.996-239.96 142.344-318.09 7.134 15.977 14.18 31.64 18.036 39.743 38.514 80.874 75.784 130.398 129.208 150.894 17.066 6.542 29.366 9.07 55.416 12.852 12.808 1.86 18.386 2.823 24.516 4.38 3.834.975 7.288 2.083 10.522 3.397.382 1.262.736 2.666 1.086 4.362.656 3.185.942 5.1 2.092 13.66 3.712 27.635 7.912 42.42 24.268 54.22-21.742 69.87 4.37 145.897 66.558 197.41 1.912 1.58 3.034 8.853-1.184 26.143-5.044 20.676-16.606 46.564-33.722 77.2-30.122 53.916 22.842 116.986 81.14 96.416 38.846-13.743 71.448-33.66 108.582-65.557 13.908-11.97 25.752-24.666 37.252-39.328 6.802-8.672 8.96-11.692 22.344-30.816 17.406-24.87 26.976-35.987 41.98-47.043 7.238-5.428 12.818-12.6 15.978-21.448 1.85-5.415 11.064-29.63 12.106-32.453 3.894-10.572 7.014-19.75 9.664-28.744 16.436-55.76 13.87-98.824-30.68-121.962-6.136-3.183-13.13-11.7-25.106-31.81-.784-1.315-9.228-15.685-11.938-20.177-7.7-12.76-14.662-23.206-22.086-32.586 10.144-20.698 1.922-46.42-19.5-56.976l-38.762-19.1c-19.406-31.06-42.716-59.533-69.334-84.747 34.056-40.96 64.56-61.98 117.482-81.528C865.368 237.247 938.666 366.057 938.666 512c0 235.637-191.03 426.667-426.666 426.667z"/></svg>