<svg viewBox="0 0 1024.008 1024.003" xmlns="http://www.w3.org/2000/svg"><path d="M669.618 465.985L443.39 342.205c-13.007-7.118-28.382-6.853-41.132.702-12.758 7.563-20.367 20.922-20.367 35.75v245.438c0 14.758 7.564 28.094 20.235 35.664 6.617 3.952 13.953 5.937 21.305 5.937 6.734 0 13.484-1.664 19.695-5.008L669.36 539.04c13.43-7.226 21.812-21.187 21.874-36.444.055-15.258-8.227-29.28-21.617-36.61zM441.898 593.22V409.782l169.08 92.516zm574.572-286.164l-.047-.47c-.867-8.24-9.5-81.554-45.14-118.843-41.196-43.86-87.9-49.188-110.36-51.742-1.86-.21-3.563-.405-5.086-.608l-1.79-.188c-135.374-9.844-339.82-11.187-341.866-11.195L512 124l-.18.01c-2.046.007-206.49 1.35-343.085 11.194l-1.805.188c-1.453.195-3.055.375-4.797.578-22.203 2.563-68.406 7.898-109.72 53.344C18.47 226.204 8.657 297.947 7.65 306.01l-.117 1.046C7.227 310.486 0 392.134 0 474.103v76.625c0 81.97 7.227 163.617 7.53 167.055l.056.516c.867 8.108 9.492 80.077 44.97 117.382 38.733 42.39 87.71 48 114.054 51.016 4.164.477 7.75.883 10.195 1.313l2.367.33c78.164 7.437 323.234 11.1 333.625 11.25l.313.007.313-.008c2.047-.01 206.484-1.353 341.86-11.196l1.788-.188c1.712-.227 3.634-.43 5.743-.648 22.078-2.344 68.03-7.21 108.773-52.04 33.945-36.897 43.766-108.64 44.766-116.694l.117-1.047c.304-3.438 7.538-85.078 7.538-167.047v-76.625c-.008-81.97-7.234-163.61-7.54-167.047zm-52.477 243.672c0 75.867-6.625 154-7.25 161.172-2.547 19.758-12.898 65.148-29.438 83.125-25.5 28.055-51.695 30.836-70.82 32.86-2.313.24-4.453.476-6.39.718-130.94 9.47-327.665 10.922-336.728 10.977-10.164-.148-251.648-3.844-327.43-10.883-3.883-.633-8.078-1.117-12.5-1.617-22.43-2.57-53.133-6.086-76.742-32.055l-.555-.594c-16.25-16.93-26.305-59.374-28.86-82.296-.476-5.422-7.272-84.477-7.272-161.406v-76.625c0-75.78 6.61-153.828 7.25-161.148 3.04-23.273 13.586-65.914 29.438-83.148 26.28-28.906 53.992-32.11 72.32-34.227 1.75-.203 3.383-.39 4.89-.586 132.845-9.516 330.985-10.93 338.095-10.984 7.11.047 205.18 1.47 336.845 10.984 1.617.203 3.383.406 5.28.625 18.853 2.147 47.345 5.397 73.493 33.288l.242.258c16.25 16.93 26.305 60.117 28.86 83.5.452 5.117 7.272 84.344 7.272 161.438z"/></svg>