<?xml version="1.0" encoding="utf-8"?>
<!-- Generator: Adobe Illustrator 21.0.2, SVG Export Plug-In . SVG Version: 6.00 Build 0)  -->
<svg version="1.1" id="Layer_1" xmlns="http://www.w3.org/2000/svg" xmlns:xlink="http://www.w3.org/1999/xlink" x="0px" y="0px"
	 viewBox="0 0 291 256.5" style="enable-background:new 0 0 291 256.5;" xml:space="preserve">
<style type="text/css">
	.st0{fill:#030303;}
</style>
<path class="st0" d="M83,88.4L69.7,89l2.6-9.4c0,0,1.6,0.2,4.6,0C75.9,80.8,83,88.4,83,88.4z"/>
<path class="st0" d="M123,121.8c3.3-0.7,12.8-4.5,12.8-4.5s-2.6,13.1-3.4,15.9C125.7,134.5,121.8,127.6,123,121.8z"/>
<path class="st0" d="M76.8,63.6C95.3,19.6,139.3,15,151,15c3.7,3.5,5.4,4.8,5.4,4.8l-13.8,12.1c0,0,2-6.3,3.2-13.5
	c-21,5-29.6,16.9-21.2,27.2c-1.4,1.8-14.7,7.6-14.7,7.6s4.1-14.2,4.5-18.3c-24.7,7.7-25.4,17-21.3,25.4C87.2,62,78,66,76.8,63.6z"/>
<path class="st0" d="M169.7,239.3C133.8,243,88,224.9,65.5,177.4c33.4-8.2,40.6-45.6,42.7-49.8c-0.1,5.3,10.9,20.1,20,19.5
	c-28.6,61.5,11.9,74.9,14.6,75.7c-0.8-0.7,2.4-5.8,3.9-5.7C147.2,223.4,153.8,229.8,169.7,239.3z"/>
<path class="st0" d="M228,160.5c0,0-8.9-0.5-14.3,2.6c-5.3,3.1-7.7,9.6-16.7,26.8c-2.9,3.2-7.8,1.7-8.2,0.8
	c1.7-6.5,9.5-37.6,28.7-38.1C228,151,228,160.5,228,160.5z"/>
<path class="st0" d="M42,151.9c-3,3.5-4.8,6.6-5.4,8.8c1.7,1.1,3.4,2.3,5,3.5c0.7,0.5,1.5,1,2.4,1.7c0.1,0,0.2,0,0.4-0.1
	c0,0.1,0.1,0.3,0.1,0.4c1.2,0.8,2.4,1.7,3.6,2.7c9.1-18.6,38.5-27.5,38.5-27.5s5.7-10.3,5.9-13.7C68.4,129.4,50.5,142,42,151.9z"/>
<path class="st0" d="M230.9,31.7L230.9,31.7c-1.9-5.8-7.3-12.6-22.5-14.3c-1.6,0-3.2,0.2-4.9,0.5c-7.7,1.6-15.5,6.3-17.5,8.9
	c-1.5-3-8.5-10.3-8.5-10.3l-12.8,14.8l14.5-1.3c0,0-6.5,15.2-12.1,18.6c-3.4,3-11,2.3-13.5,1.5c-2.6-0.8-6.5-4.8-6.5-4.8l-18.9,14.5
	l20.7,6.1c0,0-13.5,12.7-22,12c-10.8,0.6-13.3-11.7-13.3-11.7l-15.7,8.3l13.8,2l-10.3,8.4l14.8-3.5l6.7,12.8c0,0-26.6,7.5-48.5,10.1
	c-7.9,0.9-20.1,6-27.4,9.8c-1.5,0.8-3.3,2-5.3,3.5c-7.6,5.5-17.3,14.4-17.3,14.4l-9.5,13.1l-0.8,0.9c3.4,1.8,6.4,4.7,9.8,6.8l0,0
	c0,0,7.4-10.6,16.7-19.4c4.3-4.1,9-7.7,13.7-9.8c20.5-10.6,53.8-11.8,71.9-17.9c6.2-2.4,20.5-11.5,27.3-18.7
	c6.8-7.3,36.7-41.7,42.9-45.8c6.3-4.2,11.5-7.3,17.9-7.3c9.7-0.9,17.3,6.5,17.3,6.5S232.4,36.4,230.9,31.7z"/>
<path class="st0" d="M146.1,208.5c0,0,2.6-11.6,3.3-11.8s13.1,6.4,13.1,6.4s-3.4,10,0.4,14.2c4.5,4.1,44.2,26.3,44.2,26.3
	s4.6-12.8-3.2-23.2c2.8-2.1,9-6.3,11.9-8.3c6,9.2,7.4,18.6,6.8,26.8c0.2,0.1,0.3,0.3,0.4,0.4c4-2.3,7.8-4.8,11.5-7.5
	c-0.4-9.7-3.6-19.9-12.1-28.8c-2-2.3-9.3-7.9-10.9-8.1c-1,2.8-16.7,21.7-40.4,1.9c-0.5-1.9,13-30.4,12.9-33.5
	c-21.6-15.1-21.6-55.2-21.2-65.5c-3.8,3.4-8.5,7.8-8.5,7.8s-11.2,41.8-17.1,57.4C122.4,202.5,146.1,208.5,146.1,208.5z"/>
<path class="st0" d="M228.6,136.8c-3.8-0.2-10.3-4.4-10.3-4.4s-3.6,4.8-6.9,5.4c-3.3,0.6-6.1-5.4-7.3-5.4c-3.2-1.1-2.2,9.9-2.2,9.9
	s-9,8.4-10.2,8.4c-5.4-0.8-10.2-18.2-10.2-18.2s7.8-2.3,8.8-3s-1.1-3.5-12.8-16.5c-1.5-2.2-0.4-17.1,0.7-20.4
	c1.1-3.3,14.1-17.6,14.1-17.6l-3.9-4.6c0,0,17.6-22.7,28.2-22.7c4.5,0,5.7,7.9,6.3,9.6c1.8,6.4,0.7,17.6,0.7,17.6s-0.2,3.9,0,5.5
	c0.2,1.5,2.1,4.2,2.1,4.2s1.7,1.9,1.7,2.9c-0.3,3.4-5.7,2.5-7.3,1.8s-5-4.5-6.3-5.2s-3.1-2.5-5.9-2.9c-2.9-0.4-17.7,0.4-18.7,2
	c-1,1.5,0,10.3,0,10.3s8.2-2,9.9-1.9c1.8,0,6,1.9,6.4,4.2c0.8,0.8-11.6,7.4-11.6,7.4l4.5,7.8l4.2-2.5l6.1,6c0,0,5.4-2.5,5.9-12.6
	c1.4,0.4,4.2,2.2,7.6,1.8c0.5,0.3,6.2,11,6.9,11.7c-0.4,8.6,6,15.7,6,15.7S234.5,135.6,228.6,136.8z"/>
<path class="st0" d="M241.5,204.8c-8.2-17.8-23.4-18.7-22.8-26c0.4-1.4,1-2.6,2.3-3.1c3.4-0.4,8.5-0.4,8.7-0.8c0.3-0.5,0-5.5,0-5.5
	s9.2,3.4,10.8,2.5c4.2-8.9-1.3-24.8-1.3-24.8s10.6-7.8,11-11.6c3.2-4.3-7-19.4-7-19.4s0.2-3.8-0.8-6.3s-5.5-7.2-5.5-7.2
	s14.3-10.1,1-25.3c0.5-4.9-0.1-20.4-0.1-20.4s30.8,29.2,31.5,68.4C271.5,176.8,242.8,205.2,241.5,204.8z"/>
</svg>
