<?xml version="1.0" encoding="utf-8"?>
<!-- Generator: Adobe Illustrator 21.0.2, SVG Export Plug-In . SVG Version: 6.00 Build 0)  -->
<svg version="1.1" id="Layer_1" xmlns="http://www.w3.org/2000/svg" xmlns:xlink="http://www.w3.org/1999/xlink" x="0px" y="0px"
	 viewBox="0 0 343 89" style="enable-background:new 0 0 343 89;" xml:space="preserve">
<style type="text/css">
	.st0{fill:#010101;}
</style>
<g>
	<path class="st0" d="M38.6,23.8c-7,0-12.5,2.4-16.9,7c-4.3,4.8-6.6,10.8-6.6,18.1c0,7.5,2.3,13.5,6.8,18.2c4.5,4.7,10.3,7,17.5,7
		c5.2,0,9.8-1.4,13.8-4.2c0.4-0.2,0.8-0.4,1.2-0.4c0.6,0,1.1,0.2,1.6,0.8c0.2,0.4,0.4,0.7,0.4,1.1c0,0.7-0.2,1.1-0.7,1.6
		c-4.2,3.3-10.6,5.3-16.6,5.3c-8.6,0-15.5-2.7-20.8-8S10.4,57.9,10.4,49c0-8.4,2.5-15.4,7.7-21.1c5.2-5.6,12-8.4,20.4-8.4
		c6.5,0,11.8,1.4,15.8,4.3c0.6,0.4,0.9,1,0.9,1.7c0,0.2-0.1,0.7-0.3,1.1c-0.4,0.7-1,1-1.7,1c-0.2,0-0.6-0.1-1-0.3
		C48.5,25,44,23.8,38.6,23.8z"/>
	<path class="st0" d="M83.9,53.6H72.8v22.3c0,1.2-1,2.2-2.3,2.2c-1.2,0-2.2-1-2.2-2.2V22.7c0-1.3,1.1-2.4,2.4-2.4
		c5.2-0.1,9-0.2,11.4-0.2c13.4,0,20.1,5.5,20.1,16.6c0,4-1.3,7.5-3.9,10.3c-2.5,2.9-5.8,4.8-9.8,5.7l17.7,22
		c0.3,0.4,0.5,0.8,0.5,1.3c0,1.1-0.9,2.1-2.2,2.1c-0.7,0-1.4-0.3-2-1.1L83.9,53.6z M72.8,49.3h9.9c3.9,0,7.2-1.2,10.2-3.6
		c2.9-2.4,4.4-5.3,4.4-9c0-8.2-5.2-12.3-15.6-12.3c-2.4,0-5.4,0.1-9,0.2V49.3z"/>
	<path class="st0" d="M219.9,69.8V22.2c0-1.2,0.9-2,2.2-2c1.2,0,2,0.8,2,2v53.8c0,1.4-0.7,2.1-2,2.1c-0.9,0-1.7-0.5-2.5-1.5
		l-38.4-48.4V76c0,1.2-0.9,2-2.2,2c-1.1,0-2-1-2-2V22.2c0-1.2,0.9-2,2.1-2c0.9,0,1.7,0.5,2.5,1.6L219.9,69.8z"/>
	<path class="st0" d="M282,22.3c0-1.2,1-2.1,2.3-2.1c1.2,0,2.2,0.9,2.2,2.1v31.4c0,8.3-2,14.4-6.1,18.5c-4.1,4.1-9.3,6.1-15.6,6.1
		c-7,0-12.5-2.2-16.8-6.6c-4.3-4.3-6.5-10.6-6.5-18.7V22.3c0-1.2,1-2.1,2.4-2.1c1.1,0,2.1,1.1,2.1,2.1v30c0,13.8,7.3,21.8,18.8,21.8
		c10.5,0,17.2-7.2,17.2-21.4V22.3z"/>
	<path class="st0" d="M299.7,68.9c0.4-0.4,1-0.7,1.6-0.7c0.4,0,0.9,0.2,1.3,0.5c4.7,3.6,9.1,5.4,13.4,5.4c3.8,0,7-1,9.7-2.9
		c2.6-1.9,3.9-4.5,3.9-7.9c0-16.1-29.7-10.4-29.7-29.5c0-8.3,6.4-14.3,16.8-14.3c5.1,0,9.8,1.4,13.9,4.2c0.6,0.4,0.8,0.9,0.8,1.6
		c0,0.4-0.2,0.8-0.4,1.2c-0.4,0.6-1,0.9-1.7,0.9c-0.4,0-0.8-0.1-1.2-0.3c-3.7-2.2-7.4-3.4-11.2-3.4c-7.5,0-12.2,3.9-12.2,10.1
		c0,16,29.7,9.5,29.7,29.4c0,4.5-1.7,8.1-5.2,10.9s-7.9,4.2-13,4.2c-5.7,0-11.9-2.7-16.4-6.6c-0.4-0.3-0.6-0.8-0.6-1.4
		C299.1,69.8,299.3,69.3,299.7,68.9z"/>
</g>
<path d="M134.6,47c0,0-0.6,3.1-0.8,3.8c-1.6,0.3-2.5-1.3-2.2-2.7C132.4,47.9,134.6,47,134.6,47z M170.1,50.8c0,9.7-4.7,18.2-12,23.5
	c-0.7,0.5-1.7,1.1-2.9,1.8c-0.1,0.1-0.2,0.1-0.3,0.2c-0.2,0.1-0.4,0.2-0.6,0.3c-0.4,0.2-0.8,0.4-1.3,0.6c-0.2,0.1-0.4,0.2-0.6,0.3
	c-0.2,0.1-0.4,0.2-0.7,0.3c-0.2,0.1-0.4,0.2-0.7,0.3c-0.2,0.1-0.4,0.2-0.7,0.2c-0.2,0.1-0.5,0.1-0.7,0.2c-0.2,0.1-0.3,0.1-0.5,0.2
	c-0.5,0.1-1,0.3-1.6,0.4c0,0,0,0,0,0c-0.1,0-0.2,0-0.3,0.1c-0.1,0-0.2,0-0.3,0.1c0,0-0.1,0-0.1,0c-0.2,0-0.4,0.1-0.7,0.1
	c0,0-0.1,0-0.1,0c-0.2,0-0.4,0.1-0.6,0.1c-0.1,0-0.2,0-0.3,0c-0.4,0.1-0.8,0.1-1.2,0.2c-0.2,0-0.4,0-0.5,0c-0.1,0-0.2,0-0.4,0
	c-0.1,0-0.2,0-0.4,0c-0.3,0-0.5,0-0.8,0c-0.1,0-0.3,0-0.4,0c-0.2,0-0.4,0-0.5,0c-0.2,0-0.4,0-0.6,0c-0.1,0-0.2,0-0.3,0
	c-0.1,0-0.2,0-0.3,0c-0.2,0-0.4,0-0.6,0c-0.4,0-0.9-0.1-1.3-0.1c-0.4,0-0.7-0.1-1.1-0.1c-0.5-0.1-1-0.2-1.5-0.3
	c-0.1,0-0.3-0.1-0.4-0.1c-0.1,0-0.3-0.1-0.4-0.1c-0.2-0.1-0.5-0.1-0.7-0.2c-0.2-0.1-0.5-0.1-0.7-0.2c-0.5-0.1-1-0.3-1.5-0.5
	c-0.2-0.1-0.4-0.1-0.6-0.2c-0.2-0.1-0.4-0.2-0.7-0.2c-0.4-0.1-0.7-0.3-1.1-0.5c-0.1-0.1-0.3-0.1-0.4-0.2c-0.3-0.1-0.6-0.3-0.9-0.4
	c-0.1-0.1-0.3-0.1-0.4-0.2c-0.3-0.2-0.7-0.4-1-0.6c-0.2-0.1-0.4-0.2-0.6-0.4c-0.8-0.5-1.6-1-2.3-1.6c-0.3-0.2-0.6-0.4-0.8-0.6
	c0,0-0.1-0.1-0.1-0.1c-0.1-0.1-0.2-0.1-0.3-0.2c-0.1-0.1-0.3-0.2-0.4-0.3c0,0,0,0,0,0c-0.2-0.2-0.3-0.3-0.5-0.5
	c-0.1-0.1-0.3-0.2-0.4-0.4c0,0-0.1-0.1-0.1-0.1c0,0,0,0,0,0c-0.2-0.2-0.3-0.3-0.5-0.5c-0.2-0.2-0.4-0.4-0.6-0.6
	c-0.1-0.1-0.2-0.3-0.4-0.4c-0.2-0.2-0.3-0.4-0.5-0.5c0,0,0,0,0,0c-0.2-0.2-0.4-0.4-0.6-0.7c0,0,0,0,0,0c-0.1-0.1-0.2-0.2-0.3-0.4
	c-0.1-0.1-0.2-0.2-0.2-0.3c0,0,0,0,0-0.1c-0.2-0.2-0.3-0.5-0.5-0.7c-0.1-0.1-0.1-0.2-0.2-0.2c0,0-0.1-0.1-0.1-0.1
	c-0.1-0.1-0.2-0.2-0.2-0.4c-0.4-0.7-0.9-1.3-1.2-2c-0.1-0.2-0.2-0.5-0.4-0.7c0,0,0,0,0,0c-0.1-0.2-0.2-0.5-0.4-0.7
	c-0.2-0.5-0.5-1-0.7-1.4c-0.1-0.2-0.2-0.5-0.3-0.7c-0.2-0.4-0.3-0.8-0.5-1.3c-0.5-1.6-0.9-3.2-1.2-4.9c0.8-1,2-2,3.6-3
	c0.1-0.1,0.3-0.2,0.5-0.3c2.1-1.2,4.8-2.3,8-2.5c-0.1,0.8-1.4,3.2-1.4,3.2s-3.3,1-6.1,3.1c0.4,1.9,1,3.6,1.7,5.3
	c7.4-2.3,9-10.7,9.5-11.6c0,1.3,2.6,4.8,4.8,4.6c-6.8,14.6,2.8,17.8,3.5,18c-0.2-0.2,0.6-1.4,0.9-1.4c0.1,1.4,1.5,2.8,4.7,4.8
	c1.9-0.1,3.8-0.4,5.6-0.8c-2.7-1.5-5.8-3.4-6.4-3.9c-0.9-1-0.1-3.4-0.1-3.4s-2.9-1.5-3.1-1.5c-0.2,0-0.8,2.8-0.8,2.8
	s-5.6-1.4-2.1-10.8c1.4-3.7,4.1-13.6,4.1-13.6s1.1-1,2-1.8c-0.1,2.5-0.1,12,5,15.6c0,0.7-3.2,7.5-3.1,8c5.6,4.7,9.4,0.2,9.6-0.5
	c0.4,0.1,2.1,1.4,2.6,1.9c0.7,0.8,1.3,1.5,1.7,2.4c0.9-0.8,1.8-1.6,2.6-2.5c-2-3.7-5.3-4-5.1-5.6c0.1-0.3,0.3-0.6,0.6-0.7
	c0.8-0.1,2-0.1,2.1-0.2c0.1-0.1,0-1.3,0-1.3s2.2,0.8,2.6,0.6c1-2.1-0.3-5.9-0.3-5.9s2.5-1.9,2.6-2.8c0.8-1-1.7-4.6-1.7-4.6
	s0-0.9-0.2-1.5c-0.2-0.6-1.3-1.7-1.3-1.7s3.4-2.4,0.2-6c0.1-0.8,0.1-2.6,0-3.8c0-0.4,0.2-2.6-1.6-5c0,0,0,0,0,0
	c-0.1-0.1-0.7-0.6-1.6-1c0,0,0,0,0,0c-0.5-0.2-0.9-0.4-1.4-0.4c0,0,0,0,0,0c-0.1,0-0.1,0-0.2,0c0,0,0,0,0,0c-0.3,0-0.5,0-0.8,0h0
	c-0.7,0-1.4,0.2-2,0.4c-0.2,0.1-0.4,0.2-0.6,0.3c-0.5,0.3-1.1,0.6-1.6,1c-1.5,1-8.6,9.2-10.2,10.9c-1.6,1.7-5,3.9-6.5,4.5
	c-3.9,1.3-10.9,1.7-15.8,3.7c-0.2,0.1-0.3,0.1-0.5,0.2c-0.3,0.1-0.5,0.2-0.8,0.4c-1.1,0.5-2.2,1.4-3.2,2.3v-0.1
	c0-1.2,0.2-3.2,0.2-3.6c0.1-0.9,0.5-3.2,0.9-4.5c0.6-2,1.3-3.8,2.3-5.5l1.2-2.1c0.2-0.3,0.3-0.5,0.5-0.8c1.6-6.4,7.8-12.2,16.2-14.4
	c1.8-0.5,3.7-0.8,5.5-0.8l2.9-3l0.3,3c0.3,0,0.7,0.1,1,0.1l0.7-1.2c0,0-0.3-1.9,0-3c0.3-1,2.1-2.4,2.1-2.4l2.2-1.8l1.2-1.2
	c0,0,1.1,6.1-0.1,7.8c-0.1,0.2-1.6,1.2-2.4,1.9c-0.2,0.2-0.3,0.4-0.3,0.6c0.6,0.2,1.2,0.4,1.7,0.6l0.3,0.1c0,0,4.9-2.1,9.3,1.4
	c2.7,2,3,6.3,3.1,7.7v0c0.1,0.1,0.2,0.2,0.3,0.3c0.1,0.1,0.2,0.2,0.3,0.3c0.1,0.1,0.3,0.3,0.4,0.4c0.1,0.1,0.3,0.3,0.4,0.4
	c0.1,0.1,0.2,0.2,0.3,0.4c0.1,0.1,0.2,0.3,0.4,0.4c0.1,0.1,0.2,0.3,0.4,0.4c0.2,0.2,0.3,0.4,0.5,0.6c0,0,0,0,0,0
	c0.1,0.2,0.3,0.4,0.4,0.6c0,0,0,0,0,0c0.1,0.1,0.1,0.2,0.2,0.2c0.1,0.1,0.1,0.2,0.2,0.2c0.2,0.3,0.4,0.6,0.6,0.9
	c0.1,0.1,0.1,0.2,0.2,0.3c0.1,0.2,0.3,0.4,0.4,0.7c0.1,0.2,0.3,0.4,0.4,0.6c0.1,0.1,0.1,0.2,0.2,0.3c0,0.1,0.1,0.1,0.1,0.2
	c0.1,0.2,0.2,0.4,0.4,0.7c0.1,0.2,0.2,0.4,0.3,0.7c0,0,0,0,0,0c0.2,0.4,0.4,0.9,0.6,1.3c0.4,0.9,0.7,1.8,1,2.7l0.2,0.5
	c0,0,0,0.1,0,0.1c0,0.1,0.1,0.2,0.1,0.4c0,0.2,0.1,0.3,0.1,0.5C169.8,45.9,170.1,48.3,170.1,50.8z M145,26.3L145,26.3
	c-0.7-0.1-1.4-0.2-2.1-0.2h0c0,0-0.1,0-0.1,0c-0.2,0-0.5,0-0.7,0l0.4-0.4c-0.4,0-0.8,0-1.2,0c-1.3,0-2.7,0.1-3.9,0.3c0,0,0,0,0,0
	l-0.6,0.5l-0.4,0.3c0,0,0-0.1,0.1-0.3c0-0.1,0.1-0.3,0.1-0.4c0-0.1,0.1-0.3,0.1-0.4c0-0.1,0.1-0.2,0.1-0.3c0,0,0-0.1,0-0.1
	c0-0.1,0-0.1,0-0.2c0-0.1,0.1-0.3,0.1-0.4c0-0.1,0.1-0.2,0.1-0.4c0,0,0,0,0,0c0-0.1,0-0.2,0.1-0.3c0-0.1,0-0.2,0.1-0.4
	c-0.1,0-0.2,0.1-0.3,0.1c-0.2,0.1-0.4,0.1-0.6,0.2c-0.1,0-0.2,0.1-0.3,0.1c-0.2,0.1-0.4,0.1-0.6,0.2c-0.1,0-0.2,0.1-0.4,0.1
	c-0.1,0-0.2,0.1-0.3,0.1c-0.1,0.1-0.3,0.1-0.4,0.2c-0.1,0.1-0.2,0.1-0.3,0.2c-0.2,0.1-0.3,0.2-0.5,0.3c-0.1,0-0.1,0.1-0.2,0.1
	c-0.3,0.2-0.6,0.5-0.8,0.7c0,0-0.1,0.1-0.1,0.1c0,0-0.1,0.1-0.1,0.1c-0.1,0.1-0.2,0.2-0.2,0.3c0,0-0.1,0.1-0.1,0.1
	c0,0-0.1,0.1-0.1,0.1c0,0-0.1,0.1-0.1,0.1c0,0.1-0.1,0.1-0.1,0.2c0,0.1-0.1,0.1-0.1,0.2c0,0,0,0.1,0,0.1c0,0,0,0.1,0,0.1
	c0,0.1-0.1,0.2-0.1,0.3c0,0.2,0,0.3,0,0.5c0,0.6,0.2,1.3,0.8,1.9c-0.3,0.4-3.5,1.8-3.5,1.8s0.4-1.5,0.7-2.8c0-0.2,0.1-0.3,0.1-0.5
	c0,0,0,0,0,0c0,0,0,0,0,0c0-0.2,0.1-0.4,0.1-0.6c0-0.1,0-0.2,0-0.2c0-0.1,0-0.1,0-0.2c-0.7,0.2-1.3,0.4-1.8,0.6
	c-0.2,0.1-0.3,0.1-0.5,0.2c-0.1,0.1-0.3,0.1-0.4,0.2c-0.2,0.1-0.3,0.2-0.5,0.3c-0.1,0.1-0.2,0.1-0.3,0.2c-0.1,0.1-0.2,0.1-0.3,0.2
	c-0.1,0-0.1,0.1-0.2,0.1c-0.1,0.1-0.2,0.2-0.3,0.3c-0.1,0-0.1,0.1-0.2,0.1c0,0-0.1,0.1-0.1,0.1c-0.1,0.1-0.2,0.2-0.2,0.2
	c-0.2,0.2-0.3,0.4-0.4,0.6c0,0.1-0.1,0.1-0.1,0.2c0,0.1-0.1,0.2-0.1,0.3c-0.1,0.4-0.1,0.8-0.1,1.1c0,0.2,0.1,0.3,0.1,0.5
	c0.1,0.3,0.2,0.5,0.3,0.8c-0.5,0.1-1,0.3-1.6,0.5c-1.2,1.2-2.2,2.6-3,4.1c0.2,0,0.5,0,0.8,0c-0.3,0.3,1.4,2.1,1.4,2.1l-3.2,0.2
	c0,0,0,0-0.3,0c-0.7,1.4-1.2,2.9-1.6,4.4c1-0.4,2.1-0.7,2.9-0.8c5.2-0.6,11.5-2.4,11.5-2.4l-1.6-3l-3.5,0.8l2.4-2l-3.3-0.5l3.7-2
	c0,0,0.6,2.9,3.2,2.8c2,0.2,5.2-2.9,5.2-2.9l-4.9-1.5l4.5-3.5c0,0,0.9,0.9,1.5,1.1c0.6,0.2,2.4,0.4,3.2-0.4
	C143.4,29.9,145,26.3,145,26.3z M154.6,71.5c-0.2-0.6-0.6-1.3-1-1.9c-0.7,0.5-2.1,1.5-2.8,2c0.4,0.5,0.7,1.1,0.8,1.7
	C152.7,72.7,153.7,72.1,154.6,71.5z M154.1,55.4c-4.6,0.1-6.4,7.5-6.8,9.1c0.1,0.2,1.3,0.6,1.9-0.2c2.2-4.1,2.7-5.6,4-6.4
	s3.4-0.6,3.4-0.6S156.6,55.1,154.1,55.4z M156.9,46.6c-0.2-0.2-1.5-2.7-1.6-2.8c-0.8,0.1-1.5-0.3-1.8-0.4c-0.1,2.4-1.4,3-1.4,3
	l-1.5-1.4l-1,0.6l-1.1-1.9c0,0,2.9-1.6,2.8-1.8c-0.1-0.6-1.1-1-1.5-1c-0.4,0-2.4,0.5-2.4,0.5s-0.2-2.1,0-2.5
	c0.2-0.4,3.8-0.6,4.4-0.5c0.7,0.1,1.1,0.5,1.4,0.7c0.3,0.2,1.1,1.1,1.5,1.2c0.4,0.2,1.7,0.4,1.7-0.4c0-0.3-0.4-0.7-0.4-0.7
	s-0.5-0.6-0.5-1c-0.1-0.4,0-1.3,0-1.3s0.2-2.7-0.2-4.2c-0.1-0.4-0.4-2.3-1.5-2.3c-2.5,0-6.7,5.4-6.7,5.4l0.9,1.1
	c0,0-3.1,3.4-3.4,4.2c-0.3,0.8-0.5,4.3-0.2,4.9c2.8,3.1,3.3,3.8,3,3.9c-0.2,0.2-2.1,0.7-2.1,0.7s1.1,4.2,2.4,4.3c0.3,0,2.4-2,2.4-2
	s-0.2-2.6,0.5-2.3c0.3,0,0.9,1.4,1.7,1.3c0.8-0.1,1.6-1.3,1.6-1.3s1.6,1,2.5,1c1.4-0.3,1.6-1.4,1.6-1.4S156.8,48.6,156.9,46.6z"/>
</svg>
