<?xml version="1.0" encoding="utf-8"?>
<!-- Generator: Adobe Illustrator 21.0.2, SVG Export Plug-In . SVG Version: 6.00 Build 0)  -->
<svg version="1.1" id="Layer_2" xmlns="http://www.w3.org/2000/svg" xmlns:xlink="http://www.w3.org/1999/xlink" x="0px" y="0px"
	 viewBox="0 0 291 328.5" style="enable-background:new 0 0 291 328.5;" xml:space="preserve">
<style type="text/css">
	.st0{
		animation-name: color_change;
		animation-duration: 2s;
		animation-iteration-count: infinite;
		animation-direction: alternate;
	}
	@-webkit-keyframes color_change {
	from { fill: #fff; }
		to { fill: #ffa600; }
	}
	@-moz-keyframes color_change {
		from { fill: #fff; }
		to { fill: #ffa600; }
	}
	@-ms-keyframes color_change {
		from { fill: #fff; }
		to { fill: #ffa600; }
	}
	@-o-keyframes color_change {
		from { fill: #fff; }
		to { fill: #ffa600; }
	}
	@keyframes color_change {
		from { fill: #fff; }
		to { fill: #ffa600; }
	}
</style>
<path class="st0" d="M284.8,173.4c-0.1-2.1-0.3-4.1-0.5-6.2c-0.1-1-0.2-1.9-0.3-2.9c0-0.1,0-0.2,0-0.3c-0.1-0.9-0.2-1.7-0.3-2.6
	c0-0.2-0.1-0.4-0.1-0.5c-0.1-0.9-0.3-1.7-0.4-2.6c0-0.2-0.1-0.4-0.1-0.5c-0.1-0.6-0.2-1.3-0.4-1.9c-0.2-0.9-0.3-1.7-0.5-2.6
	c-0.2-0.8-0.3-1.5-0.5-2.2c-0.2-0.8-0.4-1.6-0.6-2.5c-0.2-0.6-0.4-1.3-0.5-1.9c-0.1-0.3-0.2-0.5-0.2-0.8c-0.2-0.7-0.4-1.4-0.6-2.1
	c-0.1-0.3-0.2-0.5-0.3-0.8c-0.3-0.8-0.5-1.6-0.8-2.4c-0.3-0.9-0.6-1.8-1-2.7c0-0.1-0.1-0.2-0.1-0.3c-0.3-0.8-0.6-1.7-1-2.5
	c0-0.1-0.1-0.2-0.1-0.3c-0.3-0.8-0.7-1.6-1-2.4c-1.6-3.9-3.5-7.7-5.5-11.3c-0.4-0.7-0.8-1.4-1.2-2.1c-2.1-3.6-4.4-7.2-6.8-10.5
	c-0.5-0.7-1-1.4-1.5-2c-1.2-1.6-2.5-3.2-3.8-4.8c-0.5-0.6-1-1.2-1.5-1.8c-0.5-0.6-1-1.1-1.5-1.7c-0.5-0.5-0.9-1-1.4-1.5
	c-0.6-0.6-1.2-1.2-1.8-1.8c-0.6-0.6-1.1-1.2-1.7-1.7c-0.5-0.5-0.9-0.9-1.4-1.3c-0.4-0.4-0.9-0.9-1.3-1.3c-0.2-5.9-1.7-24.1-13-32.5
	c-18.5-14.9-39-6-39-6l-1.4-0.3c-2.3-0.9-4.8-1.7-7.2-2.4c0-0.8,0.3-1.8,1.2-2.6c3.3-2.8,9.6-7,10.1-7.9c5-7,0.2-32.7,0.2-32.7
	l-5.1,4.9l-9.1,7.7c0,0-7.4,5.8-8.8,10.2c-1.4,4.4,0,12.6,0,12.6l-2.8,5c-1.4-0.2-2.7-0.3-4.1-0.4l-1.2-12.6l-12.3,12.4
	c-7.5,0.4-15.3,1.5-23,3.6c-35.5,9.3-61.6,33.9-68.1,60.8c-0.1,0.1-0.6,2.8-0.6,2.8l-0.6,0.1l-0.8,0l-5.5,0.3l0.2,8.7v0.1l0.1,5.9
	l1.4,0.1l-2.9,13.4c0,0-3.9,1.7-8,3.6c-2.9,1.4-5.9,2.9-7.8,4.1c-4.6,2.9-18.3,13.6-22,17.9S0.3,186.7,0.3,186.7l13.2,6.5l1.3-1.4
	l9.5-13.1c0,0,9.7-8.8,17.2-14.4c2-1.4,3.8-2.7,5.3-3.5c7.2-3.9,19.5-9,27.4-9.8c21.9-2.5,48.6-10.1,48.6-10.1l-6.7-12.8l-14.7,3.5
	l10.3-8.4l-13.8-2l15.7-8.3c0,0,2.5,12.3,13.3,11.7c8.5,0.7,22-12,22-12l-20.7-6.1l18.9-14.5c0,0,3.9,3.9,6.5,4.7
	c2.6,0.8,10.1,1.5,13.5-1.5c5.6-3.4,12-18.6,12-18.6l-14.5,1.3l12.8-14.8c0,0,7,7.2,8.5,10.3c2.1-2.6,9.8-7.3,17.5-8.9
	c1.6-0.3,3.3-0.5,4.9-0.5c15.2,1.7,20.6,8.5,22.5,14.3h0c1.5,4.7,0.6,8.7,0.6,8.7s-7.6-7.4-17.3-6.5c-6.4-0.1-11.6,3.1-17.9,7.3
	c-6.3,4.2-36.1,38.6-42.9,45.9c-6.8,7.2-21,16.4-27.3,18.7c-18,6.1-51.4,7.3-71.9,17.9c-4.6,2-9.3,5.7-13.7,9.8
	c-9.3,8.8-16.7,19.4-16.7,19.4s11,8.5,12.8,8c0.5-2.2,2.3-5.4,5.4-9c8.5-9.9,26.4-22.5,50.5-24.3c-0.2,3.4-5.9,13.7-5.9,13.7
	S56.5,197,47.8,216c-0.2,1-0.4,2-0.7,3c0,0,0,0,0,0c0.3,0.7,0.5,1.5,0.8,2.2c2.1,5.9,4.7,11.5,7.6,16.9c0.4,0.8,0.9,1.5,1.3,2.3
	c1.5,2.6,3.1,5.2,4.8,7.7c0.5,0.8,1,1.5,1.6,2.2c0.5,0.8,1.1,1.5,1.6,2.3c0.3,0.4,0.6,0.8,0.9,1.2c0.4,0.5,0.7,1,1.1,1.4
	c0.8,1,1.6,1.9,2.4,2.9c0.4,0.5,0.8,1,1.2,1.5c0.6,0.7,1.3,1.5,1.9,2.2c0,0,0,0.1,0.1,0.1c0.5,0.6,1,1.1,1.6,1.7
	c1.6,1.7,3.3,3.4,5,5c0.6,0.5,1.1,1.1,1.7,1.6c1.4,1.3,2.9,2.6,4.4,3.8c1.5,1.2,3,2.5,4.6,3.6c1.6,1.2,3.2,2.3,4.8,3.4
	c0.7,0.5,1.5,1,2.2,1.5c1,0.7,2.1,1.3,3.2,2c1.5,0.9,3.1,1.8,4.7,2.7c0.9,0.5,1.7,0.9,2.6,1.4c0.8,0.4,1.5,0.8,2.3,1.2
	c2.8,1.4,5.6,2.6,8.5,3.7c0.9,0.4,1.8,0.7,2.8,1.1c1.8,0.7,3.6,1.3,5.4,1.8c2.7,0.9,5.5,1.6,8.3,2.3c0.8,0.2,1.6,0.4,2.4,0.5
	c0.6,0.1,1.2,0.3,1.8,0.4c0.7,0.2,1.4,0.3,2.2,0.4c1.1,0.2,2.2,0.4,3.3,0.6c2,0.3,4.1,0.6,6.1,0.8c0.7,0.1,1.4,0.1,2.1,0.2
	c0.7,0.1,1.5,0.1,2.2,0.2c0.2,0,0.4,0,0.6,0c0.8,0.1,1.6,0.1,2.3,0.1c0.9,0.1,1.8,0.1,2.6,0.1c0.9,0,1.8,0,2.7,0
	c1.3,0,2.6,0,3.9-0.1c1.1,0,2.2-0.1,3.3-0.2c0.5,0,0.9-0.1,1.4-0.1c0.6,0,1.1-0.1,1.6-0.1c0.8-0.1,1.5-0.1,2.2-0.2
	c1.7-0.2,3.5-0.4,5.2-0.7c1.4-0.2,2.7-0.4,4-0.7c0.8-0.1,1.7-0.3,2.5-0.5c0.3-0.1,0.5-0.1,0.8-0.2c0.7-0.1,1.4-0.3,2.1-0.5
	c1-0.2,2-0.5,3-0.7c10.4-2.7,20.3-6.6,29.4-11.8h0c0.8-8.5-0.5-18.2-6.7-27.8c-2.8,2-9,6.2-11.9,8.3c7.8,10.4,3.2,23.2,3.2,23.2
	s-39.7-22.2-44.1-26.3c-3.8-4.2-0.4-14.2-0.4-14.2s-12.3-6.5-13.1-6.3c-0.7,0.2-3.3,11.8-3.3,11.8s-23.6-6-8.8-45.5
	c5.9-15.5,17.1-57.4,17.1-57.4s4.7-4.4,8.5-7.8c-0.4,10.4-0.4,50.4,21.2,65.5c0.1,3-13.4,31.6-12.9,33.5
	c23.7,19.8,39.4,0.9,40.4-1.9c1.6,0.2,8.9,5.8,10.9,8.1c8.5,9,11.7,19.3,12.1,29.1c4.3-3.1,8.3-6.5,12.2-10.1
	c0.7-0.7,1.5-1.4,2.2-2.1c0.5-0.5,1-1,1.5-1.6c0.3-0.3,0.6-0.6,0.9-0.9c0.7-0.7,1.3-1.4,1.9-2.1c3.3-3.6,6.4-7.4,9.2-11.4
	c0.6-0.8,1.1-1.5,1.6-2.3c0.8-1.2,1.6-2.3,2.3-3.6c0.4-0.7,0.8-1.3,1.2-2c1-1.6,1.9-3.2,2.8-4.9c0.4-0.8,0.8-1.6,1.2-2.3
	c0.3-0.6,0.7-1.3,1-1.9c0.3-0.7,0.7-1.3,1-2c0.4-0.8,0.7-1.6,1.1-2.3c0.1-0.1,0.1-0.2,0.1-0.3c0.3-0.7,0.7-1.5,1-2.2
	c0.1-0.3,0.3-0.6,0.4-0.9c0.3-0.6,0.5-1.3,0.8-1.9c0.3-0.7,0.6-1.5,0.8-2.2c0.3-0.8,0.6-1.6,0.9-2.5c0.3-0.7,0.5-1.4,0.7-2.1
	c0.2-0.7,0.5-1.4,0.7-2.1c0.1-0.2,0.1-0.3,0.2-0.5c0.2-0.6,0.4-1.2,0.5-1.8c0.2-0.6,0.3-1.2,0.5-1.7c0.2-0.9,0.5-1.8,0.7-2.6
	c0.2-0.7,0.3-1.3,0.5-2c0.2-0.7,0.3-1.5,0.5-2.2c0.2-0.8,0.3-1.6,0.4-2.3c0.2-1,0.3-1.9,0.5-2.9c0-0.1,0.1-0.3,0.1-0.4
	c0.2-0.9,0.3-1.8,0.4-2.8c0.1-1,0.3-2,0.4-3.1c0.1-0.9,0.2-1.8,0.3-2.8c0.1-1.1,0.2-2.1,0.2-3.2c0-0.1,0-0.2,0-0.2
	c0.1-2.1,0.2-4.2,0.2-6.3S284.9,175.5,284.8,173.4z M69.7,135.6l2.6-9.4c0,0,1.6,0.2,4.6,0c-1.1,1.2,6.1,8.8,6.1,8.8L69.7,135.6z
	 M142.6,78.4c0,0,2-6.3,3.2-13.5c-21,5-29.6,16.9-21.2,27.2c-1.4,1.8-14.7,7.7-14.7,7.7s4.1-14.2,4.5-18.3
	C89.7,89.1,89,98.4,93.1,106.8c-5.9,1.7-15.1,5.7-16.3,3.3c18.5-43.9,62.5-48.6,74.1-48.6c3.7,3.5,5.4,4.8,5.4,4.8L142.6,78.4z
	 M142.8,269.3c-0.8-0.7,2.4-5.8,3.9-5.7c0.5,6.3,7.1,12.7,23.1,22.2c-35.9,3.7-81.7-14.4-104.2-61.9c33.4-8.2,40.6-45.6,42.7-49.8
	c-0.1,5.4,10.9,20.1,20,19.5C99.6,255.1,140.1,268.5,142.8,269.3z M132.4,179.7c-6.7,1.3-10.5-5.5-9.4-11.4
	c3.3-0.7,12.8-4.5,12.8-4.5S133.1,176.9,132.4,179.7z M181.5,178.9c0,0,7.8-2.3,8.8-3c1-0.7-1.1-3.5-12.8-16.5
	c-1.5-2.2-0.4-17.1,0.7-20.4c1.1-3.3,14.1-17.6,14.1-17.6l-3.9-4.6c0,0,17.6-22.6,28.2-22.6c4.5,0,5.7,7.9,6.3,9.6
	c1.7,6.4,0.7,17.6,0.7,17.6s-0.2,3.9,0,5.5c0.2,1.5,2.1,4.2,2.1,4.2s1.7,1.9,1.7,2.9c-0.3,3.4-5.7,2.5-7.3,1.8
	c-1.6-0.7-4.9-4.5-6.3-5.2c-1.3-0.7-3.1-2.5-5.9-2.9c-2.9-0.4-17.7,0.4-18.7,2c-1,1.5,0,10.3,0,10.3s8.2-2,9.9-1.9
	c1.7,0,6,1.9,6.4,4.2c0.8,0.8-11.6,7.4-11.6,7.4l4.5,7.8l4.2-2.5l6.1,6c0,0,5.4-2.5,5.9-12.6c1.4,0.4,4.2,2.2,7.6,1.8
	c0.5,0.3,6.2,11,6.9,11.7c-0.4,8.6,6,15.7,6,15.7s-0.8,4.5-6.7,5.7c-3.8-0.2-10.3-4.4-10.3-4.4s-3.6,4.7-6.9,5.4
	c-3.3,0.6-6.1-5.4-7.3-5.4c-3.2-1.1-2.2,9.8-2.2,9.8s-9,8.4-10.2,8.4C186.3,196.4,181.5,178.9,181.5,178.9z M197,236.3
	c-2.9,3.2-7.8,1.7-8.2,0.8c1.7-6.5,9.5-37.6,28.7-38.1C228,197.5,228,207,228,207s-8.9-0.5-14.3,2.6
	C208.4,212.6,206.1,219.2,197,236.3z M241.5,251.3c-8.2-17.8-23.4-18.7-22.8-26c0.4-1.4,1.1-2.6,2.3-3.1c3.4-0.4,8.5-0.4,8.7-0.8
	c0.3-0.5,0-5.5,0-5.5s9.2,3.4,10.8,2.5c4.2-8.9-1.3-24.7-1.3-24.7s10.6-7.8,11-11.6c3.2-4.3-7-19.4-7-19.4s0.2-3.8-0.8-6.3
	c-1-2.5-5.5-7.2-5.5-7.2s14.3-10.1,1-25.3c0.6-4.9-0.1-20.4-0.1-20.4s30.8,29.2,31.5,68.4C271.5,223.3,242.8,251.7,241.5,251.3z"/>
</svg>
