<svg viewBox="0 0 1024.0009 1024.003" xmlns="http://www.w3.org/2000/svg"><path d="M999.625 274.008L527.845 71.626c-10.13-4.342-21.577-4.342-31.697 0L24.368 274.008C9.574 280.348.004 294.904.02 311c.025 16.096 9.65 30.626 24.445 36.938l471.78 201.04c5.04 2.144 10.4 3.216 15.76 3.216s10.737-1.072 15.75-3.216L999.53 347.936c14.81-6.3 24.435-20.842 24.447-36.938.016-16.082-9.554-30.652-24.352-36.99zm-487.62 194.286L142.5 310.838l369.504-158.514 369.503 158.514-369.503 157.456zm508.73 228.894c-8.752-20.412-32.434-29.862-52.794-21.096L512.005 871.678 56.067 676.092c-20.44-8.792-44.042.698-52.794 21.096-8.766 20.4.684 44.042 21.096 52.794l471.778 202.396c5.066 2.172 10.468 3.256 15.856 3.256s10.79-1.086 15.856-3.256l471.78-202.396c20.4-8.754 29.847-32.396 21.095-52.794zm.04-200.962c-8.726-20.412-32.34-29.916-52.754-21.216L512.005 669.336 56 475.01c-20.44-8.712-44.053.804-52.753 21.216-8.712 20.44.79 44.056 21.216 52.754l471.78 201.04c5.04 2.144 10.4 3.216 15.76 3.216s10.737-1.072 15.763-3.216l471.78-201.042c20.425-8.698 29.927-32.314 21.23-52.752z"/></svg>