<svg viewBox="0 0 1024.001 1024.003" xmlns="http://www.w3.org/2000/svg"><path d="M1024 189.987c0 22.088-17.904 39.992-39.99 39.992H874.03v109.978c0 22.088-17.905 39.992-39.992 39.992s-39.992-17.905-39.992-39.992v-109.98h-109.98c-22.087 0-39.99-17.904-39.99-39.99s17.904-39.993 39.99-39.993h109.98V40.015c0-22.087 17.905-39.99 39.992-39.99s39.992 17.904 39.992 39.99v109.98h109.98c22.087 0 39.99 17.905 39.99 39.992zM812.598 503.333c-.166-.13-.332-.258-.5-.384l-89.833-68.294c-17.58-13.365-42.674-9.95-56.04 7.635-13.366 17.584-9.95 42.675 7.636 56.042l89.543 68.07c16.74 13.328 12.31 31.507 10.544 36.78-1.746 5.215-9.068 22.21-30.2 22.8h-365.65c-12.882 0-24.975 6.207-32.488 16.67l-207.52 289.1c-13.262 16.323-30.743 12.086-35.828 10.378-5.11-1.716-21.76-8.952-22.276-30.24V113.157c.09-18.378 12.826-26.717 18.296-29.448 5.397-2.698 19.498-7.796 33.99 2.898l369.62 280.99c17.577 13.365 42.67 9.95 56.04-7.633 13.366-17.583 9.95-42.674-7.636-56.04L180.483 22.787c-.108-.082-.214-.164-.322-.244C145.885-2.97 100.823-6.958 62.557 12.146 24.18 31.302.208 69.86 0 112.963v799.333c0 .23.002.46.006.692.838 48.387 30.982 89.59 76.797 104.97 12.084 4.055 24.38 6.025 36.487 6.025 33.826-.002 66.165-15.36 88.173-43.42.35-.448.69-.9 1.02-1.36L398.62 705.967h345.593c.264 0 .528-.002.792-.008 48.243-.955 89.375-31.33 104.792-77.39 15.46-46.187.856-95.346-37.2-125.236z"/></svg>