<svg viewBox="0 0 1024 1024.003" xmlns="http://www.w3.org/2000/svg"><path d="M987.516 469.435H814.822c-20.152 0-36.484 16.332-36.484 36.484s16.332 36.483 36.484 36.483h172.694c20.152 0 36.484-16.332 36.484-36.484 0-20.15-16.332-36.485-36.484-36.485zm-436.6 0H36.484C16.332 469.435 0 485.77 0 505.92s16.332 36.485 36.484 36.485h514.432c20.152 0 36.484-16.332 36.484-36.484.002-20.15-16.332-36.485-36.484-36.485zM682.262 338.09c-92.55 0-167.828 75.293-167.828 167.83 0 92.55 75.292 167.83 167.828 167.83S850.09 598.47 850.09 505.92c0-92.537-75.28-167.83-167.828-167.83zm0 262.69c-52.306 0-94.86-42.553-94.86-94.86s42.554-94.86 94.86-94.86 94.872 42.555 94.872 94.86-42.554 94.86-94.872 94.86zM209.178 771.04H36.484C16.332 771.04 0 787.376 0 807.528s16.332 36.484 36.484 36.484h172.694c20.152 0 36.484-16.33 36.484-36.483s-16.332-36.486-36.484-36.486zm778.338 0H473.084c-20.152 0-36.484 16.335-36.484 36.485s16.332 36.484 36.484 36.484h514.432c20.152 0 36.484-16.333 36.484-36.485s-16.332-36.484-36.484-36.484zM341.738 639.698c-92.538 0-167.828 75.28-167.828 167.828s75.292 167.83 167.828 167.83 167.828-75.292 167.828-167.828-75.29-167.83-167.828-167.83zm0 262.702c-52.306 0-94.86-42.555-94.86-94.86 0-52.32 42.554-94.873 94.86-94.873s94.86 42.554 94.86 94.872c0 52.305-42.552 94.86-94.86 94.86zm-132.56-722.41H36.484C16.332 179.99 0 196.326 0 216.478s16.332 36.484 36.484 36.484h172.694c20.152 0 36.484-16.33 36.484-36.483s-16.332-36.486-36.484-36.486zm778.338 0H473.084c-20.152 0-36.484 16.335-36.484 36.485s16.332 36.484 36.484 36.484h514.432c20.152 0 36.484-16.333 36.484-36.485s-16.332-36.484-36.484-36.484zM341.738 48.648c-92.538 0-167.828 75.292-167.828 167.828s75.292 167.828 167.828 167.828 167.828-75.28 167.828-167.828c.002-92.548-75.29-167.828-167.828-167.828zm0 262.688c-52.306 0-94.86-42.554-94.86-94.86s42.554-94.86 94.86-94.86 94.86 42.554 94.86 94.86c0 52.308-42.552 94.86-94.86 94.86z"/></svg>