<?xml version="1.0" standalone="no"?>
<!DOCTYPE svg PUBLIC "-//W3C//DTD SVG 20010904//EN"
 "http://www.w3.org/TR/2001/REC-SVG-20010904/DTD/svg10.dtd">
<svg version="1.0" xmlns="http://www.w3.org/2000/svg"
 width="512.000000pt" height="512.000000pt" viewBox="0 0 512.000000 512.000000"
 preserveAspectRatio="xMidYMid meet">

<g transform="translate(0.000000,512.000000) scale(0.100000,-0.100000)"
fill="#000000" stroke="none">
<path d="M1344 4552 c-28 -10 -73 -34 -100 -54 -27 -20 -266 -254 -531 -520
-409 -410 -482 -488 -488 -518 -3 -19 -5 -267 -3 -550 3 -513 3 -515 26 -565
13 -27 42 -70 65 -93 42 -43 122 -92 152 -92 8 0 15 -3 15 -7 0 -4 -58 -66
-129 -138 -102 -102 -131 -137 -136 -165 -3 -19 -5 -264 -3 -545 l3 -510 28
-56 c32 -67 109 -142 175 -172 l47 -22 2085 0 2085 0 67 33 c73 36 123 86 160
161 l23 46 3 548 3 548 -132 135 c-73 74 -131 135 -128 137 2 2 25 11 51 21
65 24 121 67 158 122 60 86 60 88 60 654 l0 517 -29 39 c-16 21 -246 256 -512
520 -378 376 -496 488 -539 510 l-55 29 -1185 2 c-1110 2 -1188 1 -1236 -15z
m2363 -183 c26 -10 843 -815 843 -831 0 -5 -899 -8 -1997 -8 l-1998 0 410 411
c226 226 424 417 440 425 25 11 227 13 1152 14 763 0 1131 -3 1150 -11z m991
-1482 c2 -495 3 -488 -61 -527 -31 -20 -66 -20 -2075 -20 -2257 0 -2081 -5
-2122 63 -19 30 -20 53 -20 485 l0 452 2138 -2 2137 -3 3 -448z m-238 -852
l105 -105 -2005 0 -2005 0 105 105 105 105 1795 0 1795 0 105 -105z m238 -748
c2 -495 3 -488 -61 -527 -31 -20 -66 -20 -2075 -20 -2257 0 -2081 -5 -2122 63
-19 30 -20 53 -20 485 l0 452 2138 -2 2137 -3 3 -448z"/>
<path d="M889 2951 c-23 -23 -29 -38 -29 -71 0 -33 6 -48 29 -71 l29 -29 162
0 162 0 29 29 c23 23 29 38 29 71 0 33 -6 48 -29 71 l-29 29 -162 0 -162 0
-29 -29z"/>
<path d="M1529 2951 c-23 -23 -29 -38 -29 -71 0 -33 6 -48 29 -71 l29 -29 417
0 417 0 29 29 c23 23 29 38 29 71 0 33 -6 48 -29 71 l-29 29 -417 0 -417 0
-29 -29z"/>
<path d="M889 1351 c-23 -23 -29 -38 -29 -71 0 -33 6 -48 29 -71 l29 -29 162
0 162 0 29 29 c23 23 29 38 29 71 0 33 -6 48 -29 71 l-29 29 -162 0 -162 0
-29 -29z"/>
<path d="M1529 1351 c-23 -23 -29 -38 -29 -71 0 -33 6 -48 29 -71 l29 -29 417
0 417 0 29 29 c23 23 29 38 29 71 0 33 -6 48 -29 71 l-29 29 -417 0 -417 0
-29 -29z"/>
</g>
</svg>
