<svg viewBox="0 0 1024.0005 1024.003" xmlns="http://www.w3.org/2000/svg"><path d="M586.527 512.716l420.85-418.55c20.177-19.972 20.177-52.305 0-72.227-20.126-19.974-52.815-19.974-72.94 0l-420.49 418.19L89.57 15.707c-20.127-20.177-52.816-20.177-72.942 0-20.126 20.228-20.126 52.968 0 73.145l424.068 424.12-425.6 423.25c-20.127 19.972-20.127 52.305 0 72.227 20.125 19.973 52.814 19.973 72.94 0l425.24-422.892 422.69 422.74c20.125 20.177 52.814 20.177 72.94 0 20.126-20.228 20.126-52.968 0-73.145l-422.38-422.434z"/></svg>