<svg viewBox="0 0 1024.0011 1024.003" xmlns="http://www.w3.org/2000/svg"><path d="M997.802 339.527c-17.894-18.524-42.138-28.718-68.24-28.718H94.42c-26.09 0-50.334 10.205-68.24 28.717C8.466 357.837-.83 381.97.058 408.147l24.706 462.51c1.776 49.535 44.12 89.83 94.395 89.83H903.72c49.345 0 90.765-38.935 94.34-89.168l25.885-463.848c.852-25.49-8.432-49.625-26.146-67.945zM930.777 867.05c-1.046 14.567-12.926 25.997-27.054 25.997H119.16c-14.152 0-26.516-11.364-27.02-25.402l-24.696-462.42c-.236-7.07 2.326-13.745 7.228-18.815 5.08-5.26 12.106-8.16 19.76-8.16v.012h835.132c7.654 0 14.68 2.9 19.772 8.16 4.9 5.058 7.464 11.746 7.262 18.062l-25.82 462.565zm-47.3-725.98h-370.43L423.6 78.767c-11.073-9.734-25.965-15.252-41.42-15.252H138.267c-43.387 0-78.68 35.8-78.68 79.805v201.197h67.44V143.32c0-6.937 4.934-12.365 11.24-12.365h242.495c.754.652 1.552 1.248 2.372 1.82l100.037 69.69c5.666 3.945 12.386 6.057 19.276 6.057h381.03c6.306 0 11.24 5.428 11.24 12.364v123.64h67.44V220.875c0-44.003-35.303-79.803-78.68-79.803z"/></svg>