<svg viewBox="0 0 1024 1024.003" xmlns="http://www.w3.org/2000/svg"><path d="M1023.134 631.66c-.036-.18-.072-.357-.11-.533-.258-1.198-.556-2.396-.924-3.594-.098-.322-.218-.632-.322-.95-.174-.524-.338-1.05-.534-1.572l-127.99-341.307c-6.244-16.65-22.162-27.684-39.947-27.684h-127.99c-23.562 0-42.663 19.1-42.663 42.662s19.1 42.663 42.663 42.663h98.425l95.993 255.98H725.318c-23.562 0-42.663 19.102-42.663 42.664v85.327H341.347V639.99c0-23.563-19.1-42.664-42.663-42.664H104.267l95.993-255.98h98.425c23.562 0 42.663-19.102 42.663-42.664s-19.1-42.663-42.663-42.663h-127.99c-17.785 0-33.703 11.03-39.947 27.683L2.758 625.01c-.196.523-.358 1.045-.532 1.57-.106.32-.226.63-.324.955-.368 1.196-.664 2.394-.924 3.592-.038.178-.074.356-.11.536-.664 3.278-.932 6.546-.826 9.757v339.882c0 23.562 19.1 42.663 42.663 42.663H981.3c23.562 0 42.663-19.1 42.663-42.663V641.418c.106-3.212-.16-6.48-.826-9.76zm-84.5 306.976H85.367v-255.98H256.02v85.327c0 23.562 19.1 42.663 42.662 42.663h426.634c23.562 0 42.663-19.1 42.663-42.663v-85.328H938.63v255.98zM414.177 200.862l55.16-55.16v408.963c0 23.562 19.1 42.663 42.663 42.663s42.662-19.1 42.662-42.663V145.702l55.16 55.16c16.66 16.66 43.675 16.66 60.335 0s16.66-43.675 0-60.335l-127.99-127.99c-.008-.008-.016-.012-.022-.02-.988-.986-2.024-1.92-3.104-2.806-.493-.405-1.013-.757-1.52-1.137-.607-.454-1.2-.924-1.833-1.346-.608-.406-1.238-.758-1.862-1.13-.572-.342-1.13-.7-1.718-1.016-.636-.34-1.288-.627-1.938-.933-.615-.29-1.22-.596-1.847-.858-.63-.26-1.274-.473-1.914-.7-.675-.243-1.34-.5-2.027-.71-.64-.193-1.292-.335-1.938-.497-.702-.178-1.396-.374-2.11-.516-.75-.148-1.506-.238-2.26-.346-.622-.087-1.234-.207-1.866-.27-2.8-.275-5.623-.275-8.422 0-.63.063-1.242.18-1.866.27-.754.11-1.512.197-2.26.347-.716.142-1.408.338-2.11.516-.648.162-1.298.304-1.938.498-.688.21-1.354.467-2.026.71-.64.23-1.284.44-1.914.7s-1.232.567-1.846.857c-.648.306-1.302.594-1.938.934-.588.317-1.146.675-1.718 1.017-.624.372-1.254.724-1.862 1.13-.632.422-1.224.892-1.832 1.346-.508.38-1.028.732-1.522 1.138-1.08.887-2.118 1.82-3.104 2.807-.008.008-.016.012-.022.02l-127.99 127.99c-16.66 16.66-16.66 43.675 0 60.335s43.673 16.66 60.333 0z"/></svg>