<svg viewBox="0 0 1024 1024.003" xmlns="http://www.w3.org/2000/svg"><path d="M981.334 170.667H758.65l-14.024-56.124C727.81 47.22 667.316 0 597.93 0H426.068c-69.386 0-129.88 47.22-146.696 114.547l-14.024 56.12H128.004h-.002-85.336C19.102 170.667 0 189.77 0 213.335S19.102 256 42.666 256h44.976l35.948 647.06c3.776 67.845 59.898 120.94 127.848 120.94h521.13c67.95 0 124.072-53.095 127.848-120.935L936.366 256h44.968c23.564 0 42.666-19.1 42.666-42.665s-19.102-42.668-42.666-42.668zM362.162 135.23c7.326-29.33 33.676-49.897 63.908-49.897h171.862c30.232 0 56.582 20.568 63.906 49.892l8.856 35.442H353.306l8.856-35.438zm453.054 763.097c-1.26 22.622-19.986 40.34-42.648 40.34h-521.13c-22.66 0-41.388-17.718-42.648-40.344L173.108 256h677.794l-35.686 642.327zM341.334 341.335c-23.564 0-42.666 19.102-42.666 42.666v426.667c0 23.564 19.102 42.666 42.666 42.666S384 834.23 384 810.667V384c0-23.563-19.102-42.665-42.666-42.665zm170.666 0c-23.564 0-42.666 19.102-42.666 42.666v426.667c0 23.564 19.102 42.666 42.666 42.666s42.666-19.102 42.666-42.666V384c0-23.563-19.102-42.665-42.666-42.665zm170.666 0C659.102 341.335 640 360.437 640 384v426.667c0 23.564 19.102 42.666 42.666 42.666s42.666-19.102 42.666-42.666V384c.002-23.563-19.102-42.665-42.666-42.665z"/></svg>