<?xml version="1.0" standalone="no"?>
<!DOCTYPE svg PUBLIC "-//W3C//DTD SVG 20010904//EN"
 "http://www.w3.org/TR/2001/REC-SVG-20010904/DTD/svg10.dtd">
<svg version="1.0" xmlns="http://www.w3.org/2000/svg"
 width="512.000000pt" height="512.000000pt" viewBox="0 0 512.000000 512.000000"
 preserveAspectRatio="xMidYMid meet">

<g transform="translate(0.000000,512.000000) scale(0.100000,-0.100000)"
fill="#000000" stroke="none">
<path d="M1315 3886 c-67 -21 -118 -52 -163 -97 -34 -34 -77 -109 -192 -340
l-149 -297 37 -6 c44 -7 3462 -8 3462 -1 0 3 -67 139 -149 303 -166 331 -189
362 -301 416 l-65 31 -1220 2 c-966 1 -1228 -1 -1260 -11z"/>
<path d="M781 2819 c-109 -21 -212 -102 -263 -207 l-33 -67 -3 -494 c-3 -474
-2 -497 18 -560 36 -118 130 -212 245 -247 74 -22 3557 -21 3632 1 112 33 208
130 244 246 19 63 20 87 17 560 l-3 494 -33 67 c-40 82 -119 157 -200 190
l-57 23 -1760 1 c-968 1 -1780 -2 -1804 -7z m985 -648 c100 -45 129 -160 63
-245 -42 -54 -56 -56 -337 -56 -252 0 -260 1 -292 23 -75 50 -99 130 -62 203
44 86 71 93 357 93 203 1 235 -2 271 -18z m1516 -9 c49 -31 82 -99 75 -154 -6
-48 -30 -84 -77 -115 -31 -21 -44 -23 -182 -23 -118 0 -157 4 -184 16 -50 24
-77 68 -82 133 -5 70 22 115 88 149 42 21 55 23 185 20 125 -3 144 -5 177 -26z
m640 0 c49 -31 82 -99 75 -154 -6 -48 -30 -84 -77 -115 -31 -21 -44 -23 -182
-23 -118 0 -157 4 -184 16 -50 24 -77 68 -82 133 -5 70 22 115 88 149 42 21
55 23 185 20 125 -3 144 -5 177 -26z"/>
</g>
</svg>
