<?xml version="1.0" encoding="utf-8"?>
<!-- Generator: Adobe Illustrator 23.0.2, SVG Export Plug-In . SVG Version: 6.00 Build 0)  -->
<svg version="1.1" id="Capa_1" xmlns="http://www.w3.org/2000/svg" xmlns:xlink="http://www.w3.org/1999/xlink" x="0px" y="0px"
	 viewBox="0 0 468.3 468.3" style="enable-background:new 0 0 468.3 468.3;" xml:space="preserve">
<style type="text/css">
	.st0{fill:#0A5A87;}
	.st1{fill:#0492F2;}
</style>
<path class="st0" d="M209.1,62.5L209.1,62.5c0-6.5-5.3-11.9-11.9-11.9H53.8c-6.5,0-11.9,5.3-11.9,11.9v4.6c0,5.3-4.3,9.6-9.6,9.6
	l0,0c-6.5,0-11.9,5.3-11.9,11.9V229h414.9V90.5c0-7.6-6.2-13.8-13.8-13.8H223.3C215.4,76.7,209.1,70.4,209.1,62.5z"/>
<path class="st1" d="M154,152.4L101,192H18c-9.9,0-17.3,9.1-15.3,18.8l40.9,169.7c1.5,7.3,7.9,12.5,15.3,12.5h348.6
	c7.6,0,14.1-5.5,15.4-13l41.8-209.3c1.7-9.6-5.7-18.3-15.4-18.3L154,152.4L154,152.4z"/>
</svg>
