<?xml version="1.0" encoding="utf-8"?>
<!-- Generator: Adobe Illustrator 23.0.2, SVG Export Plug-In . SVG Version: 6.00 Build 0)  -->
<svg version="1.1" id="Capa_1" xmlns="http://www.w3.org/2000/svg" xmlns:xlink="http://www.w3.org/1999/xlink" x="0px" y="0px"
	 viewBox="0 0 56 56" style="enable-background:new 0 0 56 56;" xml:space="preserve">
<style type="text/css">
	.st0{fill:#E9E9E0;}
	.st1{fill:#1E579B;}
	.st2{fill:#D9D7CA;}
	.st3{fill:#F3D55B;}
	.st4{fill:#0F73D6;}
	.st5{fill:#FFFFFF;}
</style>
<g>
	<path class="st0" d="M37,0H8C7.2,0,6.5,0.7,6.5,1.9V55c0,0.3,0.7,1,1.5,1H48c0.8,0,1.5-0.7,1.5-1V13c0-0.7-0.1-0.9-0.3-1.1
		L37.6,0.3C37.4,0.1,37.2,0,37,0z"/>
	<path class="st1" d="M48,56H8c-0.8,0-1.5-0.7-1.5-1.5V39h43v15.5C49.5,55.3,48.8,56,48,56z"/>
	<polygon class="st2" points="37.5,0.2 37.5,12 49.3,12 	"/>
	<circle class="st3" cx="18.9" cy="14.4" r="4.6"/>
	<polygon class="st4" points="6.5,39 17.5,39 49.5,39 49.5,28 39.5,18.5 29,30 23.5,24.5 	"/>
</g>
<g>
	<path class="st5" d="M25.5,52.6c-0.7,0.2-1.9,0.6-3.3,0.6c-1.7,0-3-0.4-4-1.3c-0.9-0.9-1.4-2.2-1.4-3.7c0-3.2,2.3-5.3,5.6-5.3
		c1.2,0,2.2,0.3,2.7,0.5l-0.4,1.5c-0.6-0.2-1.2-0.4-2.3-0.4c-2.2,0-3.7,1.3-3.7,3.6c0,2.3,1.4,3.7,3.5,3.7c0.7,0,1.2-0.1,1.4-0.2
		v-2.5h-1.8v-1.5h3.6V52.6z"/>
	<path class="st5" d="M29.7,42.9v10.1h-1.9V42.9H29.7z"/>
	<path class="st5" d="M32.2,42.9h5.9v1.5h-4v2.8h3.7v1.5h-3.7v4.3h-1.9V42.9z"/>
</g>
</svg>
