<?xml version="1.0" encoding="iso-8859-1"?>
<!-- Generator: Adobe Illustrator 19.0.0, SVG Export Plug-In . SVG Version: 6.00 Build 0)  -->
<svg version="1.1" id="Layer_1" xmlns="http://www.w3.org/2000/svg" xmlns:xlink="http://www.w3.org/1999/xlink" x="0px" y="0px"
	 viewBox="0 0 504.123 504.123" style="enable-background:new 0 0 504.123 504.123;" xml:space="preserve">
<path style="fill:#EFC75E;" d="M406.617,430.08c0,40.96-68.923,74.043-154.388,74.043c-85.071,0-154.388-33.083-154.388-74.043
	L67.121,98.462h370.215L406.617,430.08z"/>
<path style="fill:#D7B354;" d="M67.121,98.462l4.726,50.806c29.538,35.052,99.249,59.471,180.382,59.471
	s150.843-24.418,180.382-59.471l4.726-50.806C437.337,98.462,67.121,98.462,67.121,98.462z M252.229,261.514
	c-6.695,0-12.603,5.514-12.603,12.603v168.172c0,6.695,5.514,12.603,12.603,12.603c6.695,0,12.603-5.514,12.603-12.603V273.723
	C264.832,267.028,258.924,261.514,252.229,261.514z M314.457,255.212c-6.695,0-12.603,5.514-12.603,12.603l-6.302,167.778
	c0,6.695,5.514,12.603,12.603,12.603c6.695,0,12.603-5.514,12.603-12.603l5.908-167.778
	C326.666,260.726,321.152,255.212,314.457,255.212z M370.383,242.609c-6.695,0-12.603,5.514-12.603,12.603l-12.603,165.022
	c0,6.695,5.514,12.603,12.603,12.603c6.695,0,12.603-5.514,12.603-12.603l12.603-165.022
	C382.986,248.517,377.078,242.609,370.383,242.609z M190.001,255.212c-6.695,0-12.603,5.514-12.603,12.603l6.302,168.172
	c0,6.695,5.514,12.603,12.603,12.603c7.089,0,12.603-5.514,12.603-12.603l-6.302-168.172
	C202.604,260.726,196.697,255.212,190.001,255.212z M134.075,242.609c-6.695,0-12.603,5.514-12.603,12.603l12.603,165.022
	c0,6.695,5.514,12.603,12.603,12.603s12.603-5.514,12.603-12.603l-12.603-165.022C146.284,248.517,140.771,242.609,134.075,242.609z
	"/>
<path style="fill:#EFC75E;" d="M428.672,72.074c15.36,15.36,12.209,33.083,12.209,33.871c0,52.382-84.677,94.917-189.046,94.917
	S63.183,158.326,63.183,105.945c0-0.394-2.757-18.905,11.815-33.871C86.026,59.865,418.038,59.865,428.672,72.074z"/>
<path style="fill:#BF9F4B;" d="M252.229,0c102.4,0,185.108,40.566,185.108,90.585s-82.708,90.585-185.108,90.585
	S67.121,140.603,67.121,90.585S149.829,0,252.229,0z"/>
<path style="fill:#CDCFCF;" d="M145.891,137.058l-18.117,20.48c33.083,14.178,76.406,23.237,124.455,23.237
	s91.372-8.665,124.455-23.237l-18.117-20.48c-30.326,11.422-66.954,18.511-106.338,18.511
	C212.451,155.569,175.823,148.48,145.891,137.058z"/>
<path style="fill:#AC8F43;" d="M252.229,31.508c83.102,0,154.388,24.812,185.108,59.865v-0.788C437.337,40.566,354.629,0,252.229,0
	S67.121,40.566,67.121,90.585v0.788C97.841,56.32,169.127,31.508,252.229,31.508z"/>
<path style="fill:#CCD0D2;" d="M252.229,181.169c48.049,0,91.766-9.058,124.455-23.631l-55.926-64.197l-76.8,87.828H252.229z"/>
<path style="fill:#DCDEDF;" d="M158.887,168.172l1.182,1.182c27.175,7.483,58.683,11.815,92.16,11.815
	c26.782,0,52.382-2.757,75.618-7.877l5.12-5.12l-87.04-99.643C245.927,68.529,158.887,168.172,158.887,168.172z"/>
<path style="fill:#E4E7E7;" d="M252.229,181.169h8.271l-76.8-87.828l-55.926,64.197C160.463,172.505,204.18,181.169,252.229,181.169
	z"/>
<path style="fill:#B7BBBD;" d="M244.352,180.382h7.483c47.655,0,91.372-8.665,124.455-23.237l-17.723-20.086
	c-26.388,10.24-57.895,16.935-92.16,18.511L244.352,180.382z"/>
<path style="fill:#C6C7C8;" d="M316.426,149.268c-20.086,4.332-41.748,6.695-64.197,6.695c-26.388,0-51.594-3.151-74.437-9.058
	l-18.511,21.268l0.394,0.394c27.175,7.483,59.077,11.815,92.948,11.815c27.175,0,53.169-2.757,76.406-7.877l4.726-4.726
	C333.755,167.778,316.426,149.268,316.426,149.268z"/>
<path style="fill:#CDCFCF;" d="M259.712,180.382l-22.055-25.206c-34.265-1.575-65.772-8.271-92.16-18.511l-17.723,20.874
	c33.083,14.178,76.406,23.237,124.455,23.237C254.592,180.382,257.349,180.382,259.712,180.382z"/>
<g>
</g>
<g>
</g>
<g>
</g>
<g>
</g>
<g>
</g>
<g>
</g>
<g>
</g>
<g>
</g>
<g>
</g>
<g>
</g>
<g>
</g>
<g>
</g>
<g>
</g>
<g>
</g>
<g>
</g>
</svg>
