<svg viewBox="0 0 1024 1024.003" xmlns="http://www.w3.org/2000/svg"><path d="M512 0C229.68 0 0 229.68 0 512s229.68 512 512 512 512-229.68 512-512S794.32 0 512 0zm0 950.86C270.006 950.86 73.142 753.994 73.142 512S270.006 73.144 512 73.144 950.858 270.007 950.858 512 753.994 950.86 512 950.86zm0-682.67c-20.2 0-36.572 16.373-36.572 36.573V719.24c0 20.2 16.372 36.57 36.572 36.57s36.572-16.37 36.572-36.57V304.762c0-20.2-16.372-36.572-36.572-36.572zm207.238 207.24H304.762c-20.2 0-36.572 16.37-36.572 36.57s16.372 36.573 36.572 36.573h414.476c20.2 0 36.572-16.372 36.572-36.572s-16.372-36.57-36.572-36.57z"/></svg>