<svg viewBox="0 0 1024 1024.003" xmlns="http://www.w3.org/2000/svg"><path d="M512.592 128C310.66 128 146.37 293.88 146.37 497.78v180.147h71.112V497.78c0-164.683 132.386-298.667 295.112-298.667S807.706 333.087 807.706 497.78v180.147h71.112V497.78C878.814 293.89 714.524 128 512.592 128zm171.852 293.927c-19.638 0-35.556 15.918-35.556 35.556v98.37c0 19.638 15.916 35.556 35.556 35.556S720 575.502 720 555.852v-98.37c0-19.638-15.916-35.556-35.556-35.556zm224 220.444H115.556C95.918 642.37 80 658.288 80 677.928v165.926c0 19.638 15.916 35.556 35.556 35.556h792.888c19.65 0 35.556-15.917 35.556-35.557V677.927c0-19.638-15.918-35.556-35.556-35.556zm-35.556 165.927H151.112v-94.814H872.89v94.814zm-290.37 35.556v39.112c0 38.566-31.36 69.926-69.926 69.926s-69.926-31.36-69.926-69.925v-39.112h-71.112v39.112c0 77.76 63.266 141.038 141.036 141.038s141.038-63.266 141.038-141.038v-39.112h-71.11zM512.592 0c-67.306 0-122.074 54.77-122.074 122.075v53.334h71.112v-53.335c0-27.626 23.336-50.964 50.962-50.964s50.964 23.337 50.964 50.965v52.148h71.112v-52.148C634.666 54.77 579.912 0 512.592 0z"/></svg>