<svg viewBox="0 0 1024.0002 1024.003" xmlns="http://www.w3.org/2000/svg"><path d="M1012.942 336.892c-9.14-10.798-22.562-16.99-36.82-16.99H47.877c-14.246 0-27.656 6.192-36.796 16.978C2.55 346.95-1.302 360.05.39 373.056l54.8 571.884c.05.442.097.882.157 1.312 4.82 36.08 35.46 63.284 71.277 63.284h770.754c37.656 0 69.057-28.838 71.43-64.595l54.8-571.87c1.693-13.005-2.15-26.107-10.667-36.177zm-115.375 601.13c-.036-.06-.214-.096-.19-.072l-770.12.108c-.31-.144-.764-.68-.906-1.098L74.066 391.502h875.867l-52.366 546.52zM933.55 182.42c-9.067-10.44-22.25-16.43-36.187-16.43H127.805c-13.924 0-27.168 6.216-36.342 17.05-9.222 10.906-13.208 25.104-10.964 38.502l21.475 139.595 70.763-10.882-17.336-112.677H869.78l-17.324 112.677 70.75 10.882 21.525-140c2.003-14.1-2.065-28.217-11.18-38.717zM827.413 30.92c-9.068-10.453-22.264-16.455-36.224-16.455H234.004c-13.924 0-27.168 6.216-36.342 17.05-9.234 10.906-13.208 25.104-10.952 38.598l21.476 137.21 70.727-11.073L261.66 86.053h501.623L745.135 195.95l70.63 11.668 22.79-137.95c2.027-14.123-2.04-28.237-11.145-38.75zm-165.08 514.483H361.668c-19.77 0-35.794 16.024-35.794 35.794s16.024 35.794 35.794 35.794h300.666c19.77 0 35.794-16.023 35.794-35.793-.002-19.77-16.024-35.794-35.794-35.794z"/></svg>