<svg viewBox="0 0 1024.002 1024.003" xmlns="http://www.w3.org/2000/svg"><path d="M873.967 150.034C777.233 53.3 648.813 0 512 0S246.767 53.3 150.033 150.035C53.3 246.768 0 375.188 0 512S53.298 777.235 150.033 873.97C246.767 970.702 375.187 1024 512 1024c83.305 0 165.77-20.353 239.003-59.173 18.466-9.652 25.39-32.525 15.738-50.99s-32.524-25.39-50.99-15.738c-62.32 32.943-132.615 50.36-203.75 50.36-240.682 0-436.46-195.777-436.46-436.46S271.32 75.543 512 75.543s436.46 195.777 436.46 436.46c0 80.996-22.663 127.16-41.758 151.5-20.354 26.23-47.633 41.13-74.91 41.13-37.98 0-76.38-30.217-76.38-97.785v-293.98c0-20.774-16.998-37.77-37.77-37.77s-37.77 16.997-37.77 37.77v16.577c-47.004-47.213-111.844-76.38-183.608-76.38-142.898-.21-259.148 116.04-259.148 258.938S353.366 771.15 496.264 771.15c25.39 0 50.36-3.567 74.282-10.91 19.934-5.876 31.266-27.07 25.39-47.004s-27.07-31.266-47.003-25.39c-16.997 5.036-34.833 7.764-52.67 7.764-101.14 0-183.606-82.256-183.606-183.607 0-101.14 82.256-183.607 183.607-183.607S679.87 410.652 679.87 512.003v94.846c0 113.73 76.38 173.324 151.922 173.324 50.57 0 99.672-25.6 134.505-70.295 37.77-48.473 57.705-116.88 57.705-197.876 0-136.813-53.298-265.233-150.033-361.967z"/></svg>