<svg viewBox="0 0 1024 1024.003" xmlns="http://www.w3.org/2000/svg"><path d="M512 313.54c-179.628 0-325.768 146.137-325.768 325.765S332.372 965.073 512 965.073s325.768-146.138 325.768-325.766S691.628 313.54 512 313.54zm0 584.823c-142.848 0-259.058-116.206-259.058-259.056S369.152 380.25 512 380.25c142.838 0 259.058 116.205 259.058 259.055S654.848 898.363 512 898.363zm1.112-818.31c-117.098 0-212.36 95.262-212.36 212.36 0 41.25 11.428 80.908 33.054 114.708l56.18-35.945c-14.742-23.038-22.536-50.266-22.536-78.752 0-80.318 65.332-145.65 145.65-145.65 80.308 0 145.65 65.342 145.65 145.65 0 28.142-7.57 54.27-22.536 77.64l56.204 35.946c21.936-34.28 33.054-72.503 33.054-113.597 0-117.098-95.262-212.36-212.36-212.36zM478.64 349.12h66.7v583.72h-66.7V349.12zm429.174-11.123c-18.424 0-33.356 14.932-33.356 33.356v117.854h-93.394c-18.424 0-33.356 14.932-33.356 33.356s14.932 33.356 33.356 33.356h126.75c18.434 0 33.354-14.933 33.356-33.357v-151.21c0-18.424-14.932-33.356-33.356-33.356zM965.63 547.02c-18.424 0-33.356 14.933-33.356 33.357v82.276H804.412c-18.424 0-33.356 14.932-33.356 33.356s14.932 33.355 33.356 33.355h161.216c18.424 0 33.356-14.932 33.358-33.358v-115.63c0-18.424-14.932-33.356-33.356-33.356zm-66.714 260.17H725.47c-18.424 0-33.356 14.933-33.356 33.357s14.932 33.356 33.356 33.356h140.092v116.742c0 18.424 14.932 33.356 33.356 33.356s33.356-14.93 33.354-33.355V840.547c0-18.424-14.932-33.356-33.356-33.356zm-655.98-317.983h-93.394V371.353c0-18.424-14.932-33.356-33.356-33.356S82.83 352.93 82.83 371.353v151.21c0 18.424 14.932 33.356 33.356 33.356h126.75c18.424 0 33.356-14.933 33.356-33.357s-14.932-33.356-33.356-33.356zM219.59 662.655H91.728V580.38c0-18.425-14.932-33.357-33.356-33.357s-33.356 14.932-33.356 33.356v115.63c0 18.423 14.932 33.355 33.356 33.355h161.216c18.422 0 33.354-14.932 33.358-33.354 0-18.423-14.932-33.355-33.356-33.355zm78.938 144.536H125.082c-18.424 0-33.356 14.933-33.356 33.357v150.098c0 18.424 14.932 33.356 33.356 33.356 18.422 0 33.354-14.93 33.354-33.355V873.903h140.092c18.424 0 33.356-14.932 33.356-33.356s-14.932-33.356-33.356-33.356zM462.2 105.39L366.584 9.776c-13.02-13.03-34.144-13.03-47.164 0-13.03 13.02-13.03 34.144 0 47.164l95.616 95.615c6.504 6.516 15.044 9.774 23.582 9.774 8.54 0 17.078-3.26 23.582-9.775 13.03-13.02 13.03-34.144 0-47.164zM704.582 9.774c-13.03-13.03-34.134-13.03-47.164 0l-97.842 97.842c-13.032 13.02-11.936 29.858 1.094 42.878 6.516 6.514 19.236 12.362 27.774 12.362 8.54 0 11.78-1.56 18.296-8.076l97.842-97.843c13.03-13.02 13.03-34.144 0-47.164z"/></svg>