<svg viewBox="0 0 1024 1024.003" xmlns="http://www.w3.org/2000/svg"><path d="M949.976 98.7H74.024c-34.014 0-61.686 27.67-61.686 61.685v801.928c0 34.016 27.672 61.688 61.686 61.688h875.952c34.014 0 61.686-27.67 61.686-61.685V160.387c0-34.014-27.672-61.688-61.686-61.688zm-12.338 851.277H86.362V172.723H937.64v777.254zM49.35 345.447h925.302v74.024H49.35v-74.023zM271.422 0C250.98 0 234.41 16.57 234.41 37.014V234.41c0 20.443 16.57 37.013 37.012 37.013s37.012-16.57 37.012-37.012V37.014C308.434 16.57 291.864 0 271.422 0zm493.494 0c-20.442 0-37.012 16.57-37.012 37.013V234.41c0 20.443 16.57 37.013 37.012 37.013s37.012-16.57 37.012-37.012V37.014C801.928 16.57 785.358 0 764.916 0zM653.88 740.24H382.458c-20.442 0-37.012 16.57-37.012 37.013s16.57 37.012 37.012 37.012H653.88c20.442 0 37.012-16.57 37.012-37.012s-16.57-37.012-37.012-37.012zm0-172.72H382.458c-20.442 0-37.012 16.57-37.012 37.01s16.57 37.013 37.012 37.013H653.88c20.442 0 37.012-16.568 37.012-37.012s-16.57-37.01-37.012-37.01z"/></svg>