<svg viewBox="0 0 1024 1024.003" xmlns="http://www.w3.org/2000/svg"><path d="M690.308 320.957H333.692c-21.104 0-38.208 17.104-38.208 38.208s17.104 38.208 38.208 38.208h356.616c21.104 0 38.208-17.104 38.208-38.208s-17.104-38.208-38.208-38.208zm0 152.836H333.692c-21.104 0-38.208 17.104-38.208 38.208s17.104 38.21 38.208 38.21h356.616c21.104 0 38.208-17.105 38.208-38.21s-17.104-38.207-38.208-38.207zm0 152.834H333.692c-21.104 0-38.208 17.104-38.208 38.208s17.104 38.208 38.208 38.208h356.616c21.104 0 38.208-17.104 38.208-38.208s-17.104-38.208-38.208-38.208zM512 0C234.604 0 8.916 225.69 8.916 503.086c0 63.032 11.59 124.702 34.502 183.416 17.806 45.1 41.394 86.53 70.266 123.493L45.1 970.8c-5.502 12.89-3.502 27.74 5.196 38.72C57.62 1018.766 68.7 1024 80.238 1024c2.178 0 4.382-.177 6.572-.573l259.834-45.342c52.04 18.646 107.61 28.084 165.356 28.084 277.398 0 503.084-225.69 503.084-503.085S789.398 0 512 0zm0 929.753c-52.078 0-101.89-8.992-148.046-26.734-6.458-2.485-13.474-3.185-20.276-1.975L142.99 936.07l50.08-117.417c5.732-13.436 3.298-28.976-6.266-40.018-30.286-34.948-54.614-75.386-72.24-120.052-19.398-49.684-29.23-102.006-29.23-155.498C85.334 267.82 276.734 76.42 512 76.42s426.666 191.4 426.666 426.665S747.266 929.753 512 929.753z"/></svg>