<svg viewBox="0 0 1024 1024.003" xmlns="http://www.w3.org/2000/svg"><path d="M1013.526 485.66l-236.8-250.88c-14.555-15.437-38.85-16.14-54.285-1.575-15.41 14.554-16.127 38.86-1.56 54.284L932.81 512l-211.93 224.54c-14.567 15.423-13.85 39.717 1.56 54.283 7.425 7.002 16.91 10.47 26.357 10.47 10.202 0 20.39-4.044 27.93-12.02l236.8-250.893c13.963-14.808 13.963-37.926 0-52.722zM303.134 736.53L91.217 512l211.917-224.525c14.554-15.424 13.85-39.732-1.574-54.284-15.412-14.554-39.732-13.85-54.284 1.574l-236.8 250.88c-13.965 14.797-13.965 37.927 0 52.725l236.812 250.893c7.552 8 17.728 12.032 27.93 12.032 9.446 0 18.932-3.482 26.342-10.484 15.438-14.554 16.128-38.86 1.574-54.284zm270.99-631.134c-20.953-3.174-40.563 11.212-43.763 32.166L417.72 874.846c-3.2 20.966 11.2 40.564 32.166 43.764 1.972.294 3.916.436 5.85.436 18.65 0 35.008-13.606 37.914-32.602L606.29 149.16c3.2-20.968-11.2-40.564-32.165-43.764z"/></svg>