<svg viewBox="0 0 1024 1024.003" xmlns="http://www.w3.org/2000/svg"><path d="M990.536 699.4H324.602V33.464C324.602 14.98 309.62 0 291.138 0c-18.484 0-33.464 14.98-33.464 33.465v699.398c0 18.484 14.98 33.464 33.464 33.464h699.398c18.484 0 33.464-14.98 33.464-33.464s-14.98-33.464-33.464-33.464zm-257.674 0c-18.484 0-33.464 14.98-33.464 33.463v257.674c0 18.484 14.98 33.464 33.464 33.464s33.464-14.98 33.464-33.463V732.863c0-18.482-14.98-33.464-33.464-33.464zm0-441.725H392.644c-18.484 0-33.464 14.98-33.464 33.464s14.98 33.463 33.464 33.463h306.754V635.82c0 18.483 14.98 33.463 33.464 33.463s33.464-14.98 33.464-33.464V291.14c0-18.485-14.98-33.465-33.464-33.465zm-440.61 0H33.464C14.98 257.675 0 272.655 0 291.14s14.98 33.463 33.464 33.463h258.788c18.484 0 33.464-14.98 33.464-33.464s-14.98-33.465-33.464-33.465zM884.8 133.623c-13.074-13.074-34.244-13.074-47.318 0L268.594 702.51c-13.074 13.063-13.074 34.257 0 47.32 6.526 6.535 15.092 9.803 23.66 9.803 8.566 0 17.134-3.268 23.66-9.804L884.8 180.94c13.074-13.06 13.074-34.255 0-47.317z"/></svg>