<svg viewBox="0 0 1024 1024.003" xmlns="http://www.w3.org/2000/svg"><path d="M707.148 353.053l-80.156-2.94-17.378 474.568 80.156 2.93zm-235.252-1.47h80.208v474.57h-80.208v-474.57zM414.372 824.67L396.994 350.1l-80.156 2.94 17.38 474.57zM34.758 153.734v80.208h83.578l66.304 753.47c1.818 20.706 19.158 36.588 39.944 36.588h573.48c20.788 0 38.14-15.893 39.944-36.6l66.306-753.457h84.928v-80.208H34.758zM761.33 943.793H261.308l-62.456-709.85H823.8l-62.47 709.85zM643.008 0H380.992c-36.856 0-66.84 29.985-66.84 66.84v127h80.208V80.21h235.28v113.63h80.208v-127c0-36.855-29.984-66.84-66.84-66.84z"/></svg>