<svg viewBox="0 0 1024 1024.003" xmlns="http://www.w3.org/2000/svg"><path d="M773.378 608.807c-71.174 0-129.076 57.902-129.076 129.076S702.204 866.96 773.378 866.96c71.186 0 129.076-57.903 129.076-129.077s-57.902-129.076-129.076-129.076zm0 193.614c-35.592 0-64.538-28.945-64.538-64.537s28.946-64.538 64.538-64.538 64.538 28.946 64.538 64.538c0 35.594-28.946 64.538-64.538 64.538zM332.37 608.808c-71.174 0-129.076 57.902-129.076 129.076S261.196 866.96 332.37 866.96s129.076-57.903 129.076-129.077-57.902-129.076-129.076-129.076zm0 193.614c-35.592 0-64.538-28.945-64.538-64.537s28.946-64.538 64.538-64.538c35.582 0 64.538 28.946 64.538 64.538 0 35.594-28.946 64.538-64.538 64.538zM860.3 239.35c-5.486-10.895-16.64-17.77-28.838-17.77h-169.95v64.54h150.05l87.868 174.767 57.676-29L860.3 239.35zM432.404 706.69h244.168v64.54H432.404v-64.54zm-196.842 0H123.698c-17.824 0-32.268 14.447-32.268 32.27 0 17.823 14.446 32.267 32.268 32.267h111.866c17.824 0 32.268-14.446 32.268-32.268 0-17.825-14.446-32.27-32.27-32.27zm781.662-197.27l-63.472-81.75c-6.098-7.873-15.51-12.477-25.482-12.477H693.782V189.31c0-17.823-14.446-32.267-32.268-32.267H123.698c-17.824 0-32.268 14.446-32.268 32.268s14.446 32.27 32.268 32.27h505.546v225.88c0 17.825 14.446 32.27 32.268 32.27h250.956l46.994 60.535v166.422h-89.278c-17.824 0-32.268 14.446-32.268 32.268 0 17.824 14.446 32.268 32.268 32.268H991.73c17.824 0 32.268-14.446 32.27-32.268V529.21c0-7.163-2.388-14.133-6.776-19.79zm-783.812 33.775H84.974c-17.824 0-32.268 14.446-32.268 32.268 0 17.824 14.446 32.268 32.268 32.268H233.41c17.824 0 32.268-14.445 32.268-32.267.002-17.822-14.444-32.268-32.266-32.268zM307.63 416.27H32.268C14.446 416.27 0 430.714 0 448.54s14.446 32.267 32.268 32.267H307.63c17.824 0 32.268-14.446 32.268-32.268s-14.444-32.27-32.268-32.27zm52.706-126.925H84.974c-17.824 0-32.268 14.446-32.268 32.268 0 17.824 14.446 32.268 32.268 32.268h275.362c17.824 0 32.268-14.445 32.268-32.267.002-17.822-14.444-32.268-32.268-32.268z"/></svg>