<svg viewBox="0 0 1024.001 1024.003" xmlns="http://www.w3.org/2000/svg"><path d="M966.113 163.11C954.62 72.204 888.79 17.87 789.733 17.87H362.58c-46.184 0-87.562 20.897-115.148 53.916-19.226-17.345-44.722-27.794-72.516-27.794h-65.83C48.902 43.992 0 92.892 0 152.87v375.327c0 60.186 48.9 109.087 109.087 109.087h65.83c29.047 0 55.38-11.494 74.814-29.884l17.346 5.433c.418 0 .627.21 1.045.21 6.48 1.88 158.408 46.6 158.408 175.75v174.5c0 15.672 10.24 29.465 25.078 34.272 1.88.627 28.003 8.568 61.65 8.568 29.256 0 64.156-6.06 94.04-28.003 40.75-30.093 61.65-80.457 61.65-149.63V683.888h210.86c79.62 0 144.195-64.784 144.195-144.196 0-8.567-.626-17.135-2.09-25.286L966.114 163.11zM174.916 565.813h-65.83c-20.688 0-37.406-16.718-37.406-37.407V152.87c0-20.69 16.718-37.407 37.407-37.407h65.83c20.688 0 37.406 16.718 37.406 37.407v375.327c0 20.69-16.718 37.616-37.407 37.616zm704.888 46.603H633c-19.854 0-35.945 16.09-35.945 35.736V828.71c0 45.14-10.867 76.07-32.183 91.742-19.017 14.21-46.184 15.673-66.873 13.584V789.004c0-180.558-194.77-240.327-210.025-244.715l-5.224-1.673c.628-4.807 1.046-9.613 1.046-14.42V168.125c0-43.26 35.318-78.576 78.576-78.576h427.154c95.086 0 102.818 62.484 105.326 82.964 0 .418.21.836.21 1.254l53.08 333.74 2.926 17.972c.836 4.598 1.045 9.404 1.045 14.21.21 40.125-32.392 72.726-72.307 72.726z"/></svg>