<svg viewBox="0 0 1024 1024.003" xmlns="http://www.w3.org/2000/svg"><path d="M896.78 294.645l-300.8-284.16C588.838 3.75 579.418 0 569.6 0h-416c-21.21 0-38.4 17.19-38.4 38.4v947.2c0 21.21 17.19 38.4 38.4 38.4h716.8c21.21 0 38.4-17.19 38.4-38.4V322.56c0-10.56-4.352-20.66-12.02-27.915zM832 947.2H192V76.8h362.33L832 339.11V947.2zm-140.8-320H320c-21.21 0-38.4 17.19-38.4 38.4S298.79 704 320 704h371.2c21.21 0 38.4-17.19 38.4-38.4s-17.19-38.4-38.4-38.4zM537.6 473.6H320c-21.21 0-38.4 17.19-38.4 38.4s17.19 38.4 38.4 38.4h217.6c21.21 0 38.4-17.19 38.4-38.4s-17.19-38.4-38.4-38.4zm153.6 307.2H320c-21.21 0-38.4 17.19-38.4 38.4s17.19 38.4 38.4 38.4h371.2c21.21 0 38.4-17.19 38.4-38.4s-17.19-38.4-38.4-38.4zm-89.6-486.4v-256h-76.8v294.4c0 21.21 17.19 38.4 38.4 38.4h307.2v-76.8H601.6z"/></svg>