<svg viewBox="0 0 1024 1024.003" xmlns="http://www.w3.org/2000/svg"><path d="M512 0C229.024 0 0 228.996 0 512c0 282.977 228.994 512 512 512 282.976 0 512-228.993 512-512C1024 229.026 795.006 0 512 0zm0 955.735C267.326 955.735 68.266 756.677 68.266 512S267.326 68.268 512 68.268 955.734 267.327 955.734 512 756.674 955.736 512 955.736zM499.014 623.9c-24.244 0-43.87 20.203-43.87 44.45 0 23.665 19.048 44.447 43.87 44.447s44.448-20.782 44.448-44.448c0-24.247-20.204-44.45-44.448-44.45zm7.504-336.54c-77.928 0-113.72 46.18-113.72 77.35 0 22.515 19.052 32.905 34.636 32.905 31.172 0 18.474-44.448 77.354-44.448 28.864 0 51.954 12.698 51.954 39.254 0 31.17-32.326 49.07-51.376 65.23-16.742 14.43-38.678 38.1-38.678 87.745 0 30.014 8.082 38.676 31.748 38.676 28.288 0 34.06-12.7 34.06-23.667 0-30.014.576-47.334 32.324-72.156 15.588-12.122 64.654-51.376 64.654-105.638s-49.066-95.25-122.956-95.25z"/></svg>