<svg viewBox="0 0 1024 1024.003" xmlns="http://www.w3.org/2000/svg"><path d="M512 0c-19.962 0-36.142 16.18-36.142 36.143v658.974c0 19.962 16.18 36.142 36.142 36.142s36.142-16.18 36.142-36.143V36.143C548.142 16.18 531.962 0 512 0zm243.266 478.895c-13.614-14.576-36.478-15.384-51.08-1.758L512 656.517 319.814 477.15c-14.588-13.615-37.454-12.83-51.08 1.757s-12.83 37.454 1.758 51.08l216.848 202.39c6.94 6.482 15.806 9.722 24.66 9.722s17.722-3.24 24.66-9.735l216.848-202.39c14.576-13.626 15.372-36.49 1.758-51.08zm154.286-250H692.706c-19.962 0-36.142 16.18-36.142 36.142s16.18 36.142 36.142 36.142h180.706v650.54H150.588V301.178h180.706c19.962 0 36.142-16.18 36.142-36.142s-16.18-36.142-36.142-36.142H114.448c-19.962 0-36.142 16.18-36.142 36.142V987.86c0 19.96 16.18 36.14 36.142 36.14h795.106c19.962 0 36.142-16.18 36.142-36.14V265.036c-.002-19.962-16.182-36.142-36.144-36.142z"/></svg>