<svg viewBox="0 0 1024 1024.003" xmlns="http://www.w3.org/2000/svg"><path d="M914 61.745H110c-60.654 0-110 49.346-110 110v528c0 60.654 49.346 110 110 110h259.028c3.162 0 6.168 1.518 8.046 4.064l94.506 128.125c9.47 12.842 24.052 20.248 40.008 20.322h.24c15.864 0 30.418-7.264 39.958-19.954l96.65-128.568c1.878-2.5 4.868-3.992 7.994-3.992H914c60.654 0 110-49.346 110-110v-528c0-60.654-49.346-109.998-110-109.998zm50 638c0 4.724-.672 9.29-1.902 13.624l-308.21-270.177L964 185.837zm-50-578c9.146 0 17.72 2.48 25.102 6.786L544.016 456.404c-18.504 15.356-45.358 15.356-63.862 0L84.998 128.473c7.36-4.27 15.898-6.728 25.002-6.728zM61.902 713.37c-1.23-4.335-1.902-8.903-1.902-13.625V185.697L370.196 443.12zm538.576 64.31l-88.582 117.835-86.536-117.32c-13.136-17.816-34.198-28.452-56.334-28.452h-257.6L416.95 481.92l24.886 20.653c20.354 16.892 45.296 25.334 70.248 25.334 24.944 0 49.896-8.448 70.246-25.334l24.798-20.58 305.442 267.75H656.43c-21.882.002-42.8 10.444-55.952 27.938z"/></svg>