<svg viewBox="0 0 1024 1024.003" xmlns="http://www.w3.org/2000/svg"><path d="M1024 406.12v-.09c0-.853-.048-1.7-.118-2.54-.02-.23-.05-.46-.074-.69-.072-.66-.164-1.313-.278-1.96-.042-.245-.084-.49-.132-.73-.16-.79-.342-1.575-.564-2.345-.022-.076-.04-.154-.062-.23-.234-.788-.506-1.562-.802-2.326-.112-.293-.236-.58-.358-.87-.218-.515-.452-1.025-.7-1.527-.144-.292-.282-.586-.434-.874-.374-.703-.772-1.39-1.2-2.063-.16-.25-.336-.49-.504-.736-.334-.49-.68-.97-1.042-1.437-.194-.25-.388-.498-.59-.744-.526-.64-1.07-1.263-1.65-1.857l-.136-.14c-.62-.63-1.28-1.224-1.958-1.8-.084-.072-.156-.152-.242-.222L962 340.49V210.034c0-38.598-31.402-70-70-70H720.448l-138.2-114.69c-40.708-33.776-99.792-33.776-140.496 0l-138.2 114.688H132c-38.598 0-70 31.403-70 70v130.46l-51.158 42.455c-.084.07-.158.15-.242.222-.678.576-1.338 1.17-1.958 1.8l-.136.14c-.578.594-1.124 1.218-1.65 1.856-.202.244-.396.494-.59.744-.362.47-.708.95-1.042 1.438-.168.246-.344.486-.504.736-.428.67-.826 1.36-1.2 2.063-.154.288-.292.582-.434.874-.248.502-.48 1.012-.7 1.528-.122.288-.246.576-.358.868-.296.764-.57 1.536-.802 2.326-.022.075-.04.15-.062.23-.222.77-.404 1.553-.564 2.343-.048.244-.09.486-.132.73-.114.648-.206 1.302-.278 1.962-.024.23-.054.458-.074.688-.068.838-.116 1.684-.116 2.538v507.96c0 31.437 13.276 59.813 34.492 79.88.602.6 1.206 1.197 1.85 1.74 19.514 17.627 45.352 28.38 73.658 28.38h804c28.308 0 54.148-10.755 73.664-28.387.638-.54 1.238-1.13 1.836-1.728 21.22-20.066 34.5-48.446 34.5-79.886V406.136v-.016zM132 200.03h760c5.514 0 10 4.487 10 10v233.365L543.932 740.55c-18.502 15.353-45.362 15.35-63.864 0L122 443.394V210.03c0-5.513 4.486-10 10-10zM60 913.99V469.91l12.904 10.71c.008.007.016.015.024.02l292.938 243.103L63.072 931.247C61.086 925.867 60 920.053 60 913.99zm353.874-150.407l27.878 23.136c40.704 33.78 99.792 33.777 140.496 0l27.878-23.137 292.44 200.408H121.432zm244.26-39.838L951.07 480.64c.008-.005.016-.013.024-.02l12.904-10.71v444.08c0 6.063-1.086 11.877-3.072 17.257zM480.068 71.517c18.502-15.354 45.362-15.354 63.864 0l82.562 68.516H397.506zM263 329.99c0 16.57 13.432 30 30 30h284c16.568 0 30-13.43 30-30s-13.432-30-30-30H293c-16.568 0-30 13.433-30 30zm30 150h438c13.976 0 25.686-9.57 29.018-22.507.618-2.4.982-4.9.982-7.492 0-16.567-13.432-30-30-30H293c-16.568 0-30 13.433-30 30 0 2.593.364 5.095.982 7.493 3.332 12.938 15.042 22.508 29.018 22.508z"/></svg>