<svg viewBox="0 0 1024.0006 1024.003" xmlns="http://www.w3.org/2000/svg"><path d="M898.993 122.36H125.22C56.146 122.36 0 178.507 0 247.58v528.843c0 69.072 56.147 125.22 125.22 125.22h773.56c69.073 0 125.22-56.148 125.22-125.22V247.79c.212-69.07-55.935-125.43-125.007-125.43zm68.012 654.063c0 37.502-30.51 68.012-68.012 68.012H125.22c-37.503 0-68.013-30.51-68.013-68.012V247.79c0-37.5 30.51-68.01 68.012-68.01h773.56c37.503 0 68.013 30.51 68.013 68.01v528.633h.212zM645.8 505.433l250.438-224.59c11.653-10.593 12.713-28.602 2.12-40.467-10.595-11.653-28.604-12.713-40.47-2.12L512.53 548.234l-67.377-60.173c-.212-.212-.424-.424-.424-.636-1.484-1.483-2.967-2.754-4.662-4.026L165.9 238.045c-11.865-10.594-29.875-9.534-40.468 2.33s-9.534 29.876 2.33 40.47L381.17 507.34 128.823 743.582c-11.44 10.806-12.077 28.815-1.27 40.468 5.72 5.933 13.347 9.11 20.975 9.11 6.992 0 13.984-2.542 19.493-7.627L424.18 545.9l69.496 62.08c5.51 4.873 12.29 7.204 19.07 7.204s13.77-2.543 19.068-7.416l71.402-63.987 254.676 241.964c5.51 5.297 12.713 7.84 19.705 7.84 7.628 0 15.043-2.967 20.764-8.9 10.807-11.44 10.383-29.663-1.058-40.468L645.804 505.43z"/></svg>