<svg viewBox="0 0 1024.0005 1024.003" xmlns="http://www.w3.org/2000/svg"><path d="M1012.284 426.354L628.177 42.244c-15.61-15.61-40.95-15.62-56.57 0l-384.11 384.11c-15.61 15.614-15.615 40.95 0 56.568l1.013 1.012L11.716 660.726c-15.622 15.622-15.622 40.948 0 56.568L276.173 981.75c7.502 7.503 17.676 11.717 28.286 11.717h122.122c10.61 0 20.784-4.214 28.286-11.716l115.73-115.73 1.012 1.013c15.61 15.61 40.95 15.62 56.57 0l384.108-384.11c15.616-15.62 15.616-40.947-.004-56.57zM410.01 913.467h-88.984L96.57 689.01l148.506-148.507 268.95 268.947-104.017 104.016zM599.89 782.18l-1-1.003-.01-.01L273.363 455.65l-.02-.018-.994-.994 327.54-327.54 327.542 327.54-327.54 327.54z"/></svg>