<svg viewBox="0 0 1024 1024.003" xmlns="http://www.w3.org/2000/svg"><path d="M904 240H788v-40c0-66.167-53.832-120-120-120h-76c-30.71 0-58.752 11.61-80 30.655C490.752 91.61 462.71 80 432 80h-76c-30.71 0-58.752 11.61-80 30.655C254.752 91.61 226.71 80 196 80h-76C53.832 80 0 133.834 0 200v624c0 66.17 53.832 120 120 120h784c66.168 0 120-53.83 120-120V360c0-66.167-53.832-120-120-120zm-352-40c0-22.055 17.944-40 40-40h76c22.056 0 40 17.945 40 40v40H552zm-196-40h76c22.056 0 40 17.945 40 40v40H356c-22.056 0-40-17.943-40-40s17.944-40 40-40zm588 664c0 22.057-17.944 40-40 40H120c-22.056 0-40-17.943-40-40V200c0-22.055 17.944-40 40-40h76c22.056 0 40 17.945 40 40 0 66.17 53.832 120 120 120h548c22.056 0 40 17.945 40 40z"/></svg>