<svg viewBox="0 0 1024 1024.003" xmlns="http://www.w3.org/2000/svg"><path d="M557.01 0H55.074c-20.844 0-37.74 16.895-37.74 37.74v456.65c0 20.843 16.894 37.74 37.74 37.74H557.01c20.844 0 37.74-16.895 37.74-37.74V37.74C594.75 16.896 577.854 0 557.01 0zm-37.752 456.65H92.8V75.48h426.458v381.17zM999.18 597.794L884.062 411.99 999.76 212.676c.39-.68.768-1.372 1.12-2.076 7.698-15.423 6.818-34.18-2.328-48.95-9.008-14.58-24.518-23.27-41.5-23.27h-400.04v75.48h354.776L807.4 393.674c-6.994 12.052-6.78 26.984.566 38.822l102.286 165.048H363.268V494.39h-75.48v140.895c0 20.844 16.894 37.74 37.74 37.74h631.508c18.292 0 35.06-10.102 43.752-26.342 8.518-15.928 7.638-35.05-1.608-48.888zM55.062 456.65c-20.844 0-37.74 16.893-37.74 37.74v491.87c0 20.845 16.894 37.74 37.74 37.74s37.74-16.88 37.74-37.74V494.39c-.002-20.845-16.896-37.74-37.74-37.74z"/></svg>