<svg viewBox="0 0 1024 1024.003" xmlns="http://www.w3.org/2000/svg"><path d="M785.926 399.195c49.92-41.404 81.772-103.874 81.772-173.646C867.696 101.184 766.516.004 642.15.004S416.606 101.185 416.606 225.55c0 16.255 1.744 32.11 5.028 47.4-12.844-2.28-26.056-3.475-39.544-3.475-124.366 0-225.544 101.18-225.544 225.544 0 69.765 31.846 132.23 81.758 173.635C98.678 725.58 0 862.79 0 1022.635h80.018c0-166.564 135.508-302.07 302.07-302.07 124.366 0 225.544-101.18 225.544-225.544 0-16.255-1.744-32.11-5.028-47.4 12.844 2.28 26.056 3.473 39.544 3.473 98.156 0 185.492 47.088 240.7 119.832l54.222-60.372c-40.076-48.636-91.932-87.208-151.144-111.358zM382.09 640.545c-80.242 0-145.526-65.282-145.526-145.526s65.284-145.527 145.526-145.527 145.526 65.284 145.526 145.526-65.284 145.525-145.526 145.525zm260.06-269.472c-80.242 0-145.526-65.282-145.526-145.526S561.908 80.023 642.15 80.023s145.526 65.282 145.526 145.526c0 80.245-65.282 145.523-145.526 145.523zm322.316 228.734l-277.924 309.44-156.84-149.298-55.168 57.96 216.504 206.087L1024 653.277z"/></svg>