<svg viewBox="0 0 1024 1024.003" xmlns="http://www.w3.org/2000/svg"><path d="M1023.96 170.654C1023.96 61.686 797.77 0 512 0S.037 61.687.037 170.655c0 25.692 12.587 48.754 35.55 69l348.42 457.36v284.244c0 35.157 40.137 55.224 68.26 34.13L622.923 887.4c10.743-8.056 17.065-20.7 17.065-34.13V697.014l348.42-457.36c22.967-20.245 35.552-43.306 35.552-69zM512 85.33c232.61 0 426.633 52.913 426.633 85.327 0 .724-.13 1.46-.322 2.204-3.06 1.48-6.095 3.375-9.054 5.743-25.122 20.104-74.562 38.087-139.435 51.648-72.38 14.35-165.528 24.95-266.513 25.69l-.656.007c-3.54.024-7.09.038-10.648.038-3.56 0-7.11-.014-10.65-.038l-.655-.006c-100.984-.74-194.133-11.34-266.514-25.69-64.875-13.56-114.313-31.543-139.435-51.647-2.962-2.37-5.994-4.266-9.055-5.742-.192-.74-.322-1.48-.322-2.203C85.368 138.24 279.393 85.33 512 85.33zm42.664 746.608l-85.328 63.995V725.28h85.328v106.658zm21.53-191.986h-128.39L196.33 309.847c83.745 19.94 188.755 30.736 303.944 31.422 3.9.025 7.807.04 11.725.04s7.824-.015 11.724-.04c115.19-.687 220.2-11.48 303.945-31.423L576.193 639.952z"/></svg>