<svg viewBox="0 0 1024 1024.003" xmlns="http://www.w3.org/2000/svg"><path d="M512 0C230.602 0 0 232.604 0 514c0 279.767 228.5 510 512 510 283.148 0 512-229.89 512-510C1024 232.604 793.398 0 512 0zm90 955c-28.797 6-59.398 9-90 9s-61.203-3-90-9V814.604c0-33.602 9-45.602 21-61.805 6.11-6.984 9.797-13.25 37.195-54.594L434 691C315.195 673.604 268.398 611.8 249.797 563.8c-24-64.195-11.398-144.602 31.805-195.594 6.602-7.805 12-21.008 7.203-34.805C279.797 305.796 281 262 287 245.195c31.813 4.547 64.523 27.336 91.805 43.805 12.57 7.337 19.164 5.4 25.195 6 21.922-4.562 56.117-15.6 108.602-15.6 32.398 0 66.602 4.796 100.203 14.397 6.008-.14 15.664 4.97 32.398-4.797 28.516-17.375 60.117-39.383 91.797-43.805 6 16.805 7.203 60.602-1.797 88.203-4.805 13.797.594 27 7.203 34.805 43.195 51 55.797 131.398 31.797 195.594C755.6 611.797 708.805 673.602 590 691l-46.195 7.203c28.32 42.734 31.305 47.86 37.203 54.594C593 769 602 781 602 814.602zm60-17.397v-123c0-34.203-7.203-57-16.805-73.805 91.203-24.594 156.008-78.602 184.805-156 30.602-81.594 16.805-178.797-34.203-246 9.008-40.195 9.008-104.398-12.594-134.398-9.602-13.195-22.805-20.398-39.602-20.398h-.6c-46.524 2.516-83.142 25.945-122.4 49.797-36-9.603-72.6-14.4-109.202-14.4-37.195 0-74.398 5.4-107.39 14.4-41.33-24.923-77.595-47.345-125.407-49.798-15 0-28.202 7.203-37.804 20.398-21.594 30-21.594 94.203-12.594 134.398-51.008 67.203-64.805 165-34.203 246 28.796 77.398 93.6 131.406 184.804 156-7.445 13.023-13.336 29.828-15.656 52.57-18.422 6.352-34.398 8.422-49.258 4.055-15.672-4.633-27.883-15.094-38.492-32.938-23.828-40.03-64.414-72.71-110.625-68.46l5.273 59.765c21.398-1.96 42.695 20.68 53.758 39.344 18.25 30.734 42.836 50.89 73.094 59.828 22.46 6.617 42.992 6.46 65.102 1.742v80.898C187.398 876.4 60 709.602 60 514 60 265.602 263.602 60 512 60s452 205.602 452 454c0 195.602-127.398 362.398-302 423.602z"/></svg>