<svg viewBox="0 0 1024 1024.003" xmlns="http://www.w3.org/2000/svg"><path d="M603.788 73.143h-182.14c-23.764 0-43.026 19.26-43.026 43.026V906.4c0 23.763 19.26 43.025 43.026 43.025h182.14c23.764 0 43.026-19.26 43.026-43.026V116.17c-.002-23.765-19.262-43.027-43.026-43.027zm-43.026 790.23h-96.09V159.195h96.09v704.178zm-335.596-433.12H43.026C19.26 430.253 0 449.515 0 473.28v434.553c0 23.764 19.26 43.026 43.026 43.026h182.14c23.764 0 43.026-19.247 43.026-43.027V473.28c-.002-23.765-19.262-43.027-43.026-43.027zM182.14 864.807H86.05V516.303h96.09v348.504zm798.834-536.38h-182.14c-23.764 0-43.026 19.26-43.026 43.026v536.382c0 23.764 19.26 43.026 43.026 43.026h182.14c23.778 0 43.026-19.245 43.026-43.025V371.45c0-23.763-19.26-43.023-43.026-43.023zm-43.024 536.38h-96.09v-450.33h96.09v450.33z"/></svg>