<svg viewBox="0 0 1024 1024.003" xmlns="http://www.w3.org/2000/svg"><path d="M934 122H90c-49.626 0-90 40.375-90 90v600c0 49.627 40.374 90 90 90h844c49.626 0 90-40.373 90-90V212c0-49.625-40.374-90-90-90zm30 690c0 16.543-13.458 30-30 30H90c-16.542 0-30-13.457-30-30V212c0-16.54 13.458-30 30-30h844c16.542 0 30 13.46 30 30v600zM300 482c-99.252 0-180 80.75-180 180v30c0 49.627 40.374 90 90 90h180c49.626 0 90-40.373 90-90v-30c0-99.25-80.748-180-180-180zm120 210c0 16.543-13.458 30-30 30H210c-16.542 0-30-13.457-30-30v-30c0-66.167 53.832-120 120-120s120 53.833 120 120v30zM300 242c-66.168 0-120 53.833-120 120s53.832 120 120 120 120-53.83 120-120-53.832-120-120-120zm0 180c-33.084 0-60-26.915-60-60s26.916-60 60-60 60 26.917 60 60-26.916 60-60 60zm574 240H574c-16.568 0-30 13.433-30 30s13.432 30 30 30h300c16.568 0 30-13.43 30-30s-13.432-30-30-30zm0-120H574c-16.568 0-30 13.433-30 30s13.432 30 30 30h300c16.568 0 30-13.43 30-30s-13.432-30-30-30zm0-120H574c-16.568 0-30 13.433-30 30s13.432 30 30 30h300c16.568 0 30-13.43 30-30s-13.432-30-30-30zm-60-120H634c-16.568 0-30 13.433-30 30s13.432 30 30 30h180c16.568 0 30-13.43 30-30s-13.432-30-30-30z"/></svg>