<svg viewBox="0 0 1024 1024.003" xmlns="http://www.w3.org/2000/svg"><path d="M1023.134 631.66c-.036-.18-.072-.357-.11-.533-.258-1.198-.556-2.396-.924-3.594-.098-.322-.218-.632-.322-.95-.174-.524-.338-1.05-.534-1.572l-127.99-341.307c-6.244-16.65-22.162-27.684-39.947-27.684h-127.99c-23.562 0-42.663 19.1-42.663 42.662s19.1 42.663 42.663 42.663h98.425l95.993 255.98H725.318c-23.562 0-42.663 19.102-42.663 42.664v85.327H341.347V639.99c0-23.563-19.1-42.664-42.663-42.664H104.267l95.993-255.98h98.425c23.562 0 42.663-19.102 42.663-42.664s-19.1-42.663-42.663-42.663h-127.99c-17.785 0-33.703 11.03-39.947 27.683L2.758 625.01c-.196.523-.358 1.045-.532 1.57-.106.32-.226.63-.324.955-.368 1.196-.664 2.394-.924 3.592-.038.178-.074.356-.11.536-.664 3.278-.932 6.546-.826 9.757v339.882c0 23.562 19.1 42.663 42.663 42.663H981.3c23.562 0 42.663-19.1 42.663-42.663V641.418c.106-3.212-.16-6.48-.826-9.76zm-84.5 306.976H85.367v-255.98H256.02v85.327c0 23.562 19.1 42.663 42.662 42.663h426.634c23.562 0 42.663-19.1 42.663-42.663v-85.328H938.63v255.98zM353.842 456.842l127.99 127.99c.01.008.017.012.023.02.988.986 2.024 1.92 3.104 2.806.494.406 1.014.758 1.522 1.138.605.454 1.2.924 1.83 1.346.607.406 1.237.758 1.86 1.13.57.342 1.13.7 1.72 1.016.633.34 1.285.626 1.933.932.616.29 1.22.598 1.85.86.628.26 1.27.47 1.906.698.675.244 1.343.502 2.035.712.636.192 1.284.334 1.928.496.706.178 1.402.376 2.122.518.744.148 1.496.234 2.244.342.627.09 1.243.21 1.88.272 1.387.136 2.777.21 4.167.21l.044.002.045-.002c1.39-.002 2.78-.074 4.166-.21.637-.062 1.255-.182 1.883-.272.75-.108 1.5-.194 2.244-.342.718-.142 1.416-.34 2.122-.518.643-.162 1.29-.304 1.927-.496.692-.21 1.36-.468 2.036-.712.636-.228 1.278-.438 1.906-.698.63-.262 1.235-.568 1.85-.86.647-.306 1.3-.592 1.933-.932.588-.316 1.148-.674 1.72-1.016.622-.372 1.252-.724 1.86-1.13.63-.422 1.224-.892 1.83-1.346.508-.38 1.028-.732 1.522-1.138 1.08-.886 2.118-1.82 3.104-2.806.007-.008.015-.012.02-.02l127.99-127.99c16.662-16.66 16.662-43.675 0-60.335s-43.674-16.66-60.334 0l-55.16 55.16V42.704c0-23.562-19.1-42.663-42.663-42.663S469.34 19.143 469.34 42.705v408.963l-55.16-55.16c-16.66-16.66-43.675-16.66-60.335 0s-16.66 43.673 0 60.335z"/></svg>