<svg viewBox="0 0 1024.001 1024.003" xmlns="http://www.w3.org/2000/svg"><path d="M879.625 340.04H668.808V195.456c0-69.367-20.685-119.72-61.636-149.6-64.353-47.22-151.897-20.684-155.658-19.43-14.835 4.597-25.072 18.595-25.072 34.266v174.462c0 129.123-151.897 174.044-158.374 175.716-.418.21-.836.21-1.045.418l-17.342 5.432c-19.64-18.595-45.965-29.878-74.798-29.878h-65.815C48.893 386.632.002 435.524.002 495.698v375.25c0 60.175 48.89 109.066 109.065 109.066h65.815c27.79 0 53.28-10.447 72.5-27.79 27.58 32.804 68.95 53.907 115.125 53.907h427.067c99.036 0 164.85-54.323 176.343-145.21l53.07-333.254 2.925-17.97c1.254-8.356 2.09-16.923 2.09-25.49-.21-79.395-64.98-144.165-144.376-144.165zM212.28 871.157c0 20.685-16.715 37.4-37.4 37.4h-65.815c-20.685 0-37.4-16.715-37.4-37.4v-375.46c0-20.685 16.715-37.4 37.4-37.4h65.815c20.685 0 37.4 16.715 37.4 37.4v375.46zm738.8-372.534l-55.994 351.85c0 .418-.21.836-.21 1.254-2.506 20.476-10.028 82.948-105.303 82.948H362.506c-43.25 0-78.56-35.31-78.56-78.56V495.7c0-4.807-.418-9.612-1.045-14.418l5.224-1.67c15.252-4.39 209.982-64.145 209.982-244.666V90.153c20.685-2.09 47.847-.627 66.86 13.58 21.312 15.88 32.176 46.594 32.176 91.724V375.98c0 19.848 16.088 35.936 35.937 35.936h246.545c40.116 0 72.5 32.594 72.5 72.5 0 4.598-.417 9.403-1.044 14.21z"/></svg>