<svg viewBox="0 0 1024 1024.003" xmlns="http://www.w3.org/2000/svg"><path d="M1012.698 161.4c-15.14-15.18-39.668-15.22-54.86-.105L663.323 454.62l-85.114-85.114c-15.155-15.14-39.693-15.154-54.847 0L178.153 714.72c-15.155 15.14-15.155 39.705 0 54.845 7.563 7.576 17.493 11.364 27.423 11.364 9.916 0 19.86-3.79 27.422-11.365l317.79-317.775 85.06 85.048c15.14 15.14 39.617 15.154 54.795.064l321.94-320.645c15.177-15.114 15.23-39.68.115-54.858zm-28.78 738.48H77.576V85.334c0-21.424-17.364-38.788-38.788-38.788S0 63.91 0 85.335v853.332c0 21.424 17.364 38.788 38.788 38.788h945.13c21.424 0 38.788-17.364 38.788-38.788s-17.364-38.788-38.788-38.788zm1.292-751.19H694.303c-21.424 0-38.788 17.363-38.788 38.787s17.364 38.788 38.788 38.788h252.122V478.4c0 21.41 17.364 38.787 38.788 38.787S1024 499.81 1024 478.385V187.478c0-21.424-17.365-38.788-38.79-38.788z"/></svg>