<svg viewBox="0 0 1024 1024.003" xmlns="http://www.w3.org/2000/svg"><path d="M424.522 780.486L303.86 901.15c-50.025 50.023-131.036 50.023-181.018.01-49.992-49.993-49.992-131.012-.01-180.994L364.2 478.8c49.98-49.985 131-49.985 180.982 0 16.662 16.66 43.678 16.66 60.34 0s16.662-43.68 0-60.34c-83.308-83.31-218.355-83.31-301.664 0L62.493 659.823c-83.308 83.308-83.308 218.355 0 301.664 83.298 83.352 218.355 83.352 301.708 0l120.664-120.663c16.662-16.662 16.662-43.678 0-60.34s-43.68-16.66-60.342.002zM961.508 62.48c-83.308-83.307-218.4-83.307-301.708 0L515.03 207.25c-16.66 16.662-16.66 43.678 0 60.34s43.68 16.662 60.34 0l144.77-144.77c49.982-49.983 131.043-49.983 181.027 0 49.982 49.983 49.982 131.002 0 180.984L635.693 569.28c-49.984 49.984-131 49.984-180.983 0-16.662-16.662-43.678-16.662-60.34 0s-16.662 43.678 0 60.34c83.308 83.308 218.355 83.308 301.664 0l265.474-265.474c83.308-83.308 83.308-218.357 0-301.666z"/></svg>