<svg viewBox="0 0 1024 1024.003" xmlns="http://www.w3.org/2000/svg"><path d="M844.8 0H179.2c-49.408 0-89.6 40.193-89.6 89.6v844.8c0 49.397 40.192 89.6 89.6 89.6h665.6c49.396 0 89.6-40.203 89.6-89.6V89.6c0-49.407-40.204-89.6-89.6-89.6zm12.8 934.4c0 6.94-5.862 12.8-12.8 12.8H179.2c-6.938 0-12.8-5.86-12.8-12.8V89.6c0-6.937 5.862-12.8 12.8-12.8h665.6c6.938 0 12.8 5.863 12.8 12.8v844.8zM627.2 435.2H384c-21.21 0-38.4 17.19-38.4 38.4S362.79 512 384 512h243.2c21.21 0 38.4-17.19 38.4-38.4s-17.19-38.4-38.4-38.4zm89.6 153.6H307.2c-21.21 0-38.4 17.19-38.4 38.4s17.19 38.4 38.4 38.4h409.6c21.21 0 38.4-17.19 38.4-38.4s-17.19-38.4-38.4-38.4zm0 153.6H307.2c-21.21 0-38.4 17.19-38.4 38.4s17.19 38.4 38.4 38.4h409.6c21.21 0 38.4-17.19 38.4-38.4s-17.19-38.4-38.4-38.4zm-89.6-704v128H396.8v-128H320v166.4c0 21.21 17.19 38.4 38.4 38.4h307.2c21.21 0 38.4-17.19 38.4-38.4V38.4h-76.8z"/></svg>