<svg viewBox="0 0 1024 1024.003" xmlns="http://www.w3.org/2000/svg"><path d="M839.442 392.93H184.558c-32.828 0-59.534 26.71-59.534 59.535v512c0 32.828 26.708 59.534 59.534 59.534h654.884c32.828 0 59.534-26.71 59.534-59.535v-512c0-32.826-26.706-59.534-59.534-59.534zm-11.908 559.63H196.466V464.372h631.07V952.56zM512 0C351.148 0 220.28 131.944 220.28 294.104v122.642h71.442V294.103c0-122.772 98.816-222.66 220.28-222.66s220.28 99.888 220.28 222.66v122.642h71.442V294.103C803.722 131.943 672.864 0 512 0zm-5.954 666.79c-19.73 0-35.72 15.993-35.72 35.72v83.35c0 19.73 15.992 35.72 35.72 35.72s35.72-15.993 35.72-35.72v-83.35c.002-19.727-15.99-35.72-35.72-35.72z"/></svg>