<svg viewBox="0 0 1024.007 1024.003" xmlns="http://www.w3.org/2000/svg"><path d="M1024.007 298.802v-.134c0-.29-.038-.57-.044-.858-.022-1.106-.06-2.212-.168-3.316-.054-.546-.154-1.078-.228-1.618-.114-.844-.22-1.686-.386-2.524-.125-.636-.3-1.254-.453-1.88-.178-.724-.34-1.45-.558-2.168-.203-.668-.45-1.312-.685-1.964-.234-.656-.45-1.316-.718-1.962-.286-.69-.618-1.352-.938-2.024-.28-.584-.537-1.174-.843-1.75-.4-.75-.852-1.468-1.296-2.19-.285-.466-.545-.944-.85-1.402-.613-.916-1.28-1.792-1.96-2.656-.18-.232-.333-.478-.52-.708-.015-.016-.03-.03-.045-.048-.892-1.086-1.836-2.13-2.828-3.122-.534-.536-1.108-1.012-1.666-1.514-.47-.424-.92-.868-1.41-1.27-.675-.556-1.385-1.052-2.087-1.562-.42-.304-.822-.63-1.252-.92-.677-.454-1.38-.85-2.077-1.262-.504-.298-.994-.616-1.51-.894-.618-.332-1.256-.612-1.888-.91-.634-.302-1.258-.62-1.908-.89-.54-.224-1.092-.4-1.64-.6-.762-.28-1.518-.574-2.302-.812-.494-.15-1-.254-1.498-.386-.84-.222-1.676-.458-2.536-.628-.625-.126-1.26-.192-1.89-.288-.737-.112-1.463-.254-2.21-.328-1.4-.14-2.803-.21-4.21-.212-.02 0-.04-.004-.063-.004H938.67v-85.33c0-23.564-19.1-42.666-42.665-42.666H853.34V42.668c0-23.564-19.103-42.666-42.667-42.666H213.34c-23.564 0-42.666 19.102-42.666 42.666v85.334h-42.666c-23.564 0-42.666 19.102-42.666 42.666v85.334H42.674c-.022 0-.042.004-.064.004-1.406.002-2.81.072-4.208.212-.748.074-1.474.216-2.21.328-.632.096-1.266.164-1.892.288-.86.172-1.694.406-2.536.628-.5.132-1.004.236-1.498.386-.782.238-1.538.532-2.302.812-.546.2-1.1.376-1.64.6-.652.27-1.276.588-1.91.89-.63.298-1.268.578-1.886.908-.518.278-1.008.596-1.514.896-.696.41-1.4.808-2.076 1.26-.432.29-.836.618-1.256.922-.702.508-1.41 1.004-2.084 1.558-.494.406-.95.856-1.426 1.284-.552.498-1.12.968-1.65 1.5-.994.994-1.938 2.036-2.83 3.124l-.042.046c-.184.226-.334.468-.514.696-.682.868-1.352 1.748-1.968 2.668-.304.456-.562.93-.846 1.392-.446.726-.898 1.446-1.302 2.198-.306.572-.562 1.16-.84 1.742-.322.674-.656 1.338-.942 2.032-.266.644-.482 1.302-.716 1.954-.234.656-.484 1.302-.686 1.972-.216.714-.378 1.438-.556 2.16-.154.628-.33 1.248-.456 1.888-.164.834-.268 1.672-.384 2.512-.074.544-.176 1.078-.23 1.63-.106 1.098-.144 2.196-.166 3.296-.006.294-.044.58-.044.876V981.33c0 23.565 19.102 42.667 42.666 42.667H981.33c23.564 0 42.666-19.102 42.666-42.666V298.845c.01-.014.01-.028.01-.042zm-768-213.467h512V128h-512V85.336zm-85.332 128H853.34V256H170.675v-42.665zm691.138 128L512.008 627.538 162.2 341.333h699.614zM85.34 938.666v-549.96L484.99 715.69c15.718 12.86 38.32 12.86 54.036 0L938.67 388.707V938.67H85.34zM810.674 768h-128c-23.564 0-42.666 19.103-42.666 42.667s19.102 42.666 42.666 42.666h128c23.564 0 42.666-19.102 42.666-42.666S834.236 768 810.672 768z"/></svg>