<svg viewBox="0 0 1024 1024.003" xmlns="http://www.w3.org/2000/svg"><path d="M847.744 213.335H554.666V42.667C554.666 19.103 535.564 0 512 0s-42.666 19.103-42.666 42.667v170.666h-256C95.518 213.335 0 308.853 0 426.667V768c0 23.565 19.102 42.667 42.666 42.667H384v170.666c0 23.564 19.102 42.666 42.666 42.666h170.666c23.564 0 42.666-19.103 42.666-42.667V810.667h341.334c23.564 0 42.666-19.102 42.666-42.666V389.59c.002-97.335-78.92-176.255-176.254-176.255zM85.334 426.667c0-70.686 57.314-128 128-128s128 57.314 128 128v298.666h-256V426.667zm469.332 512h-85.334v-128h85.334v128zm384-213.332H426.668V426.667c0-2.69-.066-5.366-.166-8.032-.02-.534-.038-1.068-.06-1.6-.114-2.578-.272-5.146-.478-7.7-.038-.468-.084-.932-.124-1.398-.212-2.428-.458-4.846-.75-7.25-.034-.274-.06-.552-.094-.826-.32-2.55-.696-5.085-1.106-7.61-.088-.54-.176-1.077-.268-1.615-.426-2.502-.886-4.992-1.398-7.462-.07-.34-.15-.676-.222-1.016-.49-2.306-1.018-4.596-1.58-6.874-.1-.404-.194-.812-.296-1.216-.614-2.422-1.274-4.824-1.97-7.212-.148-.506-.3-1.01-.45-1.514-.728-2.425-1.484-4.84-2.294-7.23-.044-.127-.09-.25-.134-.38-.788-2.31-1.624-4.6-2.49-6.873-.174-.456-.344-.914-.52-1.37-.89-2.29-1.816-4.562-2.782-6.814-.188-.44-.384-.878-.576-1.316-.956-2.188-1.94-4.36-2.966-6.508-.076-.16-.148-.325-.226-.485-1.078-2.244-2.206-4.46-3.36-6.66-.242-.462-.484-.924-.73-1.384-1.152-2.155-2.332-4.29-3.554-6.4-.194-.337-.396-.67-.592-1.003-1.154-1.968-2.336-3.914-3.552-5.84-.192-.304-.378-.612-.572-.916-1.31-2.055-2.66-4.083-4.04-6.09-.296-.43-.596-.86-.896-1.29-1.406-2.017-2.836-4.013-4.31-5.98l-.1-.137h463.732c50.206 0 90.922 40.716 90.922 90.922v335.75z"/></svg>