<svg viewBox="0 0 1024.002 1024.003" xmlns="http://www.w3.org/2000/svg"><path d="M985.696 236.21H707.352v76.61h240.04v398.363h-58.734c-21.156 0-38.304 17.148-38.304 38.304v64.85l-134.818-96.042c-6.498-4.634-14.262-7.112-22.23-7.112H439.222V596.27h-76.608v153.217c0 21.156 17.148 38.304 38.304 38.304h280.144L866.43 919.85c6.614 4.713 14.402 7.113 22.23 7.113 5.988 0 12.014-1.404 17.544-4.252 12.756-6.575 20.76-19.713 20.76-34.05V787.79h58.734c21.156 0 38.304-17.147 38.304-38.303V274.515c-.002-21.156-17.15-38.304-38.306-38.304zM707.352 97.04H38.304C17.148 97.04 0 114.184 0 135.342V596.27c0 21.157 17.148 38.305 38.304 38.305h86.822v128.958c0 15.22 9.002 28.984 22.932 35.086 4.942 2.157 10.164 3.217 15.36 3.217 9.448 0 18.77-3.486 25.984-10.15l170.3-157.112h347.65c21.156 0 38.304-17.148 38.304-38.304V135.344c0-21.158-17.148-38.304-38.304-38.304zm-38.304 460.927h-324.31c-9.628 0-18.896 3.626-25.97 10.15L201.736 676.083V596.27c0-21.157-17.148-38.305-38.304-38.305H76.608V173.647h592.438v384.32z"/></svg>