<svg viewBox="0 0 1024 1024.003" xmlns="http://www.w3.org/2000/svg"><path d="M349.158 303.19L46.294 0 0 46.296 303.19 349.16H153.55v65.2h228.21c18.005 0 32.6-14.594 32.6-32.6V153.552h-65.202v149.64zm293.41 111.17h228.207v-65.2h-149.64L1024 46.294 978.032 0 675.168 303.19V153.553h-65.202V381.76c0 18.006 14.595 32.6 32.6 32.6zm228.207 260.81v-65.203H642.567c-18.006 0-32.6 14.595-32.6 32.6v228.21h65.2v-149.64L978.033 1024 1024 978.034 721.136 675.17h149.64zM381.76 609.966H153.55v65.202h149.64L0 978.032 45.968 1024l303.19-302.863v149.64h65.202v-228.21c0-18.005-14.595-32.6-32.6-32.6z"/></svg>