<svg viewBox="0 0 1024 1024.003" xmlns="http://www.w3.org/2000/svg"><path d="M981.334 469.3H938.66c-.07-47.1-38.228-85.26-85.326-85.33v-42.617l26.044-.016c56.296 0 101.946-45.674 101.946-101.974V102.06C981.324 45.73 935.64.046 879.308.046L741.992.13c-56.316.01-101.958 45.68-101.958 101.975v137.302c0 56.364 45.674 102.016 102.016 102.016l25.95-.018v42.562c-47.102.068-85.266 38.23-85.334 85.33h-42.664c-.07-47.142-38.3-85.334-85.458-85.334h-85.078c-47.158 0-85.388 38.19-85.458 85.334h-42.724c-.07-47.098-38.228-85.258-85.326-85.33V341.35l26.044-.015c56.296 0 101.946-45.674 101.946-101.974v-137.3C383.948 45.73 338.264.046 281.932.046L144.616.13C88.302.14 42.658 45.81 42.658 102.106v137.302c0 56.364 45.674 102.016 102.016 102.016l25.95-.016v42.562c-47.102.067-85.266 38.23-85.334 85.33H42.666C19.102 469.3 0 488.4 0 511.964s19.102 42.666 42.666 42.666h42.622c.07 47.143 38.3 85.335 85.458 85.335h85.078c47.158 0 85.388-38.19 85.458-85.334h42.724c.07 47.1 38.228 85.26 85.326 85.33v42.69l-26.05.015c-56.316.008-101.958 45.678-101.958 101.974v137.3c0 56.365 45.674 102.017 102.016 102.017l137.328-.086c56.296 0 101.946-45.673 101.946-101.973V784.595c0-56.332-45.684-102.016-102.016-102.016l-25.932.015V639.96c47.102-.067 85.266-38.23 85.334-85.33h42.664c.07 47.143 38.3 85.335 85.458 85.335H853.2c47.158 0 85.388-38.19 85.458-85.334h42.674c23.564 0 42.666-19.1 42.666-42.665s-19.1-42.666-42.664-42.666zm-239.31-213.21c-9.196 0-16.656-7.457-16.656-16.683V102.105c0-9.18 7.456-16.64 16.64-16.64l137.328-.086c9.178 0 16.656 7.477 16.656 16.68v137.303c0 9.18-7.456 16.64-16.64 16.64l-67.098.042c-.53-.02-1.052-.08-1.586-.08-.55 0-1.082.062-1.626.082l-67.018.042zm-597.376 0c-9.196 0-16.656-7.457-16.656-16.683V102.105c0-9.18 7.456-16.64 16.64-16.64l137.328-.086c9.178 0 16.656 7.477 16.656 16.68v137.303c0 9.18-7.456 16.64-16.64 16.64l-67.098.042c-.53-.02-1.052-.08-1.586-.08-.55 0-1.082.062-1.626.082l-67.018.042zm26.1 298.54c-.036 0-.068-21.21-.092-42.465 0-.068.01-.132.01-.2 0-.07-.01-.138-.01-.208-.022-21.21-.036-42.33-.036-42.33 0-.074 85.206-.128 85.206-.128.074 0 .128 85.205.128 85.205 0 .072-85.206.126-85.206.126zm409.878 213.283c9.178 0 16.656 7.478 16.656 16.682v137.302c0 9.18-7.456 16.64-16.64 16.64l-137.328.086c-9.196 0-16.656-7.456-16.656-16.682v-137.3c0-9.18 7.456-16.64 16.64-16.64l68.536-.043c.056 0 .11.008.166.008.058 0 .114-.008.172-.008l68.454-.044zM469.466 554.63c-.074 0-.128-85.205-.128-85.205 0-.074 85.206-.128 85.206-.128.074 0 .128 85.206.128 85.206-.002.074-85.206.128-85.206.128zm298.658 0c-.074 0-.128-85.205-.128-85.205 0-.074 85.206-.128 85.206-.128.074 0 .128 85.206.128 85.206 0 .074-85.206.128-85.206.128z"/></svg>