<svg viewBox="0 0 1024 1024.003" xmlns="http://www.w3.org/2000/svg"><path d="M702.056 288.805h-254.31c-22.414 0-40.582 18.166-40.582 40.582 0 22.414 18.166 40.582 40.582 40.582h254.31c22.428 0 40.582-18.167 40.582-40.583-.002-22.416-18.168-40.582-40.582-40.582zm97.394 196.142H447.746c-22.414 0-40.582 18.166-40.582 40.582 0 22.413 18.166 40.58 40.582 40.58H799.45c22.414 0 40.582-18.165 40.582-40.58s-18.168-40.583-40.582-40.583zM983.418 34.495H265.13c-22.414 0-40.582 18.166-40.582 40.582v382.816h-71.692C68.568 457.893 0 526.475 0 610.75v225.9c0 84.29 68.568 152.857 152.856 152.857 6.898 0 13.69-.46 20.332-1.352h669.55c99.938 0 181.262-81.312 181.262-181.262V75.077c0-22.416-18.166-40.582-40.582-40.582zM224.55 836.65c0 34.78-24.904 63.863-57.814 70.34h-13.878v1.353c-39.54 0-71.694-32.168-71.694-71.694v-225.9c0-39.527 32.168-71.695 71.694-71.695h71.694V836.65zm718.288-29.76c0 54.26-45.83 100.1-100.1 100.1H288.546c10.97-21.06 17.166-44.99 17.166-70.34V115.658h637.126V806.89zM702.056 668.93h-254.31c-22.414 0-40.582 18.165-40.582 40.58s18.166 40.583 40.582 40.583h254.31c22.428 0 40.582-18.166 40.582-40.582-.002-22.415-18.168-40.58-40.582-40.58z"/></svg>