<svg viewBox="0 0 1024.0011 1024.003" xmlns="http://www.w3.org/2000/svg"><path d="M1023.355 28.378c-1.282-6.612-4.456-12.9-9.458-17.96-.804-.804-1.632-1.562-2.508-2.298-6.345-5.284-14.08-7.966-21.823-8.094H989.53c-1.69-.036-3.183.058-4.77.244-.08-.012-.035 0-.045 0-4.408.536-8.736 1.912-12.712 4.128L18.583 510.242C6.64 516.586-.593 529.252.037 542.757c.618 13.518 8.98 25.46 21.46 30.673l298.564 124.78c12.84 5.364 27.7 2.612 37.75-7.068l336.024-323.488L428.08 719.48c-5.775 7.65-8.165 17.343-6.59 26.812 1.56 9.458 6.94 17.856 14.88 23.244L783.92 1005.12c5.89 3.99 12.736 6.03 19.64 6.03 4.502 0 9.038-.863 13.318-2.635 10.858-4.456 18.754-14.078 21.016-25.588L1023.21 42.393c.478-2.228.734-4.49.782-6.742.05-2.447-.172-4.895-.638-7.275zM325.847 624.795l-209.122-87.4 668.2-354.52-459.078 441.92zM779.454 917.56L506.127 732.278l419.156-554.885-145.83 740.17zm-238.21-128.566l-131.45 128.03-41.692-256.694-69.08 11.232 52.482 323.056c2.088 12.876 11.174 23.512 23.57 27.605 3.592 1.178 7.29 1.762 10.952 1.762 8.98 0 17.786-3.464 24.446-9.914l179.592-174.94-48.82-50.137zm-188.9 190.497l69.995-248.41 67.35 18.977-69.994 248.41-67.35-18.976z"/></svg>