<svg viewBox="0 0 1024.002 1024.003" xmlns="http://www.w3.org/2000/svg"><path d="M987.428 73.143H36.572C16.372 73.143 0 89.515 0 109.715v804.572c0 20.2 16.372 36.572 36.572 36.572H987.43c20.2 0 36.572-16.373 36.572-36.573V109.715c-.002-20.2-16.374-36.572-36.574-36.572zm-36.57 804.572H73.142V146.287h877.714v731.428zm-515.292-524.08c-11.52-14.178-31.72-17.7-47.36-8.216L16.396 570.94l37.924 62.55 344.552-209.005 411.44 506.758 56.796-46.092-431.542-531.515zm323.45-4.608c-14.214-12.3-35.45-11.836-49.092 1.122L519.752 530.566l50.334 53.078 166.132-157.622 228.498 197.754 47.86-55.32-253.56-219.43z"/></svg>