<svg viewBox="0 0 1024.002 1024.003" xmlns="http://www.w3.org/2000/svg"><path d="M837.818 547.225h-362.3v-362.3c0-20.844-16.894-37.74-37.74-37.74-117.156 0-227.154 45.476-309.968 128.276C45.388 359.33 0 469.256 0 584.966c0 241.394 196.384 437.778 437.778 437.778 117.156 0 227.154-45.476 309.968-128.276 82.424-83.87 127.812-193.792 127.812-309.502 0-20.846-16.896-37.74-37.74-37.74zM694.144 841.33c-68.322 68.32-159.362 105.933-256.364 105.933-199.78 0-362.3-162.532-362.3-362.3 0-95.796 37.702-186.924 105.934-256.352 59.376-59.375 135.926-95.57 218.626-104.02v360.375c0 20.844 16.894 37.74 37.74 37.74h360.338c-8.556 81.792-44.774 158.366-103.974 218.624zm201.58-712.26C811.854 46.648 701.93 1.26 586.222 1.26c-20.844 0-37.74 16.893-37.74 37.74v400.04c0 20.843 16.894 37.74 37.74 37.74h400.04c20.858 0 37.74-16.895 37.74-37.74-.002-115.71-45.39-225.62-128.278-309.97zM623.974 401.3V78.712c81.794 8.542 158.342 44.734 218.386 103.734 59.402 60.446 95.658 137.058 104.212 218.852H623.974z"/></svg>