<svg viewBox="0 0 1024 1024.003" xmlns="http://www.w3.org/2000/svg"><path d="M512 0C267.28 0 68.186 191.044 68.186 425.87c0 318.697 407.208 581.49 424.554 592.52 5.874 3.745 12.56 5.61 19.26 5.61 6.688 0 13.386-1.877 19.26-5.61 17.346-11.03 424.554-273.823 424.554-592.52C955.814 191.044 756.732 0 512 0zm-.012 944.785C433.166 889.9 139.962 669.225 139.962 425.87c0-195.253 166.89-354.093 372.038-354.093s372.038 158.84 372.038 354.094c0 242.96-293.264 463.96-372.05 518.915zM512 195.003c-111.48 0-202.168 90.688-202.168 202.168 0 111.47 90.688 202.157 202.168 202.157S714.168 508.64 714.168 397.17c0-111.465-90.688-202.167-202.168-202.167zm0 332.538c-71.896 0-130.392-58.485-130.392-130.38S440.106 266.77 512 266.77c71.896 0 130.392 58.485 130.392 130.39 0 71.895-58.496 130.38-130.392 130.38z"/></svg>