<svg viewBox="0 0 1024 1024.003" xmlns="http://www.w3.org/2000/svg"><path d="M197.29 1024c-12.11 0-24.407-1.965-36.493-6.023-45.824-15.384-75.976-56.594-76.814-104.99-.004-.23-.006-.462-.006-.692v-799.49c.21-43.11 24.186-81.673 62.57-100.835C184.815-7.136 229.89-3.15 264.173 22.372c.108.08.216.162.324.244L634.382 303.81c17.586 13.37 21.004 38.463 7.634 56.05-13.368 17.585-38.46 21.005-56.05 7.633L216.273 86.443c-14.492-10.69-28.592-5.59-33.994-2.895-5.473 2.732-18.213 11.07-18.3 29.454v798.89c.515 21.29 17.167 28.53 22.28 30.245 5.085 1.706 22.57 5.948 35.83-10.378L429.66 642.6c7.514-10.468 19.61-16.674 32.496-16.674h365.72c21.135-.59 28.46-17.588 30.207-22.806 1.765-5.272 6.197-23.454-10.545-36.782l-89.562-68.086c-17.586-13.37-21.004-38.464-7.634-56.05 13.367-17.584 38.46-21.006 56.05-7.634l89.85 68.306c.165.126.333.254.497.384 38.066 29.896 52.67 79.062 37.208 125.256-15.42 46.068-56.562 76.452-104.814 77.404-.263.004-.525.008-.79.008H482.68L286.5 979.215c-.33.46-.67.914-1.02 1.358-22.01 28.066-54.357 43.426-88.19 43.428z"/></svg>