<svg viewBox="0 0 1024 1024.003" xmlns="http://www.w3.org/2000/svg"><path d="M925.246 222H816.4V80c0-22.09-17.908-40-40-40H247.602c-22.092 0-40 17.91-40 40v142H98.754C44.302 222 0 266.86 0 322v380c0 55.14 44.302 100 98.754 100H207.6v142c0 22.093 17.908 40 40 40h528.796c22.092 0 40-17.907 40-40V802h108.846c54.456 0 98.758-44.86 98.758-100V322c0-55.14-44.302-100-98.754-100zM287.602 120h448.796v102H287.602V120zm0 784V602h448.796v302H287.602zm637.644-182H816.4V602H852c22.092 0 40-17.907 40-40s-17.908-40-40-40H172c-22.092 0-40 17.91-40 40s17.908 40 40 40h35.602v120H98.754C88.414 722 80 713.03 80 702V322c0-11.027 8.414-20 18.754-20h826.49c10.342 0 18.754 8.973 18.754 20v380H944c0 11.03-8.414 20-18.754 20z"/></svg>