<svg viewBox="0 0 1024.002 1024.003" xmlns="http://www.w3.org/2000/svg"><path d="M987.858 475.855H819.2c-13.59 0-26.022 7.626-32.19 19.732L644.36 775.175 419.538 145.68c-4.854-13.59-17.312-22.985-31.708-23.913-14.42-1-27.962 6.782-34.514 19.636L182.67 475.867H36.142C16.18 475.867 0 492.06 0 512.007c0 19.95 16.18 36.142 36.142 36.142h168.67c13.578 0 26.01-7.627 32.19-19.723L379.64 248.84l224.822 629.495c4.854 13.588 17.324 22.986 31.708 23.914.782.047 1.566.07 2.338.07 13.504 0 25.974-7.565 32.178-19.707L841.332 548.14H987.86c19.962 0 36.142-16.18 36.142-36.143s-16.182-36.142-36.144-36.142z"/></svg>