<svg viewBox="0 0 1024.002 1024.003" xmlns="http://www.w3.org/2000/svg"><path d="M810.666 128h-451.66l55.164-55.163c16.662-16.662 16.662-43.678 0-60.34s-43.678-16.662-60.34 0l-128 128-.022.024c-.984.987-1.918 2.025-2.804 3.103-.406.494-.758 1.014-1.136 1.52-.454.608-.926 1.202-1.348 1.834-.406.606-.758 1.236-1.13 1.86-.342.572-.7 1.13-1.016 1.72-.34.636-.628 1.29-.934 1.938-.29.614-.596 1.218-.856 1.846-.26.63-.47 1.273-.7 1.913-.242.674-.5 1.34-.71 2.03-.194.64-.336 1.29-.498 1.936-.178.7-.374 1.395-.516 2.11-.148.75-.236 1.507-.344 2.26-.088.623-.208 1.237-.27 1.867-.276 2.8-.276 5.622 0 8.422.062.63.18 1.24.27 1.863.108.756.196 1.512.346 2.26.142.716.338 1.408.516 2.11.162.648.304 1.298.498 1.938.208.69.466 1.355.708 2.027.23.64.44 1.284.7 1.914.26.63.566 1.233.856 1.845.306.65.594 1.304.934 1.94.314.588.674 1.146 1.014 1.718.372.624.724 1.254 1.13 1.862.422.63.892 1.224 1.346 1.83.38.508.734 1.03 1.14 1.524.886 1.077 1.818 2.115 2.804 3.1l.022.025 128 128c16.662 16.662 43.678 16.662 60.34 0s16.662-43.678 0-60.34l-55.164-55.164h451.66c70.686 0 128 57.315 128 128s-57.314 128-128 128H213.334C95.518 469.336 0 564.854 0 682.668S95.518 896 213.334 896h451.66l-55.164 55.165c-16.662 16.662-16.662 43.678 0 60.34s43.678 16.662 60.34 0l128-128c.008-.008.012-.016.02-.022.986-.988 1.92-2.024 2.806-3.104.406-.495.758-1.015 1.138-1.523.454-.606.924-1.2 1.346-1.83.406-.608.758-1.238 1.13-1.86.342-.572.7-1.13 1.016-1.72.34-.634.626-1.286.932-1.934.29-.616.598-1.22.86-1.85.26-.628.47-1.27.698-1.906.244-.676.502-1.344.712-2.036.192-.635.334-1.283.496-1.927.178-.706.376-1.402.518-2.122.148-.743.234-1.495.342-2.243.09-.628.21-1.244.272-1.882.276-2.8.276-5.62 0-8.42-.062-.636-.182-1.254-.272-1.882-.108-.75-.194-1.5-.342-2.244-.142-.72-.34-1.417-.518-2.123-.162-.644-.304-1.29-.496-1.928-.21-.693-.468-1.36-.712-2.037-.228-.636-.438-1.278-.698-1.906-.262-.63-.568-1.236-.86-1.85-.306-.648-.592-1.3-.932-1.934-.316-.588-.674-1.148-1.016-1.72-.372-.622-.724-1.254-1.13-1.86-.422-.63-.892-1.224-1.346-1.83-.38-.508-.732-1.028-1.138-1.522-.886-1.08-1.82-2.117-2.806-3.103-.008-.008-.012-.016-.02-.022l-128-128c-16.662-16.662-43.678-16.662-60.34 0s-16.662 43.678 0 60.34l55.164 55.164h-451.66c-70.686 0-128-57.315-128-128s57.314-128 128-128h597.334c117.814 0 213.334-95.52 213.334-213.335S928.482 128 810.666 128z"/></svg>