<svg viewBox="0 0 1024 1024.003" xmlns="http://www.w3.org/2000/svg"><path d="M938.752 320c47.074 0 85.248-38.173 85.248-85.247v-128.17c0-47.074-38.174-85.248-85.248-85.248H85.248C38.174 21.335 0 59.51 0 106.583v128.17C0 281.827 38.174 320 85.248 320h.094v42.667h-.094C38.174 362.667 0 400.843 0 447.915v128.17c0 47.074 38.174 85.248 85.248 85.248h.094V704h-.094C38.174 704 0 742.176 0 789.25v128.17c0 47.073 38.174 85.247 85.248 85.247h853.504c47.074 0 85.248-38.174 85.248-85.248V789.25c0-47.075-38.174-85.25-85.248-85.25h-.076v-42.665h.076c47.074 0 85.248-38.174 85.248-85.248v-128.17c0-47.074-38.174-85.248-85.248-85.248h-.076V320h.076zM85.334 106.668h853.334v128H85.334v-128zm0 341.334h853.334v128H85.334V448zm853.332 469.335H85.334v-128h853.334v128zM853.342 704H170.676v-42.665h682.666V704zm0-341.333H170.676V320h682.666v42.667z"/></svg>