<svg viewBox="0 0 1024 1024.003" xmlns="http://www.w3.org/2000/svg"><path d="M904.368 128.83l-26.24-5.25C757.732 99.504 641.01 59.45 531.076 4.504c-12.008-6.002-26.142-6.002-38.15 0-109.97 54.964-226.654 95.006-347.05 119.078l-26.242 5.25c-19.944 3.987-34.298 21.5-34.298 41.837v157.098c0 183.904 73.062 360.302 203.088 490.33l193.408 193.408c16.662 16.662 43.678 16.662 60.34 0L735.58 818.095c130.028-130.028 203.088-306.426 203.088-490.33V170.667c-.002-20.338-14.356-37.848-34.3-41.838zm-51.034 198.937c0 161.272-64.072 315.966-178.096 429.99L512 920.995 348.762 757.757C234.738 643.733 170.666 489.04 170.666 327.767V205.623C288.718 181.33 403.338 142.56 512 90.195c108.636 52.348 223.284 91.128 341.334 115.428v122.144zM494.99 191.877c-67.496 29.36-136.896 53.892-207.646 73.384-18.51 5.1-31.334 21.935-31.334 41.135v21.376c0 139.587 54.426 270.973 153.134 369.633l72.688 72.73c26.874 26.89 72.846 7.858 72.846-30.162V231.004c-.002-30.73-31.51-51.384-59.688-39.126zm-25.648 445.048C389.26 556.81 344.166 451.365 341.47 338.523c43.176-12.83 85.838-27.446 127.872-43.806v342.208z"/></svg>