<svg viewBox="0 0 1024.002 1024.003" xmlns="http://www.w3.org/2000/svg"><path d="M922.62 406.604H1024V341.07h-88.864l-69.466-27.524 84.604-84.604c48.11-48.25 48.11-126.33 0-174.582-48.845-46.652-125.737-46.652-174.582 0L651.505 178.547 147.877 245.72 13.205 625.16C-4.727 678.007 21.1 735.744 72.448 757.604l-25.95 25.917L0 1004.635l221.21-46.53 42.598-42.432c16.943 9.795 36.134 15.034 55.704 15.204H636.73l262.135-98.3h125.137V767.04h-137l-262.135 98.302H319.512c-27.145 0-49.15-22.005-49.15-49.15s22.005-49.15 49.15-49.15H578.83l164.654-164.62-86.21-80.477 157.904-157.937 107.443 42.597zM822.024 100.69c22.92-21.886 58.997-21.886 81.917 0 22.58 22.638 22.58 59.28 0 81.917l-45.186 45.186-81.917-81.917 45.185-45.186zM75.135 646.458h.033l121.238-341.104 378.688-50.527-118.878 119.01H326.95l-83.523 49.314-87.324 247.686c-.762 2.03-1.694 3.99-2.785 5.865l-20.578 20.546c-5.384 2.673-11.29 4.127-17.3 4.26-23.345.006-42.277-18.913-42.283-42.257 0-4.343.666-8.656 1.978-12.792zM390.68 439.37L261.71 568.343l35.584-100.922 47.545-28.05h45.84zm161.017 262.137H477.71L610.906 568.31l38.272 35.682-97.483 97.514zm-166.653 0H319.51c-63.34 0-114.684 51.346-114.684 114.684.055 18.28 4.553 36.274 13.107 52.428l-29.49 29.49-103.74 21.823 21.823-103.74 65.534-65.533c14.272-8.794 26.28-20.813 35.06-35.093L730.51 192.21l81.917 81.917-427.38 427.38z"/></svg>