<svg viewBox="0 0 1024 1024.003" xmlns="http://www.w3.org/2000/svg"><path d="M474 684V380H360c-22.094 0-40-17.905-40-40s17.906-40 40-40h304c22.094 0 40 17.907 40 40s-17.906 40-40 40H554v304c0 22.095-17.906 40-40 40s-40-17.905-40-40zm550-644v160c0 22.095-17.906 40-40 40h-40v334c0 22.095-17.906 40-40 40s-40-17.905-40-40V240h-40c-22.094 0-40-17.905-40-40v-40H240v40c0 22.095-17.906 40-40 40h-40v544h40c22.094 0 40 17.907 40 40v40h328c22.094 0 40 17.907 40 40s-17.906 40-40 40H240v40c0 22.095-17.906 40-40 40H40c-22.094 0-40-17.905-40-40V824c0-22.093 17.906-40 40-40h40V240H40c-22.094 0-40-17.905-40-40V40C0 17.908 17.906 0 40 0h160c22.094 0 40 17.907 40 40v40h544V40c0-22.093 17.906-40 40-40h160c22.094 0 40 17.907 40 40zM160 864H80v80h80zm0-784H80v80h80zm784 0h-80v80h80zm78 632v212c0 55.142-44.86 100-100 100H706c-16.234 0-30.852-9.804-37.008-24.827-6.164-15.016-2.625-32.266 8.93-43.664l276-272c11.484-11.314 28.648-14.634 43.523-8.407S1022 695.876 1022 712zm-80 95.58L803.57 944H922c11.03 0 20-8.968 20-20z"/></svg>