<svg viewBox="0 0 1024 1024.003" xmlns="http://www.w3.org/2000/svg"><path d="M135.26 376.76C60.664 376.76 0 437.424 0 512c0 74.592 60.666 135.243 135.26 135.243 74.548 0 135.24-60.648 135.24-135.242 0-74.575-60.692-135.24-135.24-135.24zm383.374 0c-74.585 0-135.26 60.665-135.26 135.24 0 74.592 60.676 135.243 135.26 135.243 74.58 0 135.262-60.648 135.262-135.242 0-74.575-60.684-135.24-135.262-135.24zm370.13 0c-74.567 0-135.25 60.665-135.25 135.24 0 74.592 60.684 135.243 135.25 135.243C963.314 647.243 1024 586.595 1024 512c0-74.575-60.687-135.24-135.236-135.24z"/></svg>