<svg viewBox="0 0 1024.001 1024.003" xmlns="http://www.w3.org/2000/svg"><path d="M552.497 655.13L434.27 538.3l1.397-1.397c80.99-90.3 138.705-194.095 172.684-303.943h136.38v-93.323H418.91V46.545h-93.092v93.092H0v92.625h519.912c-31.418 89.832-80.524 175.01-147.55 249.485-43.287-48.175-79.128-100.538-107.52-155.928h-93.09c33.977 75.867 80.524 147.55 138.705 212.246L73.773 771.956l65.863 65.864 232.728-232.728L517.12 749.85l35.375-94.72zm262.05-236.22h-93.093L512 977.456h93.09l52.365-139.636h221.09l52.364 139.636H1024L814.547 418.91zM692.363 744.728L768 542.953l75.638 201.775H692.364z"/></svg>