<svg viewBox="0 0 1024 1024.003" xmlns="http://www.w3.org/2000/svg"><path d="M699.705 124.394c-21.594-9.434-46.746.424-56.18 22.018s.424 46.746 22.018 56.18C804.368 263.24 896 400.548 896 554.665 896 766.735 724.057 938.668 512 938.668c-212.086 0-384.003-171.917-384.003-384.003 0-154.083 91.6-291.39 230.386-352.08 21.59-9.44 31.44-34.595 22-56.185-9.44-21.59-34.597-31.44-56.187-21.998-169.58 74.15-281.53 241.964-281.53 430.26 0 259.215 210.124 469.34 469.338 469.34 259.187 0 469.34-210.14 469.34-469.34 0-188.34-111.998-356.162-281.633-430.268zM511.982 469.34c23.564 0 42.666-19.103 42.666-42.667V42.67C554.65 19.104 535.546.002 511.982.002s-42.666 19.102-42.666 42.666V426.67c0 23.565 19.102 42.67 42.666 42.67z"/></svg>