<svg viewBox="0 0 1024.0042 1024.003" xmlns="http://www.w3.org/2000/svg"><path d="M389.633 935.423c-170.906 0-305.984-29.86-370.61-81.906l-1.257-1.016-1.14-1.14C1.272 836-3.76 815.852 2.835 796.087l.602-1.64c8-20.01 27.602-33.478 48.844-33.603 43.72-.758 81.97-5.97 116.68-16.086-55.367-25.75-93.828-70.336-116.71-134.867-7.696-20.124-1.056-42.437 16.68-55.74 4.374-3.29 9.32-5.774 14.554-7.44-30.766-35.515-53.492-75.93-66.22-118.67l-.397-1.33-.274-1.358c-4.32-21.617 5.344-43.844 23.055-53.414 7.43-4.266 15.5-6.477 23.603-6.664C54.52 346.46 48.167 327.15 44.4 307.72 33.95 253.874 42.574 199.9 70.027 147.29l6.352-12.704c5.086-10.164 14.805-17.305 26.008-19.125 11.203-1.812 22.688 1.892 30.71 9.915l11.57 11.586c91.407 95.83 173.282 141.298 314.837 172.407 6.32-54.336 29.813-104.844 67.71-144.594 45.103-47.297 105.33-73.836 169.587-74.742h.422c46.883 0 105.04 26.767 140.21 45.642 30.173-9.875 66.524-25.164 104.243-41.328 17.648-8.28 39.406-4.492 53.28 9.383 13.603 13.602 17.376 32.78 10.157 51.422-2.742 7.632-5.852 15.124-9.313 22.452 5.163 2.367 9.89 5.578 13.882 9.57 12.07 12.07 17.102 30.96 12.813 48.133l-.46 1.633c-14.454 46.578-42.22 84.516-78.94 108.328-6.132 326.57-252.054 590.156-553.46 590.156zM76.61 820.07c60.897 34.454 176.952 55.298 313.022 55.298 130.82 0 254.273-56.164 347.61-158.148 94.1-102.82 145.92-239.36 145.92-384.47v-1.632c0-13.14 7.235-25.133 18.876-31.305 23.617-12.508 42.742-33.813 55.18-61.055-12.828 2.023-25.867-3.125-33.86-13.86-9.288-12.476-9.39-29.327-.257-41.913 4.93-6.797 9.4-13.867 13.384-21.18-32.57 13.68-63.5 25.945-90.352 34.094-9.758 2.952-20.633 1.796-29.547-3.18-47.805-26.634-92.328-42.556-119.172-42.634-99.055 1.516-179.594 86.352-179.594 189.21 0 10.634-4.72 20.603-12.93 27.36-8.22 6.75-18.907 9.453-29.345 7.39-163.22-32.155-259.938-80.374-360.516-181.444-14.415 34.54-18.353 69.328-11.69 103.68 6.76 34.797 24.735 69.664 51.993 100.828 10.36 11.828 11.734 28.75 3.422 42.102-8.28 13.305-24.023 19.523-39.156 15.47-11.83-3.173-22.704-7.337-33.017-12.69 21.008 45.634 57.14 87.837 102.563 118.962 13.164 9.023 18.664 25.844 13.383 40.906-5.29 15.086-20.064 24.797-36.032 23.61-17.398-1.29-32.813-4.595-47-10.165 25.47 51.867 66.164 80.406 128.86 91.313 14.93 2.602 26.554 14.39 28.93 29.336 2.382 14.945-5.017 29.758-18.4 36.86-53.437 28.327-111.843 43.53-182.28 47.257z"/></svg>