<svg viewBox="0 0 1024 1024.003" xmlns="http://www.w3.org/2000/svg"><path d="M285.432 586.295l-188-215.204 188-215.203c15.192-17.41 13.42-43.848-3.99-59.054-17.41-15.192-43.834-13.406-59.054 3.99L10.338 343.565c-13.784 15.764-13.784 39.3 0 55.064L222.39 641.372c8.286 9.458 19.88 14.314 31.542 14.314 9.766 0 19.572-3.404 27.51-10.338 17.412-15.207 19.196-41.645 3.99-59.055zM719.86 329.24H41.852C18.736 329.24 0 347.972 0 371.09s18.736 41.853 41.852 41.853H719.86c121.552 0 220.436 98.882 220.436 220.422S841.412 853.787 719.86 853.787H97.656c-23.116 0-41.852 18.736-41.852 41.852s18.736 41.85 41.852 41.85H719.86c167.688 0 304.14-136.437 304.14-304.125S887.562 329.24 719.86 329.24z"/></svg>