<svg viewBox="0 0 1024 1024.003" xmlns="http://www.w3.org/2000/svg"><path d="M964.362 599.273L686.506 908.64 529.7 759.376l-55.158 57.946 216.454 206.04L1023.88 652.73zm-284.774-59.34C757.16 486.51 808.12 397.1 808.12 296c0-163.213-132.786-296-296-296s-296 132.787-296 296c0 101.097 50.958 190.503 128.522 243.927-72.42 24.988-138.796 66.27-194.562 122.036C53.378 758.667.12 887.24.12 1024h80c0-238.205 193.794-432 432-432 100.982 0 193.948 34.87 267.586 93.145l53.712-59.802c-46.354-37.504-98.316-66.242-153.83-85.41zM512.12 512c-119.102 0-216-96.897-216-216s96.898-216 216-216 216 96.9 216 216-96.898 216-216 216z"/></svg>