<svg viewBox="0 0 1024 1024.003" xmlns="http://www.w3.org/2000/svg"><path d="M1024 677.91l-56.536-56.537-143.92 143.92-143.92-143.92-56.538 56.536 143.92 143.92-143.92 143.92 56.538 56.535 143.92-143.92 143.92 143.92L1024 965.75 880.08 821.83zM511.716.284C348.592.285 215.88 132.997 215.88 296.12c0 101.04 50.93 190.397 128.452 243.79-72.38 24.975-138.72 66.235-194.454 121.967C53.228 758.53 0 887.033 0 1023.717h79.956c0-238.074 193.686-431.76 431.76-431.76 163.124 0 295.836-132.71 295.836-295.836C807.552 132.998 674.84.286 511.716.286zm0 511.716c-119.036 0-215.88-96.84-215.88-215.88S392.68 80.24 511.716 80.24s215.88 96.843 215.88 215.88S630.752 512 511.716 512z"/></svg>