<svg viewBox="0 0 1024 1024.003" xmlns="http://www.w3.org/2000/svg"><path d="M512 0C229.684 0 0 229.686 0 512s229.684 512 512 512 512-229.683 512-512S794.316 0 512 0zm0 945.833C272.78 945.833 78.168 751.207 78.168 512 78.168 272.78 272.78 78.17 512 78.17c239.206 0 433.832 194.61 433.832 433.83S751.206 945.834 512 945.834zm129.25-359.86l-90.166-90.166v-185.74c0-21.588-17.496-39.084-39.084-39.084s-39.084 17.496-39.084 39.084V512c0 10.37 4.116 20.3 11.452 27.633L585.986 641.25c7.634 7.635 17.626 11.453 27.632 11.453 9.992 0 19.998-3.818 27.632-11.464 15.27-15.257 15.27-40.01 0-55.267z"/></svg>