<svg viewBox="0 0 1024.0001 1024.003" xmlns="http://www.w3.org/2000/svg"><path d="M1012.966 873.997L604.698 57.3C587.03 21.958 551.51 0 512 0s-75.03 21.957-92.7 57.3L11.036 873.998c-16.182 32.368-14.484 70.07 4.54 100.852 19.022 30.775 51.978 49.15 88.156 49.15h816.536c36.178 0 69.132-18.373 88.156-49.15 19.024-30.783 20.722-68.485 4.542-100.853zm-72.594 58.792c-2.082 3.37-8.214 11.21-20.106 11.21H103.732c-11.892 0-18.022-7.84-20.106-11.21-2.084-3.375-6.36-12.37-1.036-23.02L490.856 93.072C496.754 81.275 507.608 80 512 80s15.246 1.275 21.144 13.073L941.41 909.77c5.322 10.65 1.046 19.645-1.038 23.02zM512 360.126c-22.092 0-40 17.908-40 40v252.24c0 22.092 17.908 40 40 40s39.998-17.908 40-39.998V400.126c0-22.092-17.908-40-40-40zm53.98 432.254c0 29.824-24.177 54-54 54s-54-24.176-54-54c0-29.822 24.177-54 54-54s54 24.178 54 54z"/></svg>